<svg xmlns="http://www.w3.org/2000/svg" width="507" height="458" fill="none">
  <path fill="#E5D7FF" d="M108.323 88.526c-4.339 1.6407.922 7.7865 5.505 8.5157 21.865 3.4683 44.828-.4115 64.36-10.8594 28.125-15.0521 44.203-47.0208 101.968-73.3854C303.24 2.2552 335.474-3.0052 357.948 2.7344c22.469 5.7448 43.047 21.9791 49.859 44.1823 12.37 40.3021-1.911 60.8693-5.838 102.8433 14.953-3 30.776 3.573 41.442 14.495 10.667 10.933 9.167 29.729 19.881 40.625 40.937 41.646 48.672 105.75 39.672 139.328C463.333 492 353.396 394.87 229.859 438.255c-33.739 11.849-71.619.136-105.963-9.812-28.9325-8.37-58.7866-21.505-74.7189-47.104-15.9375-25.599-10.1042-66.136 17.8698-77.308 7.8021-3.12 16.6146-3.797 23.7239-8.281 15.3282-9.672 15.8382-32.495 8.7709-49.208-7.0625-16.719-19.6146-30.808-25.5521-47.959-13.0729-37.739-18.224-95.281 21.2864-100.6507"/>
  <path fill="#5067B2" d="M133.536 357.943H74.6042v-27.011c0-14.104 11.4635-25.573 25.5628-25.573h7.812c14.099 0 25.557 11.474 25.557 25.573v27.011Zm-54.1193-4.813h49.3123v-22.192c0-11.448-9.307-20.761-20.75-20.761h-7.812c-11.4431 0-20.7503 9.313-20.7503 20.761v22.192Z"/>
  <path fill="#5067B2" d="M165.49 457.74H42.6562l17.5521-110.99h87.7347l17.547 110.99Z"/>
  <path fill="#585CAF" fill-opacity=".47" d="M165.49 457.74h-43.136V346.75h25.589l17.547 110.99Z"/>
  <path fill="#181D23" d="M330.036 412.292H188.245c-8.307 0-15.047-6.709-15.047-14.995V132.599c0-8.281 6.74-14.995 15.047-14.995h141.797c8.307 0 15.047 6.714 15.047 14.995v264.698c0 8.286-6.74 14.995-15.053 14.995Z"/>
  <path fill="#fff" d="M178.547 395.349c0 5.292 4.349 9.594 9.698 9.594h141.797c5.349 0 9.698-4.302 9.698-9.594V154.385H178.547v240.964Z"/>
  <path fill="#E7E2FD" d="M330.036 122.938H188.245c-5.349 0-9.698 4.307-9.698 9.593v21.854H339.74v-21.854c0-5.286-4.355-9.593-9.704-9.593Z"/>
  <path fill="#545452" d="M280.276 129.349h-41.724c-.031 0-.057-.026-.057-.063v-4.744c0-.032.021-.063.057-.063h41.724c.031 0 .057.026.057.063v4.744c0 .037-.026.063-.057.063Z"/>
  <path fill="#FFC043" d="M299.708 360.219h-81.135c-.078 0-.146-.068-.146-.146v-18.531c0-.078.068-.141.146-.141h81.135c.078 0 .146.063.146.141v18.531c0 .078-.068.146-.146.146Z"/>
  <path fill="#fff" d="M230.383 353.071v.229h-1.834v-.229l.625-.104 1.917-5.292h.792l1.979 5.292.708.104v.229h-2.354v-.229l.75-.104-.563-1.604h-2.208l-.562 1.604.75.104Zm.895-4.792-.958 2.709h1.958l-1-2.709Zm8.309 2.188c0-.776-.219-1.365-.646-1.771-.417-.401-1.016-.604-1.792-.604h-.75v4.812c.334.031.729.042 1.188.042.677 0 1.177-.198 1.5-.604.333-.401.5-1.026.5-1.875Zm-2.167-2.75c1.026 0 1.792.229 2.292.687.5.459.75 1.156.75 2.084 0 .932-.245 1.64-.729 2.125-.474.474-1.188.708-2.146.708l-2-.021h-.709v-.229l.709-.104v-4.917l-.709-.104v-.229h2.542Zm8.329 2.75c0-.776-.218-1.365-.645-1.771-.417-.401-1.016-.604-1.792-.604h-.75v4.812c.333.031.729.042 1.187.042.677 0 1.177-.198 1.5-.604.334-.401.5-1.026.5-1.875Zm-2.166-2.75c1.026 0 1.791.229 2.291.687.5.459.75 1.156.75 2.084 0 .932-.244 1.64-.729 2.125-.474.474-1.187.708-2.146.708l-2-.021h-.708v-.229l.708-.104v-4.917l-.708-.104v-.229h2.542Zm6.662 5.583v-.229l.896-.104v-4.896h-.229c-.698 0-1.177.031-1.438.083l-.104.875h-.292v-1.312h4.938v1.312h-.292l-.104-.875c-.083-.01-.271-.026-.562-.041-.282-.011-.584-.021-.917-.021h-.208v4.875l.895.104v.229h-2.583Zm4.975-2.792c0 .891.146 1.537.437 1.938.302.406.776.604 1.417.604.635 0 1.104-.198 1.396-.604.302-.401.458-1.047.458-1.938 0-.885-.156-1.526-.458-1.916-.292-.401-.761-.604-1.396-.604-.641 0-1.115.203-1.417.604-.291.39-.437 1.031-.437 1.916Zm-.875 0c0-1.901.906-2.854 2.729-2.854.901 0 1.583.245 2.042.729.458.474.687 1.183.687 2.125 0 .948-.239 1.662-.708 2.146-.458.49-1.136.729-2.021.729-.891 0-1.573-.239-2.042-.729-.458-.484-.687-1.198-.687-2.146Zm11.171 2.875c-.906 0-1.615-.239-2.125-.729-.5-.5-.75-1.192-.75-2.083 0-.958.239-1.677.729-2.167.484-.5 1.208-.75 2.167-.75.583 0 1.208.073 1.875.209l.021 1.229h-.271l-.125-.729c-.198-.11-.427-.198-.688-.271-.25-.068-.515-.104-.791-.104-.709 0-1.23.208-1.563.625-.323.416-.479 1.072-.479 1.958 0 .807.167 1.427.5 1.854.344.432.844.646 1.5.646.318 0 .614-.031.896-.104.291-.084.51-.193.666-.334l.167-.812h.271l-.021 1.292c-.615.182-1.271.27-1.979.27Zm4.379-.312v.229h-1.833v-.229l.625-.104 1.916-5.292h.792l1.979 5.292.709.104v.229h-2.355v-.229l.75-.104-.562-1.604h-2.208l-.563 1.604.75.104Zm.896-4.792-.958 2.709h1.958l-1-2.709Zm5.121 2.584v2.104l.854.104v.229h-2.333v-.229l.666-.104v-4.917l-.708-.104v-.229h2.417c.692 0 1.208.12 1.541.354.334.239.5.62.5 1.146 0 .364-.104.682-.312.958-.198.266-.474.453-.833.563l1.52 2.229.605.104v.229h-1.334l-1.583-2.437h-1Zm2.104-1.605c0-.416-.104-.713-.312-.895-.198-.178-.558-.271-1.084-.271h-.708v2.396h.729c.5 0 .854-.089 1.063-.271.208-.193.312-.511.312-.959Zm2.616 4.042v-.229l.896-.104v-4.896h-.229c-.698 0-1.178.031-1.438.083l-.104.875h-.292v-1.312h4.938v1.312h-.292l-.104-.875c-.083-.01-.271-.026-.563-.041-.281-.011-.583-.021-.916-.021h-.209v4.875l.896.104v.229h-2.583Z"/>
  <path fill="#FFC043" d="M333.813 146.38h-19.704a.0747.0747 0 0 1-.073-.073v-16.255c0-.042.037-.073.073-.073h19.704c.041 0 .072.037.072.073v16.255c.006.037-.031.073-.072.073Z"/>
  <path fill="#2A294B" d="m322.193 142.448-.099 1.271h.234l.526-1.209"/>
  <path fill="#2A294B" d="M322.854 143.854c0 .339-.271.61-.614.61-.339 0-.615-.271-.615-.61 0-.333.271-.604.615-.604.338-.005.614.271.614.604Z"/>
  <path fill="#FCFAFF" d="M322.505 143.854c0 .146-.12.266-.265.266-.146 0-.266-.12-.266-.266 0-.14.12-.26.266-.26.145 0 .265.114.265.26Z"/>
  <path fill="#2A294B" d="m328.87 142.5.094 1.271h-.235l-.515-1.208"/>
  <path fill="#2A294B" d="M328.214 143.906c0 .334.27.604.614.604.333 0 .615-.27.615-.604 0-.338-.271-.609-.615-.609s-.614.276-.614.609Z"/>
  <path fill="#FCFAFF" d="M329.083 143.906c0 .177-.083.266-.26.266s-.266-.089-.266-.266c0-.177.089-.265.266-.265.177 0 .26.088.26.265Zm.146-1.271h-6.661c-.552 0-.995-.395-.995-.89v-1.563c0-.067.052-.125.125-.125h7.531c.073 0 .125.058.125.125 0 .073-.052.131-.125.131h-7.406v1.432c0 .349.338.635.745.635h6.661c.073 0 .125.058.125.13 0 .068-.057.125-.125.125Z"/>
  <path fill="#FBFAFC" d="M329.229 142.828h-6.661c-.651 0-1.183-.484-1.183-1.078v-1.557c0-.177.146-.318.313-.318h7.531c.177 0 .313.146.313.318 0 .172-.141.312-.313.312h-7.219v1.24c0 .245.256.443.558.443h6.661c.177 0 .313.145.313.312 0 .182-.136.328-.313.328Z"/>
  <path fill="#FCFAFF" d="M329.229 140.318h-7.531c-.052 0-.109-.037-.12-.089l-1.979-6.979-4.339-1.167c-.067-.02-.109-.083-.099-.151.021-.067.089-.109.152-.099l4.411 1.188c.047.01.083.042.099.088l1.969 6.959h7.338l1.5-6.209c.021-.067.089-.109.151-.093.068.02.11.088.094.151l-1.531 6.312c-.005.047-.052.089-.115.089Z"/>
  <path fill="#FBFAFC" d="M329.229 140.505h-7.531c-.141 0-.266-.099-.302-.229l-1.948-6.875-4.234-1.141a.3075.3075 0 0 1-.193-.135c-.042-.073-.063-.156-.042-.24.016-.078.063-.151.136-.203.072-.041.156-.057.239-.041l4.417 1.187c.104.026.193.11.229.219l1.932 6.818h7.047l1.474-6.068c.042-.167.203-.276.375-.234.172.041.271.213.24.38l-1.532 6.302c-.036.161-.161.26-.307.26Z"/>
  <path fill="#FCFAFF" d="M330.729 134.016h-10.745c-.073 0-.13-.058-.13-.131 0-.067.057-.125.13-.125h10.745c.073 0 .125.058.125.125 0 .073-.057.131-.125.131Z"/>
  <path fill="#FBFAFC" d="M330.729 134.203h-10.745c-.177 0-.312-.146-.312-.318 0-.171.141-.312.312-.312h10.745c.172 0 .313.146.313.312 0 .178-.141.318-.313.318Z"/>
  <path fill="#FCFAFF" d="M330.38 135.573h-10.052c-.073 0-.13-.052-.13-.125 0-.073.057-.125.13-.125h10.052c.073 0 .125.052.125.125 0 .073-.052.125-.125.125Z"/>
  <path fill="#FBFAFC" d="M330.38 135.76h-10.052c-.177 0-.312-.14-.312-.312a.31.31 0 0 1 .312-.313h10.052c.172 0 .313.141.313.313 0 .172-.141.312-.313.312Z"/>
  <path fill="#FCFAFF" d="M329.932 137.052h-9.031a.1232.1232 0 0 1-.125-.125c0-.073.057-.125.125-.125h9.031c.073 0 .13.052.13.125 0 .073-.062.125-.13.125Z"/>
  <path fill="#FBFAFC" d="M329.932 137.245h-9.031a.3133.3133 0 0 1-.312-.313c0-.172.145-.312.312-.312h9.031a.31.31 0 0 1 .313.312c0 .172-.141.313-.313.313Z"/>
  <path fill="#FCFAFF" d="M329.573 138.661h-8.307c-.073 0-.125-.052-.125-.125 0-.072.052-.13.125-.13h8.307c.073 0 .125.058.125.13 0 .073-.052.125-.125.125Z"/>
  <path fill="#FBFAFC" d="M329.578 138.854h-8.302c-.172 0-.312-.146-.312-.312 0-.177.145-.313.312-.313h8.302c.177 0 .313.146.313.313 0 .166-.141.312-.313.312Z"/>
  <path fill="#FCFAFF" d="M323.219 140.318c-.058 0-.115-.042-.125-.104l-1.271-6.303c-.011-.067.031-.13.099-.151.062-.01.13.032.151.099l1.266 6.302c.015.068-.027.131-.094.152-.005.005-.021.005-.026.005Z"/>
  <path fill="#FBFAFC" d="M323.219 140.505c-.151 0-.282-.109-.308-.255l-1.265-6.302c-.021-.083 0-.167.047-.234.047-.073.119-.12.198-.131.083-.021.161 0 .234.047.073.047.12.115.13.198l1.271 6.302c.021.084 0 .167-.047.235a.3122.3122 0 0 1-.198.135l-.062.005Z"/>
  <path fill="#FCFAFF" d="M325.464 140.318a.1238.1238 0 0 1-.125-.125l-.047-6.308c0-.067.052-.125.125-.125.073 0 .125.058.125.125l.047 6.308c0 .062-.053.125-.125.125Z"/>
  <path fill="#FBFAFC" d="M325.464 140.505c-.172 0-.313-.14-.318-.312l-.047-6.308c0-.171.135-.312.312-.317.172 0 .318.14.318.312l.047 6.302c0 .177-.135.323-.312.323Z"/>
  <path fill="#FCFAFF" d="M327.813 140.318h-.021c-.068-.011-.115-.073-.11-.146l.948-6.302a.1325.1325 0 0 1 .141-.11c.068.016.114.073.109.146l-.942 6.302c-.011.063-.068.11-.125.11Z"/>
  <path fill="#FBFAFC" d="M327.802 140.505h-.036c-.089-.015-.167-.062-.214-.13a.3242.3242 0 0 1-.062-.234l.948-6.302c.02-.167.177-.287.354-.266.088.016.161.062.208.13.052.063.073.151.063.234l-.948 6.303c-.021.156-.146.265-.313.265Z"/>
  <path fill="#B9B9EF" d="M31.0156 154.557H140.073c1.745 0 3.156-1.411 3.156-3.156V62.3802c0-1.7448-1.411-3.1614-3.156-3.1614H31.0156c-1.7448 0-3.1614 1.4166-3.1614 3.1614v89.0208c-.0052 1.745 1.4166 3.156 3.1614 3.156Z"/>
  <path fill="#2A294B" d="m99.3542 131.427.5729 7.386h-1.3802l-3.0209-7.032"/>
  <path fill="#2A294B" d="M95.526 139.594c0 1.958 1.5886 3.541 3.5521 3.541 1.9579 0 3.5469-1.583 3.5469-3.541 0-1.953-1.589-3.537-3.5469-3.537-1.9635 0-3.5521 1.584-3.5521 3.537Z"/>
  <path fill="#FCFAFF" d="M97.5365 139.594c0 .849.6927 1.536 1.5416 1.536.849 0 1.5419-.687 1.5419-1.536s-.6929-1.537-1.5419-1.537c-.8489 0-1.5416.688-1.5416 1.537Z"/>
  <path fill="#2A294B" d="m60.5416 131.74-.5677 7.385h1.375l3.0209-7.031"/>
  <path fill="#2A294B" d="M64.3698 139.906c0 1.959-1.5886 3.542-3.5521 3.542-1.9583 0-3.5469-1.583-3.5469-3.542 0-1.953 1.5886-3.536 3.5469-3.536 1.9635 0 3.5521 1.583 3.5521 3.536Z"/>
  <path fill="#FCFAFF" d="M62.3594 139.906c0 .203-.0365.401-.1146.589-.0781.187-.1927.354-.3333.5-.1459.14-.3125.255-.5.333a1.5483 1.5483 0 0 1-.5938.115c-.2031 0-.401-.037-.5885-.115-.1875-.078-.3542-.193-.5-.333-.1407-.146-.2552-.313-.3334-.5-.0781-.188-.1146-.386-.1146-.589 0-.203.0365-.396.1146-.588.0782-.188.1927-.349.3334-.495a1.524 1.524 0 0 1 .5-.333c.1875-.079.3854-.115.5885-.115.2083 0 .401.036.5938.115.1875.078.3541.187.5.333.1406.146.2552.307.3333.495.0781.192.1146.385.1146.588Z"/>
  <path fill="#2A294B" d="M58.4479 132.516h38.7083c3.2028 0 5.8078-2.313 5.8078-5.162v-9.052c0-.401-.329-.734-.735-.734H58.4531c-.401 0-.7292.328-.7292.734 0 .406.3282.734.7292.734h43.0419v8.318c0 2.042-1.9429 3.698-4.3388 3.698H58.4479c-.401 0-.7344.328-.7344.734 0 .407.3334.73.7344.73Z"/>
  <path fill="#2A294B" d="M58.4531 133.615h38.7031c3.8018 0 6.9008-2.808 6.9008-6.261v-9.052c0-1.005-.823-1.828-1.833-1.828H58.4531c-1.0104 0-1.8333.823-1.8333 1.828 0 1.005.8229 1.833 1.8333 1.833h41.9429v7.219c0 1.438-1.4533 2.604-3.2398 2.604H58.4531c-1.0104 0-1.8333.823-1.8333 1.828 0 1.006.8229 1.829 1.8333 1.829Z"/>
  <path fill="#2A294B" d="M58.4479 119.036h43.7761c.333 0 .62-.213.708-.536l11.5-40.5417 16.87-5.0729c.396-.0937.641-.4844.557-.875-.088-.3906-.479-.6406-.88-.5521l-17.297 5.1719c-.26.0573-.474.2552-.547.5156l-11.458 40.4322H59.0365l-8.75-36.0832a.7401.7401 0 0 0-.8907-.5417c-.3906.0938-.6406.4844-.5416.8802l8.8854 36.6507c.0781.318.375.552.7083.552Z"/>
  <path fill="#2A294B" d="M58.4531 120.135h43.7709c.818 0 1.542-.552 1.76-1.333l11.323-39.9478 16.271-4.9167c.427-.0885.833-.375 1.099-.7864.26-.4167.349-.9115.24-1.3907-.099-.4687-.391-.875-.802-1.1406-.412-.2552-.917-.3542-1.391-.2344l-17.339 5.1823c-.604.1302-1.125.6146-1.317 1.2657l-11.24 39.6456H59.8802l-8.5469-35.2498c-.2344-.9844-1.1979-1.599-2.2083-1.349-.9792.2448-1.5833 1.2344-1.349 2.2084l8.8854 36.6454c.2188.829.948 1.401 1.7917 1.401Z"/>
  <path fill="#2A294B" d="M49.7448 82.4011h62.4532c.406 0 .734-.323.734-.7344 0-.4011-.328-.7344-.734-.7344H49.7448a.7302.7302 0 0 0-.7344.7344c0 .4114.3281.7344.7344.7344Z"/>
  <path fill="#2A294B" d="M49.7448 83.4948h62.4532c1.005 0 1.828-.8229 1.828-1.8281s-.823-1.8281-1.828-1.8281H49.7448c-1.0104 0-1.8334.8229-1.8334 1.8281 0 1.0104.823 1.8281 1.8334 1.8281Zm2.0208 7.9792h58.4114c.401 0 .734-.3282.734-.7344 0-.4063-.333-.7344-.734-.7344H51.7656c-.401 0-.7344.3229-.7344.7344 0 .4062.3334.7344.7344.7344Z"/>
  <path fill="#2A294B" d="M51.7656 92.5677h58.4114c1.011 0 1.828-.8177 1.828-1.8229 0-1.0052-.823-1.8281-1.828-1.8281H51.7656c-1.0052 0-1.8281.8229-1.8281 1.8281s.8229 1.8229 1.8281 1.8229Zm2.6042 7.5153h52.4792a.733.733 0 0 0 .734-.734.7334.7334 0 0 0-.734-.7344H54.3698a.7302.7302 0 0 0-.7344.7344c0 .4062.3281.734.7344.734Z"/>
  <path fill="#2A294B" d="M54.3698 101.182h52.4792c1.01 0 1.838-.823 1.838-1.8278 0-1.0052-.828-1.823-1.838-1.823H54.3698c-1.0104 0-1.8334.8178-1.8334 1.823 0 1.0048.823 1.8278 1.8334 1.8278Zm2.0625 8.24h48.2707c.401 0 .734-.328.734-.734 0-.402-.333-.735-.734-.735H56.4323c-.4011 0-.7344.328-.7344.735 0 .411.3333.734.7344.734Z"/>
  <path fill="#2A294B" d="M56.4323 110.526h48.2707c1.011 0 1.833-.823 1.833-1.828 0-1.005-.822-1.833-1.833-1.833H56.4323c-1.0052 0-1.8281.828-1.8281 1.833s.8229 1.828 1.8281 1.828Z"/>
  <path fill="#2A294B" d="M93.3802 119.036c.3438 0 .651-.239.724-.588l7.3698-36.6303a.7299.7299 0 0 0-.578-.8594.7404.7404 0 0 0-.87.5677l-7.3698 36.63c-.0781.401.1823.787.5782.865.0468.01.1041.015.1458.015Z"/>
  <path fill="#2A294B" d="M93.3802 120.135c.8698 0 1.6302-.625 1.7917-1.484l7.3701-36.6145c.099-.4896-.006-.9792-.276-1.3803-.276-.4062-.693-.6875-1.167-.776-.49-.1042-.964.0052-1.3646.2708-.4115.2709-.6875.6771-.7813 1.1615l-7.3698 36.6305c-.0989.479 0 .974.2709 1.38.276.406.6875.682 1.1666.776l.3594.036Zm-13.0417-1.099c.4011 0 .7344-.322.7344-.729l.2708-36.6299c0-.4011-.3281-.7344-.7291-.7396h-.0052c-.4063 0-.7344.3281-.7344.7292l-.2708 36.6303c0 .401.3229.734.7343.739Z"/>
  <path fill="#2A294B" d="M80.3281 120.135h.0104c1.0052 0 1.823-.817 1.8334-1.812l.2708-36.6355c.0052-1.0052-.8021-1.8385-1.8125-1.8489-1.0156 0-1.8385.8125-1.8437 1.8125l-.2709 36.6349c-.0104 1.006.7969 1.834 1.8073 1.849h.0052Z"/>
  <path fill="#FCFAFF" d="M66.7135 119.036c.0365 0 .0729-.005.1094-.005.4063-.062.6823-.432.6198-.828l-5.4896-36.6301c-.0625-.401-.4375-.6719-.8385-.6146-.4011.0573-.6823.4323-.6198.8281l5.4948 36.6306c.0521.354.3646.619.7239.619Z"/>
  <path fill="#2A294B" d="m66.7135 120.135.2188-.015c.5364-.084.9635-.339 1.25-.729.2917-.396.4114-.87.3385-1.36L63.026 81.3958c-.151-.9947-1.0468-1.6718-2.0573-1.5416-.5104.0781-.9375.3333-1.2239.7291-.2917.3907-.4115.875-.3386 1.3594l5.4948 36.6303c.1407.906.9011 1.562 1.8125 1.562Z"/>
  <path fill="#E7E2FD" d="M192.49 171.276h133.838v131.073H192.49V171.276Z"/>
  <path fill="#9898D8" d="m231.865 240.052-11.261 21.583 2.662 1.313-1.396 3.109s7.666 3.021 12.536 3.021v2.5s2.323 3.307 13.646 1.396c6.271-.177 7.839-.526 7.839-.526v-1.568s3.833 2.959 11.672.87l-3.136-60.99"/>
  <path fill="#9898D8" d="m286.964 240.052 11.26 21.583-2.661 1.313 1.395 3.109s-7.666 3.021-12.536 3.021v2.5s-2.323 3.307-13.646 1.396c-6.271-.177-7.838-.526-7.838-.526v-1.568s-3.834 2.959-11.672.87l3.135-60.99"/>
  <path fill="#585CAF" d="M239.755 210.75v7.203l-13.932 28.505s11.088 10.412 37.62 7.282l-1.625-42.985"/>
  <path fill="#585CAF" d="M279.073 210.75v7.203l13.932 28.505s-14.463 11.146-37.62 7.282l1.625-42.985"/>
  <path fill="#181D23" d="M195.914 324.804c-.516-.015-1.042-.073-1.584-.166-.541-.11-.948-.219-1.208-.334v-2.271h.458l.25 1.355c.151.197.427.385.834.562.401.167.817.26 1.25.271v-4c-.573-.193-.969-.344-1.188-.458-.224-.11-.427-.23-.604-.355a2.3137 2.3137 0 0 1-.479-.479 2.362 2.362 0 0 1-.292-.646c-.073-.234-.104-.5-.104-.791 0-.677.24-1.235.729-1.667.484-.427 1.13-.672 1.938-.729v-.917h.583v.896c.719.031 1.443.125 2.167.292v1.979h-.459l-.208-1.167c-.141-.125-.354-.234-.646-.333a4.063 4.063 0 0 0-.854-.188v3.375l.667.25c.776.282 1.323.636 1.645 1.063.334.417.5.948.5 1.583 0 .823-.26 1.49-.77 2-.5.5-1.183.776-2.042.834v1h-.583v-.959Zm2.187-2.479c0-.443-.12-.802-.354-1.083-.224-.292-.641-.552-1.25-.792v3.75c.51-.083.906-.276 1.187-.583.276-.318.417-.75.417-1.292Zm-3.667-5.208c0 .281.047.515.146.708.094.198.229.37.396.521.177.14.49.302.938.479V315.7c-.474.057-.844.208-1.105.458-.25.25-.375.573-.375.959Zm12.036 2.77c0 3.282-1.041 4.917-3.125 4.917-1 0-1.76-.417-2.27-1.25-.5-.844-.75-2.068-.75-3.667 0-1.567.25-2.77.75-3.604.51-.833 1.291-1.25 2.333-1.25 1 0 1.755.412 2.271 1.229.526.823.791 2.032.791 3.625Zm-1.312 0c0-1.526-.146-2.625-.438-3.291-.281-.667-.739-1-1.375-1-.614 0-1.057.323-1.333.958-.265.625-.396 1.74-.396 3.333 0 1.599.136 2.724.417 3.375.276.657.714.98 1.312.98.625 0 1.084-.339 1.375-1.021.292-.693.438-1.802.438-3.334Zm4.536 4.125c0 .224-.083.428-.25.605-.156.166-.354.25-.604.25s-.459-.084-.625-.25c-.156-.177-.229-.381-.229-.605 0-.25.083-.447.25-.604.166-.166.364-.25.604-.25.234 0 .437.084.604.25.167.157.25.354.25.604Zm7.674-4.125c0 3.282-1.041 4.917-3.125 4.917-1 0-1.76-.417-2.271-1.25-.5-.844-.75-2.068-.75-3.667 0-1.567.25-2.77.75-3.604.511-.833 1.292-1.25 2.334-1.25 1 0 1.755.412 2.271 1.229.526.823.791 2.032.791 3.625Zm-1.312 0c0-1.526-.146-2.625-.438-3.291-.281-.667-.739-1-1.375-1-.614 0-1.057.323-1.333.958-.266.625-.396 1.74-.396 3.333 0 1.599.135 2.724.417 3.375.276.657.713.98 1.312.98.625 0 1.084-.339 1.375-1.021.292-.693.438-1.802.438-3.334Zm8.577 0c0 3.282-1.041 4.917-3.125 4.917-1 0-1.76-.417-2.27-1.25-.5-.844-.75-2.068-.75-3.667 0-1.567.25-2.77.75-3.604.51-.833 1.291-1.25 2.333-1.25 1 0 1.755.412 2.271 1.229.526.823.791 2.032.791 3.625Zm-1.312 0c0-1.526-.146-2.625-.438-3.291-.281-.667-.739-1-1.375-1-.614 0-1.057.323-1.333.958-.266.625-.396 1.74-.396 3.333 0 1.599.136 2.724.417 3.375.276.657.713.98 1.312.98.625 0 1.084-.339 1.375-1.021.292-.693.438-1.802.438-3.334Z"/>
  <path fill="#E7E2FD" d="M258.37 309.328h15.005v15.011H258.37v-15.011Zm26.479 0h15.005v15.011h-15.005v-15.011Zm26.484 0h15.006v15.011h-15.006v-15.011Z"/>
  <path fill="#181D23" d="M189.188 130.776h22.354v2.771h-22.354v-2.771Zm0 6.016h22.354v2.765h-22.354v-2.765Zm0 6.01h22.354v2.771h-22.354v-2.771Z"/>
  <path fill="#EF6F9D" d="M209.089 391.672h-44.037v-19.5c0-12.146 9.88-22.031 22.021-22.031s22.016 9.885 22.016 22.031v19.5Zm-39.23-4.818h34.417v-14.687c0-9.495-7.719-17.219-17.203-17.219-9.49 0-17.214 7.724-17.214 17.219v14.687Z"/>
  <path fill="#EF6F9D" d="M239.099 457.74H135.042l14.869-74.365h74.323l14.865 74.365Z"/>
  <path fill="#EF6F9D" d="M239.099 457.74h-36.542v-74.365h21.677l14.865 74.365Z"/>
  <path fill="#fff" d="M164.417 271.734H.4687c-.2291 0-.4062-.182-.4062-.411v-33.542c0-.229.177-.406.4062-.406H164.406c.229 0 .412.177.412.406v33.542c0 .224-.183.411-.401.411Z"/>
  <path fill="#FFC043" d="m27.3646 246.188 2.0729 6.385h6.7135l-5.4323 3.953 2.0782 6.391-5.4323-3.953-5.4323 3.953 2.0729-6.391-5.4323-3.953h6.7135l2.0782-6.385Zm26.7448 0 2.0781 6.385h6.7135l-5.4323 3.953 2.0782 6.391-5.4375-3.953-5.4323 3.953 2.0781-6.391-5.4323-3.953h6.7135l2.073-6.385Zm26.75 0 2.0781 6.385h6.7135l-5.4323 3.953 2.073 6.391-5.4323-3.953-5.4323 3.953 2.0781-6.391-5.4375-3.953h6.7188l2.0729-6.385Zm26.7446 0 2.073 6.385h6.714l-5.433 3.953 2.078 6.391-5.432-3.953-5.432 3.953 2.073-6.391-5.4325-3.953h6.7135l2.078-6.385Zm26.745 0 2.078 6.385h6.714l-5.433 3.953 2.073 6.391-5.432-3.953-5.432 3.953 2.078-6.391-5.433-3.953h6.714l2.073-6.385Z"/>
  <path fill="#fff" d="M321.276 86.2292h-81.88c-.162 0-.297-.1302-.297-.2917V20.8281c0-.1666.135-.2969.297-.2969h81.88c.161 0 .297.1303.297.2969v65.1094c-.005.1615-.136.2917-.297.2917Z"/>
  <path fill="#fff" d="M300.818 77.5417c1.234.0677 16.567 20.3594 16.567 20.3594V77.5417"/>
  <path fill="#585CAF" d="M246.719 32.7083h67.234v1.8594h-67.234v-1.8594Zm0 11.625h67.234v1.8594h-67.234v-1.8594Zm0 11.6198h67.234v1.8594h-67.234v-1.8594Zm0 11.6146h67.234v1.8594h-67.234v-1.8594Z"/>
  <path fill="#F9C1A2" d="M358.938 172.078s-7.756-9.312-9.75-11.974c-2-2.661 1.328-16.854 3.104-16.635 1.776.224 3.609 13.687 3.609 13.687s9.469 4.724 7.917 12.927"/>
  <path fill="#28343D" d="M358.521 162.089h-5.063c-.036 0-.062-.026-.062-.058v-39.677c0-.036.031-.062.062-.062h5.063c.036 0 .062.031.062.062v39.677c0 .037-.026.058-.062.058Z"/>
  <path fill="#F9C1A2" d="M440.708 421.813v20.046h12.073V415.38"/>
  <path fill="#28343D" d="M452.781 441.859s4.802 12.709 2.943 14.099c-1.859 1.391-22.297 3.058-23.693.271-1.396-2.786 8.667-14.37 8.667-14.37"/>
  <path fill="#F9C1A2" d="m414.052 410.026 6.094 20.927s8.594 1.823 10.073-3.068l-5.781-27.276"/>
  <path fill="#28343D" d="M420.156 430.953s-18.729 15.057-13.625 18.412c5.11 3.349 27.896-12.276 28.016-14.75.12-2.474-4.245-8.276-4.245-8.276M421.63 107.26c.25-3.026 4.016-4.328 7.047-4.276 6.115.089 12.151 2.761 16.328 7.224 4.183 4.459 6.459 10.651 6.156 16.761-.171 3.5-1.125 7.13.079 10.416.781 2.131 2.395 3.865 3.244 5.974 1.667 4.136-.046 9.105-3.349 12.105-3.296 2.994-7.864 4.25-12.312 4.442-8.609.365-17.422-3.161-23.005-9.729-1.886-2.213-3.438-4.833-3.818-7.724-.141-1.088-.115-2.198-.276-3.281-.203-1.401-.719-2.74-1.141-4.089-2.276-7.255-1.963-15.302.865-22.359.859-2.151 2.042-4.313 4.031-5.484 1.99-1.177 6.307-1.886 7.188-.646"/>
  <path fill="#F9C1A2" d="M438.052 137.411s1.391 11.037 4.214 14.537l-19.719 20.125-.74-19.99s-.062-3.13-1.328-9.067"/>
  <path fill="#F4B08E" d="m437.552 141.057-17.391.537c1.214 7.031 8.12 16.432 17.391-.537Z"/>
  <path fill="#F9C1A2" d="M423.203 112.448s-8.318 3.635-8.932 6.74c-1.656 8.453-1.912 23.822 10.708 28.692 8.62 2.25 13.12-6.948 15.386-11.969 0 0 3.432 1.407 4.875-6.557 1.078-5.953-4.704-5.818-5.709 1.063l-.677-1.052s-.318-4.875-1.073-5.86c0 0-1.89-2.896-8.484-6.531-4.537-2.505-6.094-4.526-6.094-4.526Z"/>
  <path fill="#585CAF" d="M457.417 222.854s8.698 19.906 7.666 43.677c-1.026 23.771-6.083 74.86-6.083 74.86l-4.208 89.161H439.01s-5.38-80.667-7.369-106.219c-1.985-25.552-4.302-86.119-4.302-86.119"/>
  <path fill="#585CAF" d="m448.411 231.063-31.307 97.567 12.459 87.177-13.631 6.006s-26.448-77.964-23.994-102.323c3.27-32.532 20.994-101.693 20.994-101.693"/>
  <path fill="#FFC043" d="M413.615 155.052c-5.433 4.151-20.448 37.542-20.448 37.542s-18.448-21.016-24.453-30.172l-12.443 9.656s26.599 43.349 40.323 43.349c10.297 0 25.953-32.406 25.953-32.406"/>
  <path fill="#FFC043" d="M421.807 152.083s-5.541.881-8.953 3.36c-3.401 2.484-7.739 19.526-7.739 31.297 0 11.776 6.198 14.875 6.198 14.875.302 12.088-10.422 48.656-10.422 48.656 39.484 18.125 69.875 2.989 69.875 2.989-9.021-38.661-5.792-92.39-12.292-97.505-6.505-5.109-16.615-4.12-16.615-4.12l-19.312 19.23-.74-18.782Z"/>
  <path fill="#F9C1A2" d="M412.693 199.781s-20.672-15.239-22.209-14.541c-1.541.703 7.589 10.041 7.589 10.041s-1.214 2.703-1.912 7.818c-.697 5.109 14.537 7.323 14.537 7.323"/>
  <path fill="#FFC043" d="M459.453 157.016c6.969 10.229 17.432 65.448 8.375 69.708-7.078 3.328-59.693-14.255-59.693-14.255l2.558-15.104 40.286 9.994s-9.859-26.458-7.307-40.906"/>
  <path fill="#EF6F9D" d="M390.776 129.729c0 .552-.057 1.099-.172 1.646a8.0117 8.0117 0 0 1-.505 1.578c-.224.516-.495 1-.823 1.458-.323.464-.693.891-1.104 1.282-.417.39-.865.739-1.349 1.047-.484.307-1 .567-1.542.781-.536.213-1.094.37-1.666.479-.573.109-1.151.161-1.735.161-.583 0-1.166-.052-1.739-.161-.573-.109-1.125-.266-1.667-.479a9.1324 9.1324 0 0 1-1.537-.781 8.6448 8.6448 0 0 1-1.348-1.047c-.417-.391-.782-.818-1.11-1.282-.323-.458-.599-.942-.823-1.458-.224-.51-.39-1.036-.505-1.578a7.9674 7.9674 0 0 1 0-3.292c.115-.541.281-1.073.505-1.583.224-.51.5-.995.823-1.458.328-.459.693-.886 1.11-1.276.411-.391.859-.74 1.348-1.052.485-.308.995-.563 1.537-.776.542-.214 1.094-.375 1.667-.48.573-.109 1.156-.161 1.739-.161.584 0 1.162.052 1.735.161.572.105 1.13.266 1.666.48.542.213 1.058.468 1.542.776.484.312.932.661 1.349 1.052.411.39.781.817 1.104 1.276.328.463.599.948.823 1.458.224.51.391 1.042.505 1.583.115.542.172 1.094.172 1.646Z"/>
  <path fill="#fff" d="M386.094 130.464h-3.229v3.026h-1.954v-3.026h-3.234v-1.73h3.234v-3.026h1.954v3.026h3.229v1.73Z"/>
  <path fill="#9090DD" d="M373.375 97.2448c0 1.0469-.104 2.0833-.323 3.1142-.213 1.026-.531 2.021-.953 2.99-.427.969-.943 1.885-1.557 2.755-.615.87-1.313 1.677-2.089 2.417-.781.739-1.635 1.401-2.552 1.984-.917.584-1.885 1.073-2.906 1.474-1.021.401-2.073.703-3.156.906-1.084.204-2.178.308-3.282.308s-2.198-.104-3.281-.308a17.3646 17.3646 0 0 1-3.156-.906c-1.021-.401-1.99-.89-2.912-1.474a16.953 16.953 0 0 1-2.547-1.984c-.781-.74-1.479-1.547-2.093-2.417-.61-.87-1.131-1.786-1.552-2.755-.422-.969-.745-1.964-.959-2.99-.213-1.0309-.323-2.0673-.323-3.1142s.11-2.0833.323-3.1094c.214-1.026.537-2.026.959-2.9896.421-.9687.942-1.8906 1.552-2.7604a16.1446 16.1446 0 0 1 2.093-2.4166 16.5743 16.5743 0 0 1 2.547-1.9792 17.17 17.17 0 0 1 2.912-1.474c1.021-.401 2.073-.7031 3.156-.9114 1.083-.2031 2.177-.3021 3.281-.3021s2.198.099 3.282.3021c1.083.2083 2.135.5104 3.156.9114 1.021.4011 1.989.8907 2.906 1.474a16.5192 16.5192 0 0 1 2.552 1.9792 16.4692 16.4692 0 0 1 2.089 2.4166c.614.8698 1.13 1.7917 1.557 2.7604.422.9636.74 1.9636.953 2.9896.219 1.0261.323 2.0625.323 3.1094Z"/>
  <path fill="#fff" d="M352.312 103.878h-1.104l9.417-12.9997h1.104l-9.417 12.9997Zm2.792-9.5414c0 2.3333-1.099 3.5-3.292 3.5-1.057 0-1.854-.2969-2.396-.8958-.531-.5938-.791-1.4636-.791-2.6042 0-2.3021 1.083-3.4583 3.25-3.4583 1.052 0 1.854.2916 2.395.875.553.5729.834 1.4323.834 2.5833Zm-1.563 0c0-.9583-.14-1.6563-.416-2.1042-.266-.4427-.703-.6666-1.313-.6666-.573 0-.989.2083-1.25.625-.265.4166-.396 1.1354-.396 2.1458 0 1.0312.131 1.7604.396 2.1875.261.4167.677.625 1.25.625.594 0 1.031-.2188 1.313-.6667.276-.4583.416-1.1718.416-2.1458Zm10.646 6.1044c0 2.333-1.094 3.5-3.271 3.5-1.073 0-1.875-.297-2.416-.896-.532-.594-.792-1.464-.792-2.604 0-1.1252.271-1.9794.812-2.5627.542-.5938 1.36-.8959 2.459-.8959 1.052 0 1.854.2917 2.396.875.541.5729.812 1.4323.812 2.5836Zm-1.542 0c0-.9586-.14-1.6565-.416-2.1044-.281-.4427-.719-.6667-1.313-.6667-.583 0-1.01.2084-1.271.625-.25.4167-.375 1.1354-.375 2.1461 0 1.031.131 1.76.396 2.187.261.417.677.625 1.25.625.594 0 1.032-.218 1.313-.666.276-.459.416-1.172.416-2.146Z"/>
  <path fill="#EF6F9D" d="M84.276 198.698c0 .755-.0364 1.51-.1146 2.266-.0781.755-.1979 1.505-.3489 2.244-.1563.745-.349 1.48-.5833 2.203-.2292.73-.5 1.438-.8021 2.141a22.0336 22.0336 0 0 1-1.0209 2.052c-.375.667-.7812 1.318-1.2239 1.948-.4427.63-.9167 1.24-1.4219 1.823-.5052.589-1.0417 1.146-1.6042 1.682a23.3032 23.3032 0 0 1-1.7656 1.526 24.688 24.688 0 0 1-1.9167 1.355c-.6614.421-1.3437.807-2.0468 1.166-.6979.354-1.4167.682-2.1563.969-.7344.292-1.4844.547-2.2448.766-.7604.218-1.5312.406-2.3125.552-.7812.145-1.5677.26-2.3593.333-.7917.073-1.5886.109-2.3803.109-.7968 0-1.5937-.036-2.3854-.109-.7916-.073-1.5781-.188-2.3593-.333-.7813-.146-1.5521-.334-2.3125-.552a24.1964 24.1964 0 0 1-2.2448-.766c-.7396-.287-1.4584-.615-2.1563-.969-.7031-.359-1.3854-.745-2.0469-1.166a24.7053 24.7053 0 0 1-1.9166-1.355 23.3047 23.3047 0 0 1-1.7657-1.526c-.5625-.536-1.0989-1.093-1.6041-1.682a22.8022 22.8022 0 0 1-1.4219-1.823c-.4427-.63-.849-1.281-1.224-1.948-.375-.666-.7135-1.354-1.0208-2.052-.3021-.703-.5729-1.411-.8021-2.141-.2343-.723-.4271-1.458-.5833-2.203-.151-.739-.2708-1.489-.349-2.244a22.028 22.028 0 0 1-.1145-2.266c0-.76.0364-1.516.1145-2.271.0782-.755.198-1.5.349-2.245.1562-.744.349-1.479.5833-2.203.2292-.724.5-1.437.8021-2.14.3073-.698.6458-1.381 1.0208-2.053.375-.666.7813-1.317 1.224-1.947.4427-.631.9167-1.235 1.4219-1.823a24.3948 24.3948 0 0 1 1.6041-1.683c.5625-.536 1.1511-1.041 1.7657-1.526a23.5992 23.5992 0 0 1 1.9166-1.349 24.9143 24.9143 0 0 1 2.0469-1.172 24.9923 24.9923 0 0 1 2.1563-.968 24.1964 24.1964 0 0 1 2.2448-.766c.7604-.219 1.5312-.401 2.3125-.552.7812-.146 1.5677-.26 2.3593-.333.7917-.073 1.5886-.11 2.3854-.11.7917 0 1.5886.037 2.3803.11.7916.073 1.5781.187 2.3593.333.7813.151 1.5521.333 2.3125.552.7604.219 1.5104.474 2.2448.766.7396.291 1.4584.614 2.1563.968.7031.36 1.3854.75 2.0468 1.172.6615.417 1.3021.87 1.9167 1.349.6146.485 1.2031.99 1.7656 1.526.5625.537 1.099 1.099 1.6042 1.683.5052.588.9792 1.192 1.4219 1.823.4427.63.8489 1.281 1.2239 1.947.375.672.7188 1.355 1.0209 2.053.3021.703.5729 1.416.8021 2.14.2343.724.427 1.459.5833 2.203.151.745.2708 1.49.3489 2.245.0782.755.1146 1.511.1146 2.271Z"/>
  <path fill="#FCFAFF" d="M68.9427 187.974c-6.6979-.776-9.1302 5.333-9.1302 5.333s-2.4219-6.104-9.125-5.333c-6.6927.776-9 14.104 9.125 21.516 19.0781-7.547 15.8229-20.74 9.1302-21.516Z"/>
  <path fill="#EF6F9D" d="M214.745 69.4271c0 1.1302-.115 2.25-.344 3.3542-.234 1.1093-.573 2.1823-1.031 3.2239a16.8363 16.8363 0 0 1-1.667 2.974c-.656.9375-1.406 1.8021-2.245 2.6042a17.8503 17.8503 0 0 1-2.734 2.1354c-.99.625-2.026 1.1562-3.125 1.5885-1.094.4323-2.224.7552-3.385.9792a19.0217 19.0217 0 0 1-3.521.3281c-1.188 0-2.36-.1094-3.526-.3281-1.162-.224-2.292-.5469-3.386-.9792a18.5526 18.5526 0 0 1-3.12-1.5885 17.899 17.899 0 0 1-2.734-2.1354c-.838-.8021-1.588-1.6667-2.25-2.6042-.656-.9427-1.213-1.9323-1.667-2.974-.453-1.0416-.796-2.1146-1.026-3.2239-.234-1.1042-.349-2.224-.349-3.3542 0-1.125.115-2.2448.349-3.349.23-1.1093.573-2.1822 1.026-3.2239.454-1.0469 1.011-2.0365 1.667-2.974a17.5759 17.5759 0 0 1 2.25-2.6041 17.8934 17.8934 0 0 1 2.734-2.1355c.985-.6302 2.027-1.1562 3.12-1.5885a18.5309 18.5309 0 0 1 3.386-.9792 19.0592 19.0592 0 0 1 3.526-.3281c1.182 0 2.359.1094 3.521.3281 1.161.2188 2.291.5469 3.385.9792 1.099.4323 2.135.9583 3.125 1.5885.984.625 1.896 1.3386 2.734 2.1355a17.1402 17.1402 0 0 1 2.245 2.6041c.662.9375 1.214 1.9271 1.667 2.974.458 1.0417.797 2.1146 1.031 3.2239.229 1.1042.344 2.224.344 3.349Z"/>
  <path fill="#fff" d="M195.412 77.2463c-.791-.0157-1.619-.099-2.479-.25-.864-.1511-1.5-.3177-1.916-.5v-3.3959h.75l.375 2.0209c.234.2916.672.5729 1.312.8333.651.25 1.302.3958 1.958.4375v-6.0208c-.89-.2917-1.515-.5104-1.875-.6667-.348-.1667-.666-.3542-.958-.5625a3.4521 3.4521 0 0 1-.729-.7292c-.198-.276-.349-.5885-.458-.9375-.115-.3593-.167-.7604-.167-1.2083 0-1.0104.38-1.8385 1.146-2.4792.76-.651 1.776-1.026 3.041-1.125v-1.375h.917v1.3542c1.151.0417 2.297.1979 3.438.4583v2.9584h-.73l-.312-1.75c-.224-.1927-.563-.3594-1.021-.5a5.4066 5.4066 0 0 0-1.375-.2709v5.0625l1.063.3542c1.234.4323 2.109.9687 2.625 1.6042.51.625.77 1.4166.77 2.375 0 1.2395-.406 2.2395-1.208 3-.792.7656-1.875 1.1875-3.25 1.2708v1.5h-.917v-1.4583Zm3.48-3.7084c0-.6666-.183-1.2135-.542-1.6458-.365-.4271-1.036-.8229-2.021-1.1875v5.625c.818-.1094 1.448-.401 1.896-.875.443-.4687.667-1.1094.667-1.9167Zm-5.792-7.8333c0 .4167.068.7708.208 1.0625.151.2917.365.5521.646.7708.276.224.761.4688 1.458.7292v-4.6875c-.739.0833-1.307.3125-1.708.6875-.406.375-.604.8542-.604 1.4375Z"/>
  <path stroke="#BABABA" stroke-linecap="round" stroke-miterlimit="10" stroke-opacity=".71" stroke-width=".0301" d="m427.339 263.657 2.885 22.062"/>
  <path stroke="#FFC043" stroke-linecap="round" stroke-miterlimit="10" stroke-width=".0301" d="m443.479 176.386 6.818 29.021-33.787-5.526m45.11 27.015c-16.448-1.448-48.932-12.948-48.932-12.948"/>
</svg>
