<svg width="512" height="485" viewBox="0 0 512 485" fill="none" xmlns="http://www.w3.org/2000/svg">
<path d="M305.156 24.099C304.901 24.099 304.651 24.0052 304.458 23.8177C304.062 23.4323 304.052 22.7969 304.437 22.401L325.839 0.348959C326.229 -0.0468745 326.859 -0.0572919 327.255 0.328125C327.651 0.713541 327.661 1.34375 327.276 1.73958L305.87 23.7969C305.677 23.9948 305.417 24.099 305.156 24.099Z" fill="#2E186B"/>
<path d="M282.25 27.5938C281.995 27.5938 281.745 27.5 281.552 27.3125C281.156 26.9271 281.146 26.2969 281.531 25.8958L302.937 3.84376C303.323 3.44792 303.953 3.4375 304.349 3.82292C304.745 4.20834 304.755 4.84375 304.37 5.23959L282.969 27.2917C282.771 27.4948 282.51 27.5938 282.25 27.5938Z" fill="#2E186B"/>
<mask id="mask0_1_496" style="mask-type:luminance" maskUnits="userSpaceOnUse" x="0" y="278" width="31" height="32">
<path d="M0.166656 278.667H30.6667V309.333H0.166656V278.667Z" fill="white"/>
</mask>
<g mask="url(#mask0_1_496)">
<path d="M1.34895 308.776C1.09895 308.776 0.843738 308.682 0.65103 308.49C0.255197 308.104 0.249989 307.469 0.635405 307.078L27.7344 279.401C28.1198 279.01 28.7552 279 29.151 279.385C29.5469 279.776 29.5521 280.406 29.1667 280.802L2.0677 308.479C1.86978 308.677 1.60936 308.776 1.34895 308.776Z" fill="#2E186B"/>
</g>
<path d="M3.65624 321.464C3.39583 321.464 3.14062 321.359 2.9427 321.161C2.55729 320.766 2.56249 320.13 2.95833 319.745L17.9479 305.047C18.3437 304.656 18.974 304.661 19.3646 305.057C19.75 305.453 19.7448 306.089 19.349 306.474L4.35937 321.177C4.16145 321.365 3.91145 321.464 3.65624 321.464Z" fill="#2E186B"/>
<path d="M471.526 155.661C471.271 155.661 471.016 155.563 470.818 155.365C470.427 154.974 470.427 154.344 470.818 153.953L490.422 134.349C490.813 133.958 491.443 133.958 491.839 134.349C492.229 134.74 492.229 135.375 491.839 135.766L472.234 155.365C472.037 155.563 471.781 155.661 471.526 155.661Z" fill="#2E186B"/>
<path d="M473.255 167.188C472.995 167.188 472.734 167.089 472.536 166.885C472.151 166.49 472.161 165.859 472.557 165.474L507.729 131.167C508.125 130.781 508.755 130.792 509.141 131.188C509.526 131.583 509.521 132.214 509.125 132.604L473.953 166.906C473.76 167.094 473.505 167.188 473.255 167.188Z" fill="#2E186B"/>
<path d="M482.547 200.198V428.552C482.547 435.484 476.922 441.109 469.99 441.109H449.469L436.964 177.651H459.995C472.458 177.651 482.547 187.74 482.547 200.198Z" fill="#2E186B"/>
<path d="M469.99 442.109H449.469C448.938 442.109 448.495 441.688 448.469 441.156L435.964 177.698C435.948 177.422 436.047 177.156 436.24 176.958C436.427 176.76 436.688 176.651 436.964 176.651H459.995C472.984 176.651 483.547 187.214 483.547 200.198V428.552C483.547 436.026 477.464 442.109 469.99 442.109ZM450.422 440.104H469.99C476.359 440.104 481.547 434.922 481.547 428.552V200.198C481.547 188.318 471.88 178.651 459.995 178.651H438.01L450.422 440.104Z" fill="#2E186B"/>
<path d="M310.906 483.115H34.3958C18.1979 483.115 5.05728 469.974 5.05728 453.792V447.896C5.05728 444.151 8.10936 441.115 11.8594 441.115H276.87L310.906 483.115Z" fill="white"/>
<path d="M310.906 483.115H34.3958C18.1979 483.115 5.05728 469.974 5.05728 453.792V447.896C5.05728 447.5 5.09374 447.104 5.17186 446.729C6.41145 461.766 19.026 473.599 34.3958 473.599H303.193L310.906 483.115Z" fill="#9654FF"/>
<path d="M465.339 200.198V441.109H100.198V200.198C100.198 187.74 110.286 177.651 122.75 177.651H442.786C455.25 177.651 465.339 187.74 465.339 200.198Z" fill="#9654FF"/>
<path d="M465.344 200.203V207.521C465.344 195.057 455.255 184.974 442.792 184.974H122.75C110.292 184.974 100.198 195.057 100.198 207.521V200.203C100.198 187.74 110.292 177.651 122.75 177.651H442.792C455.255 177.651 465.344 187.74 465.344 200.203Z" fill="white"/>
<path d="M100.198 407.88H465.339V441.104H100.198V407.88Z" fill="white"/>
<mask id="mask1_1_496" style="mask-type:luminance" maskUnits="userSpaceOnUse" x="4" y="440" width="308" height="45">
<path d="M3.99999 440H312V484.266H3.99999V440Z" fill="white"/>
</mask>
<g mask="url(#mask1_1_496)">
<path d="M310.906 484.115H34.3958C17.6667 484.115 4.05728 470.51 4.05728 453.792V447.896C4.05728 443.604 7.55728 440.115 11.8542 440.115H34.9114C35.4687 440.115 35.9167 440.562 35.9167 441.115C35.9167 441.667 35.4687 442.115 34.9114 442.115H11.8542C8.66145 442.115 6.06249 444.708 6.06249 447.896V453.792C6.06249 469.406 18.7708 482.109 34.3958 482.109H308.807L276.391 442.115H53.7344C53.1823 442.115 52.7292 441.667 52.7292 441.115C52.7292 440.562 53.1823 440.115 53.7344 440.115H276.87C277.172 440.115 277.453 440.25 277.646 440.484L311.682 482.484C311.927 482.781 311.974 483.193 311.812 483.542C311.646 483.891 311.292 484.115 310.906 484.115Z" fill="#2E186B"/>
</g>
<path d="M465.339 442.109H100.198C99.6458 442.109 99.1979 441.661 99.1979 441.109V200.198C99.1979 187.214 109.766 176.651 122.75 176.651L134.927 176.62C135.5 176.589 135.932 177.063 135.932 177.615C135.932 178.172 135.484 178.62 134.932 178.62L122.75 178.651C110.87 178.651 101.203 188.318 101.203 200.198V440.104H464.339V200.198C464.339 188.318 454.672 178.651 442.786 178.651H154.583C154.031 178.651 153.583 178.203 153.583 177.651C153.583 177.099 154.031 176.651 154.583 176.651H442.786C455.771 176.651 466.339 187.214 466.339 200.198V441.109C466.339 441.661 465.891 442.109 465.339 442.109Z" fill="#2E186B"/>
<path d="M465.339 442.109H100.198C99.6458 442.109 99.1979 441.661 99.1979 441.109V407.88C99.1979 407.328 99.6458 406.875 100.198 406.875H465.339C465.891 406.875 466.339 407.328 466.339 407.88V441.109C466.339 441.661 465.891 442.109 465.339 442.109ZM101.203 440.104H464.339V408.88H101.203V440.104Z" fill="#2E186B"/>
<mask id="mask2_1_496" style="mask-type:luminance" maskUnits="userSpaceOnUse" x="74" y="461" width="117" height="24">
<path d="M74.6667 461.333H190.667V484.266H74.6667V461.333Z" fill="white"/>
</mask>
<g mask="url(#mask2_1_496)">
<path d="M188.562 484.115H76.4375C75.8802 484.115 75.4323 483.667 75.4323 483.115V474.281C75.4323 467.828 80.6823 462.578 87.1302 462.578H145.385C145.937 462.578 146.385 463.026 146.385 463.578C146.385 464.13 145.937 464.578 145.385 464.578H87.1302C81.7812 464.578 77.4375 468.932 77.4375 474.281V482.109H187.557V474.281C187.557 468.932 183.214 464.578 177.87 464.578H161.766C161.214 464.578 160.766 464.13 160.766 463.578C160.766 463.026 161.214 462.578 161.766 462.578H177.87C184.318 462.578 189.562 467.828 189.562 474.281V483.115C189.562 483.667 189.115 484.115 188.562 484.115Z" fill="#2E186B"/>
</g>
<path d="M465.406 441.109V453.786C465.406 469.979 452.271 483.115 436.078 483.115H286.823C270.63 483.115 257.495 469.979 257.495 453.786V441.109H465.406Z" fill="#2E186B"/>
<mask id="mask3_1_496" style="mask-type:luminance" maskUnits="userSpaceOnUse" x="256" y="440" width="211" height="45">
<path d="M256 440H466.667V484.266H256V440Z" fill="white"/>
</mask>
<g mask="url(#mask3_1_496)">
<path d="M436.078 484.115H286.823C270.099 484.115 256.495 470.51 256.495 453.786V441.109C256.495 440.552 256.943 440.104 257.495 440.104H465.406C465.958 440.104 466.406 440.552 466.406 441.109V453.786C466.406 470.51 452.802 484.115 436.078 484.115ZM258.495 442.109V453.786C258.495 469.406 271.203 482.109 286.823 482.109H436.078C451.698 482.109 464.406 469.406 464.406 453.786V442.109H258.495Z" fill="#2E186B"/>
</g>
<path d="M187.193 282.635C191.62 280.016 193.865 275.63 193.865 269.594C193.865 264.724 192.089 260.948 188.589 258.37C186.594 256.922 183.75 255.766 180.135 254.938L172.797 253.266C167.943 252.146 164.802 251.208 163.469 250.49C161.557 249.427 160.625 247.786 160.625 245.479C160.625 243.333 161.453 241.495 163.151 239.859C164.839 238.24 167.703 237.422 171.677 237.422C176.599 237.422 180.12 238.708 182.125 241.245C183.203 242.635 183.922 244.688 184.26 247.349L184.339 247.964H192.333V247.26C192.333 241.224 190.297 236.755 186.276 233.979C182.333 231.26 177.495 229.88 171.891 229.88C165.771 229.88 160.958 231.464 157.589 234.594C154.198 237.734 152.479 241.802 152.479 246.688C152.479 251.266 154.266 254.76 157.786 257.078C159.802 258.396 163.094 259.557 167.849 260.63L174.938 262.234C178.688 263.089 181.458 264.099 183.177 265.229C184.766 266.307 185.536 268.109 185.536 270.734C185.536 274.229 183.62 276.599 179.672 277.974C177.573 278.703 175.208 279.073 172.635 279.073C166.974 279.073 162.99 277.427 160.792 274.188C159.635 272.448 158.969 270.135 158.807 267.307L158.771 266.641H150.745L150.734 267.339C150.661 273.182 152.563 277.88 156.38 281.302C160.177 284.734 165.479 286.474 172.141 286.474C177.823 286.474 182.885 285.182 187.193 282.635Z" fill="white"/>
<path d="M245.052 277.078C249.099 271.797 251.146 265.099 251.146 257.161C251.146 249.823 249.349 243.698 245.807 238.964C241.245 232.865 234.151 229.776 224.719 229.776C215.682 229.776 208.75 233.135 204.12 239.766C200.536 244.896 198.719 251.146 198.719 258.339C198.719 266.302 200.844 272.995 205.057 278.25C209.781 283.708 216.349 286.474 224.578 286.474C233.391 286.474 240.281 283.313 245.052 277.078ZM225.432 278.719C219.12 278.719 214.51 276.807 211.734 273.036C208.906 269.203 207.474 264.411 207.474 258.802C207.474 251.776 209.135 246.406 212.417 242.839C215.682 239.292 219.964 237.495 225.146 237.495C230.484 237.495 234.745 239.302 237.807 242.875C240.901 246.479 242.469 251.323 242.469 257.271C242.469 262.927 241.094 267.995 238.385 272.339C235.708 276.63 231.474 278.719 225.432 278.719Z" fill="white"/>
<path d="M297.344 279.339C300.896 275.51 303.021 270.714 303.651 265.078L303.74 264.292H295.464L295.349 264.854C294.656 268.188 293.604 270.906 292.214 272.938C289.599 276.781 285.885 278.646 280.865 278.646C275.448 278.646 271.328 276.818 268.62 273.214C265.87 269.547 264.469 264.672 264.469 258.729C264.469 251.458 266.01 246.016 269.052 242.542C272.068 239.099 276.089 237.349 281.005 237.349C285.042 237.349 288.203 238.292 290.401 240.141C292.609 242.005 294.109 244.573 294.854 247.776L294.979 248.323H303.224L303.156 247.552C302.74 242.953 300.615 238.802 296.849 235.208C293.073 231.599 287.719 229.776 280.938 229.776C272.984 229.776 266.651 232.568 262.115 238.078C257.943 243.125 255.823 249.667 255.823 257.516C255.823 267.844 258.651 275.609 264.219 280.594C268.464 284.375 273.776 286.297 280.01 286.297C287.234 286.297 293.068 283.953 297.344 279.339Z" fill="white"/>
<path d="M312.469 231.198H321.042V284.943H312.469V231.198Z" fill="white"/>
<path d="M360.474 269.266L365.781 284.943H375.063L355.563 231.198H346.563L326.333 284.943H335.115L340.781 269.266H360.474ZM357.714 262.083H343.328L350.74 241.786L357.714 262.083Z" fill="white"/>
<path d="M388.302 277.292V231.198H379.797V284.943H414.807V277.292H388.302Z" fill="white"/>
<path d="M197.411 359.646L182.885 316.901H171.521V370.646H179.703V339.052C179.703 337.818 179.677 335.917 179.615 333.25C179.589 332.089 179.568 331.057 179.552 330.151L193.344 370.646H201.375L215.068 330.161C215.057 331.391 215.042 332.583 215.016 333.729C214.969 336.208 214.948 337.979 214.948 339.052V370.646H223.094V316.901H211.833L197.411 359.646Z" fill="white"/>
<path d="M241.474 346.672H270.365V339.198H241.474V324.729H272.719V316.901H233.151V370.646H273.25V362.995H241.474V346.672Z" fill="white"/>
<path d="M303.359 316.901H281.458V370.646H303.292C312.526 370.646 319.13 366.505 322.917 358.339C325.042 353.776 326.12 348.604 326.12 342.969C326.12 335.651 324.286 329.547 320.661 324.833C316.573 319.568 310.75 316.901 303.359 316.901ZM289.995 324.406H301.865C307.318 324.406 311.318 326.12 313.74 329.49C316.219 332.938 317.474 337.88 317.474 344.182C317.474 345.818 317.297 347.62 316.948 349.536C316.354 352.729 315.37 355.375 314.031 357.396C312.37 359.885 310.214 361.594 307.63 362.458C306.167 362.932 304.25 363.172 301.938 363.172H289.995V324.406Z" fill="white"/>
<path d="M335.427 316.901H344V370.646H335.427V316.901Z" fill="white"/>
<path d="M369.526 316.901L349.292 370.646H358.078L363.74 354.969H383.432L388.745 370.646H398.026L378.526 316.901H369.526ZM380.672 347.786H366.286L373.698 327.49L380.672 347.786Z" fill="white"/>
<path d="M32.3542 74.8125L44.1875 108.964C36.4375 113.422 27.9427 116.505 18.9479 118.526C15.4062 119.349 11.5469 117.677 9.87499 114.432C5.57812 106.76 2.96353 99.2031 1.81249 91.9531C1.19791 88.2031 3.48437 84.5417 6.97916 83.1927C15.5885 79.6615 24.0469 76.8698 32.3542 74.8125Z" fill="#9654FF"/>
<path d="M4.06249 96.7292C4.84895 101.667 6.29166 106.729 8.52603 111.906C5.03124 105.104 2.82811 98.4115 1.80207 91.9531C1.19791 88.1979 3.48436 84.5469 6.97395 83.1823C15.5885 79.6615 24.0417 76.8802 32.3646 74.8073L34.0729 79.7188C25.9323 81.7656 17.6614 84.5209 9.23436 87.9584C5.73957 89.3229 3.45832 92.974 4.06249 96.7292Z" fill="white"/>
<path d="M79.8594 163.943C74.7292 164.865 69.6094 162.635 66.7083 158.438L32.2083 106.578L60.1927 101.547L88.4167 143.953C93.5417 151.755 89 162.297 79.8594 163.943Z" fill="#9654FF"/>
<path d="M84.1146 162.365C82.8542 163.125 81.4375 163.651 79.8594 163.938C74.7396 164.859 69.5937 162.625 66.7083 158.427L32.2083 106.573L38.6927 105.391L72.8229 156.693C75.3698 160.37 79.651 162.547 84.1146 162.365Z" fill="white"/>
<mask id="mask4_1_496" style="mask-type:luminance" maskUnits="userSpaceOnUse" x="0" y="73" width="46" height="47">
<path d="M0.166656 73.3333H45.3333V120H0.166656V73.3333Z" fill="white"/>
</mask>
<g mask="url(#mask4_1_496)">
<path d="M17.1146 119.74C13.7552 119.74 10.5312 117.891 8.98436 114.891C4.78124 107.38 2.02603 99.7032 0.822907 92.1094C0.145823 87.9636 2.57812 83.8177 6.61457 82.2604C15.1979 78.7396 23.7864 75.9063 32.1146 73.8438C32.6146 73.7188 33.1302 74 33.3021 74.4844L45.1302 108.635C45.2917 109.089 45.1042 109.589 44.6875 109.828C37.2344 114.115 28.651 117.37 19.1667 119.505C18.4844 119.661 17.7969 119.74 17.1146 119.74ZM31.7083 76.0104C23.75 78.0261 15.5625 80.7552 7.35416 84.1198C4.18228 85.3438 2.27082 88.5677 2.80207 91.7917C3.96874 99.1563 6.64062 106.609 10.75 113.943C12.2135 116.781 15.5573 118.286 18.7187 117.552C27.7083 115.531 35.8594 112.49 42.9687 108.505L31.7083 76.0104Z" fill="#2E186B"/>
</g>
<path d="M77.5625 165.151C72.9687 165.151 68.5625 162.885 65.8854 159.005L31.375 107.135C31.1875 106.854 31.151 106.495 31.2864 106.188C31.4167 105.875 31.6979 105.651 32.0312 105.594L60.0156 100.563C60.4114 100.495 60.8073 100.661 61.026 100.99L89.25 143.396C91.8437 147.349 92.276 152.307 90.401 156.661C88.5365 161.005 84.6614 164.099 80.0364 164.927C79.2083 165.078 78.3802 165.151 77.5625 165.151ZM33.8854 107.292L67.5417 157.88C70.2448 161.797 75.0104 163.797 79.6823 162.958C83.6406 162.245 86.9635 159.594 88.5625 155.87C90.1719 152.135 89.8021 147.885 87.5833 144.5L59.7239 102.646L33.8854 107.292Z" fill="#2E186B"/>
<path d="M122.078 3.97397L27.4583 72.9219C25.375 74.4375 24.0885 76.7396 23.8542 79.3073C23.2656 85.8333 23.8646 98.7865 34.9896 110.495C36.6562 112.25 39.1094 113.125 41.526 113.063L158.75 109.807L122.078 3.97397Z" fill="#FF7AF1"/>
<path d="M158.76 109.802L157.786 109.828L124.047 12.5052L29.4219 81.4479C27.349 82.974 26.0625 85.2813 25.8281 87.8281C25.6406 89.9531 25.5625 92.7396 25.9583 95.9427C23.5677 89.1927 23.5156 83.1563 23.8594 79.2969C24.0937 76.75 25.3802 74.4375 27.4531 72.9167L122.078 3.97397L158.76 109.802Z" fill="white"/>
<path d="M41.2552 114.063C38.5469 114.063 36.0104 113.026 34.2656 111.188C22.9115 99.2344 22.2448 86.026 22.8594 79.2187C23.1146 76.3698 24.5781 73.7812 26.8698 72.1094L59.6979 48.1875C60.1458 47.8646 60.7708 47.9635 61.0937 48.4115C61.4219 48.8542 61.3229 49.4792 60.875 49.8073L28.0469 73.7292C26.1927 75.0781 25.0625 77.0885 24.8542 79.3958C24.2708 85.8698 24.9062 98.4271 35.7187 109.807C37.1146 111.281 39.2708 112.12 41.4948 112.057L157.354 108.844L121.578 5.57812L69.8073 43.2969C69.3594 43.625 68.7344 43.526 68.4115 43.0781C68.0833 42.6302 68.1823 42.0052 68.6302 41.6823L121.49 3.16666C121.745 2.97916 122.078 2.92187 122.38 3.02083C122.682 3.11458 122.922 3.34374 123.026 3.64583L159.693 109.479C159.797 109.781 159.755 110.115 159.573 110.375C159.391 110.635 159.094 110.797 158.776 110.807L41.5521 114.063C41.4531 114.063 41.3542 114.063 41.2552 114.063Z" fill="#2E186B"/>
<path d="M166.464 47.8594C176.609 77.1354 173.214 104.807 158.698 109.839C148.818 113.26 136.437 105.125 126.219 90.2188C121.521 83.375 117.427 75.0938 114.255 65.9479C111.089 56.7969 109.182 47.7604 108.641 39.4792C107.448 21.4531 112.141 7.39584 122.021 3.97396C136.531 -1.05729 156.323 18.5885 166.464 47.8594Z" fill="#2E186B"/>
<path d="M138.286 57.6198C143.188 71.7708 138.339 86.1562 127.599 89.875C127.115 90.0417 126.625 90.2135 126.219 90.2187C121.521 83.375 117.427 75.0937 114.255 65.9479C111.089 56.7969 109.182 47.7604 108.641 39.4792C108.958 39.2344 109.448 39.0625 109.938 38.8958C120.672 35.1771 133.385 43.474 138.286 57.6198Z" fill="white"/>
<path d="M153.943 111.625C144.911 111.625 134.594 104.203 125.396 90.7865C120.651 83.8698 116.474 75.3958 113.312 66.276C110.151 57.1563 108.193 47.9115 107.641 39.5417C106.359 20.1719 111.609 6.52083 121.693 3.02604C136.859 -2.23438 156.943 17.3229 167.411 47.5313C177.875 77.7448 174.193 105.526 159.026 110.781C157.391 111.349 155.693 111.625 153.943 111.625ZM126.766 4.1875C125.245 4.1875 123.766 4.42708 122.344 4.91666C113.307 8.04687 108.437 21.2656 109.635 39.4115C110.177 47.6042 112.099 56.6667 115.203 65.6198C118.307 74.5729 122.401 82.8854 127.047 89.651C137.328 104.651 149.328 112.021 158.37 108.891C172.245 104.083 175.448 76.8542 165.516 48.1875C156.604 22.4583 140.089 4.1875 126.766 4.1875Z" fill="#2E186B"/>
<path d="M126.219 91.2188C125.891 91.2188 125.583 91.0573 125.396 90.7865C120.651 83.8698 116.474 75.3958 113.312 66.2761C110.151 57.1563 108.193 47.9115 107.641 39.5417C107.62 39.2083 107.766 38.8854 108.031 38.6823C108.479 38.3385 109.052 38.1406 109.609 37.9479C115.115 36.0417 121.234 37.026 126.849 40.724C132.396 44.375 136.792 50.2604 139.234 57.2969C144.281 71.8698 139.214 86.9115 127.927 90.8177C127.375 91.0104 126.802 91.2083 126.234 91.2188C126.229 91.2188 126.224 91.2188 126.219 91.2188ZM109.682 40.0521C110.276 48.0729 112.182 56.8958 115.203 65.6198C118.224 74.3385 122.187 82.4531 126.682 89.1198C126.87 89.0677 127.078 88.9948 127.271 88.9271C137.516 85.3802 142.031 71.4844 137.339 57.9479C135.047 51.3281 130.927 45.8021 125.75 42.3958C120.667 39.0469 115.167 38.1406 110.266 39.8386C110.073 39.9063 109.865 39.9792 109.682 40.0521Z" fill="#2E186B"/>
<path d="M45.5417 315.568H104.094V388.917L100.438 395.385C98.8177 398.24 94.7083 398.24 93.0833 395.385L87.9792 386.344C87.5938 385.688 86.901 385.287 86.1458 385.287H45.5417C38.2344 385.287 32.2969 379.359 32.2969 372.037V328.813C32.2969 321.49 38.2187 315.568 45.5417 315.568Z" fill="#2E186B"/>
<path d="M96.7604 398.526C94.8542 398.526 93.1562 397.537 92.2135 395.875L87.1094 386.839C86.9062 386.495 86.5469 386.287 86.1458 386.287H45.5417C37.6875 386.287 31.2917 379.896 31.2917 372.037V328.813C31.2917 320.958 37.6875 314.568 45.5417 314.568H104.094C104.646 314.568 105.094 315.016 105.094 315.568V388.917C105.094 389.089 105.047 389.26 104.964 389.412L101.312 395.875C100.37 397.537 98.6667 398.526 96.7604 398.526ZM45.5417 316.568C38.7917 316.568 33.2969 322.063 33.2969 328.813V372.037C33.2969 378.792 38.7917 384.281 45.5417 384.281H86.1458C87.25 384.281 88.2812 384.88 88.8437 385.839L93.9583 394.891C94.5365 395.917 95.5833 396.526 96.7604 396.526C97.9375 396.526 98.9896 395.917 99.5677 394.891L103.089 388.656V316.568H45.5417Z" fill="#2E186B"/>
<path d="M136.432 328.813V372.037C136.432 379.359 130.51 385.287 123.187 385.287H115.667C114.911 385.287 114.224 385.688 113.839 386.344L108.729 395.385C107.109 398.24 103 398.24 101.375 395.385L96.2708 386.344C95.8854 385.688 95.1927 385.287 94.4375 385.287H53.8333C46.526 385.287 40.5885 379.359 40.5885 372.037V328.813C40.5885 321.49 46.5104 315.568 53.8333 315.568H123.187C130.51 315.568 136.432 321.51 136.432 328.813Z" fill="#FF7AF1"/>
<path d="M40.5833 328.818V333.182C40.5833 325.859 46.5156 319.938 53.8385 319.938H123.187C130.51 319.938 136.432 325.88 136.432 333.182V328.818C136.432 321.505 130.51 315.573 123.187 315.573H53.8385C46.5156 315.573 40.5833 321.495 40.5833 328.818Z" fill="white"/>
<path d="M105.052 398.526C103.146 398.526 101.448 397.537 100.505 395.875L95.401 386.839C95.1979 386.495 94.8385 386.287 94.4375 386.287H53.8333C45.9792 386.287 39.5833 379.896 39.5833 372.037V328.813C39.5833 320.958 45.9792 314.568 53.8333 314.568H123.187C131.042 314.568 137.432 320.958 137.432 328.813V372.037C137.432 379.896 131.042 386.287 123.187 386.287H115.667C115.271 386.287 114.906 386.495 114.698 386.849L109.604 395.875C108.661 397.537 106.958 398.526 105.052 398.526ZM53.8333 316.568C47.0833 316.568 41.5885 322.063 41.5885 328.813V372.037C41.5885 378.792 47.0833 384.281 53.8333 384.281H94.4375C95.5417 384.281 96.5729 384.88 97.1354 385.839L102.25 394.891C102.828 395.917 103.875 396.526 105.052 396.526C106.229 396.526 107.276 395.917 107.859 394.891L112.964 385.854C113.536 384.88 114.568 384.281 115.667 384.281H123.187C129.937 384.281 135.432 378.792 135.432 372.037V328.813C135.432 322.063 129.937 316.568 123.187 316.568H53.8333Z" fill="#2E186B"/>
<path d="M116.115 345.609V345.927C116.115 348.13 114.323 349.911 112.12 349.911H110.531C112.74 349.911 114.531 351.703 114.531 353.906V354.224C114.531 356.432 112.74 358.224 110.531 358.224H108.151C110.359 358.224 112.151 360.016 112.151 362.219V362.536C112.151 364.745 110.359 366.521 108.151 366.521H105.089C107.266 366.568 108.995 368.344 108.995 370.516V370.833C108.995 373.042 107.219 374.833 105.01 374.833H82.9115C81.2135 374.833 79.5781 374.438 78.0885 373.646C75.026 372.057 71.25 369.521 71.25 369.521V352.339L77.625 348.354L85.1146 336.208C85.6875 335.141 85.9063 333.922 85.7656 332.698L84.974 325.479C84.9271 324.88 85.224 324.323 85.7656 324.115C86.9896 323.641 89.2708 323.167 91.6667 324.734C93.5885 326.036 94.5573 328.385 95.0313 330.51C95.4896 332.573 95.5052 334.651 95.2083 336.745L94.0781 341.615H112.12C114.323 341.615 116.115 343.406 116.115 345.609Z" fill="white"/>
<path d="M105.01 375.833H82.9115C81.026 375.833 79.25 375.396 77.6146 374.526C74.5469 372.937 70.8437 370.453 70.6875 370.349C70.4115 370.161 70.25 369.854 70.25 369.521V352.339C70.25 351.99 70.4271 351.672 70.7188 351.49L76.8958 347.63L84.2656 335.682C84.7083 334.854 84.8906 333.844 84.7708 332.818L83.9792 325.589C83.8906 324.5 84.4687 323.542 85.4063 323.182C86.7448 322.661 89.4115 322.057 92.2188 323.901C94.0417 325.135 95.349 327.344 96.0104 330.292C96.474 332.38 96.5365 334.536 96.1979 336.885L95.3385 340.609H112.12C114.875 340.609 117.12 342.854 117.12 345.609V345.927C117.12 347.948 115.901 349.693 114.161 350.474C115.01 351.37 115.531 352.578 115.531 353.906V354.224C115.531 356.479 114.031 358.385 111.979 359.01C112.714 359.88 113.151 361 113.151 362.219V362.536C113.151 365.01 111.333 367.068 108.964 367.453C109.615 368.297 109.995 369.359 109.995 370.521V370.833C109.995 373.594 107.76 375.833 105.01 375.833ZM72.25 368.979C73.3281 369.687 76.1771 371.526 78.5469 372.755C79.8958 373.474 81.3594 373.833 82.9115 373.833H105.01C106.656 373.833 107.995 372.49 107.995 370.833V370.521C107.995 368.875 106.708 367.557 105.068 367.521C104.521 367.51 104.083 367.057 104.089 366.51C104.094 365.958 104.542 365.521 105.089 365.521H108.151C109.807 365.521 111.151 364.182 111.151 362.536V362.219C111.151 360.568 109.807 359.224 108.151 359.224C107.599 359.224 107.151 358.776 107.151 358.224C107.151 357.672 107.599 357.224 108.151 357.224H110.531C112.188 357.224 113.531 355.875 113.531 354.224V353.906C113.531 352.255 112.188 350.911 110.531 350.911C109.979 350.911 109.531 350.464 109.531 349.911C109.531 349.359 109.979 348.906 110.531 348.906H112.12C113.771 348.906 115.115 347.573 115.115 345.927V345.609C115.115 343.958 113.771 342.615 112.12 342.615H94.0781C93.776 342.615 93.4844 342.474 93.2969 342.234C93.1042 341.995 93.0365 341.682 93.1042 341.385L94.2292 336.521C94.5208 334.495 94.4635 332.573 94.0521 330.729C93.6719 329.026 92.8542 326.75 91.1042 325.562C89.0677 324.224 87.1094 324.667 86.1302 325.047C86 325.099 85.9583 325.26 85.9688 325.401L86.7604 332.589C86.9271 334.021 86.6667 335.437 85.9948 336.677L78.4792 348.88C78.3958 349.01 78.2865 349.125 78.1563 349.203L72.25 352.891V368.979Z" fill="#2E186B"/>
<path d="M105.089 367.521H96.8021C96.25 367.521 95.8021 367.073 95.8021 366.521C95.8021 365.969 96.25 365.521 96.8021 365.521H105.089C105.641 365.521 106.094 365.969 106.094 366.521C106.094 367.073 105.641 367.521 105.089 367.521Z" fill="#2E186B"/>
<path d="M108.151 359.224H96.8021C96.25 359.224 95.8021 358.776 95.8021 358.224C95.8021 357.672 96.25 357.224 96.8021 357.224H108.151C108.703 357.224 109.151 357.672 109.151 358.224C109.151 358.776 108.703 359.224 108.151 359.224Z" fill="#2E186B"/>
<path d="M110.531 350.911H96.8021C96.25 350.911 95.8021 350.464 95.8021 349.911C95.8021 349.359 96.25 348.906 96.8021 348.906H110.531C111.083 348.906 111.531 349.359 111.531 349.911C111.531 350.464 111.083 350.911 110.531 350.911Z" fill="#2E186B"/>
<path d="M77.5937 347.828V372.109C77.5937 373.615 76.375 374.833 74.8698 374.833H63.6354C62.1354 374.833 60.9115 373.615 60.9115 372.109V347.828C60.9115 346.323 62.1354 345.104 63.6354 345.104H74.8698C76.375 345.104 77.5937 346.323 77.5937 347.828Z" fill="#9654FF"/>
<path d="M66.9792 374.833H63.6354C62.1302 374.833 60.9062 373.609 60.9062 372.104V347.828C60.9062 346.323 62.1302 345.109 63.6354 345.109H66.9792C65.4896 345.109 64.2604 346.323 64.2604 347.828V372.104C64.2604 373.609 65.4896 374.833 66.9792 374.833Z" fill="white"/>
<path d="M74.8698 375.833H63.6354C61.5833 375.833 59.9115 374.161 59.9115 372.109V347.828C59.9115 345.771 61.5833 344.104 63.6354 344.104H74.8698C76.9219 344.104 78.5937 345.771 78.5937 347.828V372.109C78.5937 374.161 76.9219 375.833 74.8698 375.833ZM63.6354 346.104C62.6823 346.104 61.9115 346.875 61.9115 347.828V372.109C61.9115 373.063 62.6823 373.833 63.6354 373.833H74.8698C75.8177 373.833 76.5937 373.063 76.5937 372.109V347.828C76.5937 346.875 75.8177 346.104 74.8698 346.104H63.6354Z" fill="#2E186B"/>
<path d="M71.9688 370.516C71.4167 370.516 70.9688 370.068 70.9688 369.516V367.599C70.9688 367.047 71.4167 366.599 71.9688 366.599C72.5208 366.599 72.9688 367.047 72.9688 367.599V369.516C72.9688 370.068 72.5208 370.516 71.9688 370.516Z" fill="#2E186B"/>
<path d="M294.203 71.7344C270.786 71.7344 251.802 90.7135 251.802 114.13C251.802 121.885 253.891 129.151 257.531 135.406H284.401V155.38C287.547 156.13 290.828 156.526 294.203 156.526C317.62 156.526 336.599 137.547 336.599 114.13C336.599 90.7135 317.62 71.7344 294.203 71.7344Z" fill="#2E186B"/>
<path d="M294.203 157.526C290.823 157.526 287.448 157.135 284.172 156.354C283.719 156.25 283.401 155.849 283.401 155.38V136.406H257.531C257.172 136.406 256.844 136.219 256.661 135.906C252.828 129.318 250.802 121.786 250.802 114.13C250.802 90.2031 270.271 70.7344 294.203 70.7344C318.13 70.7344 337.604 90.2031 337.604 114.13C337.604 138.057 318.13 157.526 294.203 157.526ZM285.406 154.583C288.286 155.208 291.24 155.526 294.203 155.526C317.031 155.526 335.599 136.958 335.599 114.13C335.599 91.3021 317.031 72.7344 294.203 72.7344C271.375 72.7344 252.802 91.3021 252.802 114.13C252.802 121.24 254.635 128.234 258.109 134.406H284.401C284.953 134.406 285.406 134.854 285.406 135.406V154.583Z" fill="#2E186B"/>
<path d="M328.979 114.13C328.979 137.547 310 156.526 286.578 156.526C281.307 156.526 276.26 155.568 271.599 153.797C269.411 157.969 264.708 160.432 259.828 159.557C253.802 158.479 249.792 152.719 250.875 146.688C251.276 144.458 252.318 142.505 253.776 140.984C247.781 133.672 244.182 124.318 244.182 114.13C244.182 90.7135 263.161 71.7344 286.578 71.7344C310 71.7344 328.979 90.7135 328.979 114.13Z" fill="white"/>
<path d="M261.813 160.734C261.099 160.734 260.375 160.672 259.651 160.542C256.474 159.974 253.708 158.198 251.865 155.552C250.021 152.901 249.318 149.688 249.891 146.51C250.26 144.453 251.146 142.547 252.464 140.953C246.469 133.333 243.182 123.844 243.182 114.13C243.182 90.2031 262.651 70.7344 286.578 70.7344C310.51 70.7344 329.979 90.2031 329.979 114.13C329.979 138.057 310.51 157.526 286.578 157.526C281.578 157.526 276.693 156.688 272.047 155.026C269.833 158.609 265.958 160.734 261.813 160.734ZM286.578 72.7344C263.755 72.7344 245.182 91.3021 245.182 114.13C245.182 123.672 248.51 132.984 254.547 140.349C254.87 140.74 254.849 141.313 254.495 141.677C253.125 143.109 252.214 144.906 251.859 146.865C251.38 149.516 251.969 152.198 253.505 154.406C255.047 156.62 257.354 158.099 260.005 158.573C264.359 159.354 268.661 157.245 270.708 153.333C270.943 152.88 271.479 152.682 271.953 152.859C276.615 154.63 281.531 155.526 286.578 155.526C309.406 155.526 327.979 136.958 327.979 114.13C327.979 91.3021 309.406 72.7344 286.578 72.7344Z" fill="#2E186B"/>
<path d="M307.38 115.141L306.911 115.604L289.156 133.349C287.74 134.776 285.422 134.776 283.99 133.349L266.016 115.37C261.094 110.448 261.094 102.458 266.016 97.5365C270.948 92.6146 278.932 92.6146 283.854 97.5365C283.865 97.5469 283.875 97.5573 283.885 97.5677C285.391 99.0938 287.76 99.0938 289.26 97.5677C289.276 97.5573 289.297 97.5469 289.307 97.5365C294.068 92.7656 301.724 92.6146 306.672 97.0834C306.75 97.1615 306.844 97.2344 306.911 97.3125C306.995 97.3854 307.068 97.4531 307.146 97.5365C307.219 97.6146 307.297 97.6875 307.38 97.7656C307.448 97.849 307.521 97.9167 307.599 98C311.984 102.875 311.917 110.354 307.38 115.141Z" fill="#FF7AF1"/>
<path d="M73.276 224.302C73.276 225.203 73.2292 226.104 73.1406 227C73.0521 227.896 72.9219 228.786 72.7448 229.672C72.5677 230.557 72.349 231.432 72.0885 232.297C71.8281 233.156 71.5208 234.005 71.1771 234.839C70.8333 235.672 70.4479 236.484 70.0208 237.281C69.599 238.078 69.1354 238.849 68.6302 239.599C68.1302 240.349 67.5937 241.073 67.0208 241.771C66.4479 242.469 65.8437 243.135 65.2083 243.771C64.5677 244.411 63.901 245.016 63.2031 245.589C62.5104 246.161 61.7865 246.698 61.0365 247.198C60.2865 247.698 59.5104 248.161 58.7187 248.589C57.9219 249.01 57.1042 249.396 56.2708 249.745C55.4375 250.089 54.5937 250.391 53.7292 250.651C52.8646 250.917 51.9896 251.135 51.1094 251.307C50.224 251.484 49.3333 251.62 48.4323 251.708C47.5365 251.797 46.6354 251.839 45.7344 251.839C44.8333 251.839 43.9323 251.797 43.0365 251.708C42.1354 251.62 41.2448 251.484 40.3594 251.307C39.4792 251.135 38.6042 250.917 37.7396 250.651C36.875 250.391 36.026 250.089 35.1927 249.745C34.3594 249.396 33.5469 249.01 32.75 248.589C31.9583 248.161 31.1823 247.698 30.4323 247.198C29.6823 246.698 28.9583 246.161 28.2604 245.589C27.5677 245.016 26.8958 244.411 26.2604 243.771C25.625 243.135 25.0156 242.469 24.4479 241.771C23.875 241.073 23.3385 240.349 22.8333 239.599C22.3333 238.849 21.8698 238.078 21.4479 237.281C21.0208 236.484 20.6354 235.672 20.2917 234.839C19.9479 234.005 19.6406 233.156 19.3802 232.297C19.1198 231.432 18.901 230.557 18.724 229.672C18.5469 228.786 18.4167 227.896 18.3281 227C18.2396 226.104 18.1927 225.203 18.1927 224.302C18.1927 223.401 18.2396 222.5 18.3281 221.604C18.4167 220.703 18.5469 219.813 18.724 218.927C18.901 218.042 19.1198 217.172 19.3802 216.307C19.6406 215.443 19.9479 214.594 20.2917 213.76C20.6354 212.927 21.0208 212.115 21.4479 211.318C21.8698 210.526 22.3333 209.75 22.8333 209C23.3385 208.25 23.875 207.526 24.4479 206.833C25.0156 206.135 25.625 205.469 26.2604 204.828C26.8958 204.193 27.5677 203.583 28.2604 203.016C28.9583 202.443 29.6823 201.906 30.4323 201.406C31.1823 200.901 31.9583 200.438 32.75 200.016C33.5469 199.589 34.3594 199.203 35.1927 198.859C36.026 198.516 36.875 198.208 37.7396 197.948C38.6042 197.688 39.4792 197.469 40.3594 197.292C41.2448 197.115 42.1354 196.984 43.0365 196.896C43.9323 196.807 44.8333 196.76 45.7344 196.76C46.6354 196.76 47.5365 196.807 48.4323 196.896C49.3333 196.984 50.224 197.115 51.1094 197.292C51.9896 197.469 52.8646 197.688 53.7292 197.948C54.5937 198.208 55.4375 198.516 56.2708 198.859C57.1042 199.203 57.9219 199.589 58.7187 200.016C59.5104 200.438 60.2865 200.901 61.0365 201.406C61.7865 201.906 62.5104 202.443 63.2031 203.016C63.901 203.583 64.5677 204.193 65.2083 204.828C65.8437 205.469 66.4479 206.135 67.0208 206.833C67.5937 207.526 68.1302 208.25 68.6302 209C69.1354 209.75 69.599 210.526 70.0208 211.318C70.4479 212.115 70.8333 212.927 71.1771 213.76C71.5208 214.594 71.8281 215.443 72.0885 216.307C72.349 217.172 72.5677 218.042 72.7448 218.927C72.9219 219.813 73.0521 220.703 73.1406 221.604C73.2292 222.5 73.276 223.401 73.276 224.302Z" fill="#2E186B"/>
<path d="M45.7292 252.839C30.2083 252.839 17.4531 240.344 17.1979 224.771C16.9375 209.036 29.526 196.026 45.2656 195.766C61.0104 195.51 74.0104 208.099 74.2708 223.828C74.5312 239.563 61.9427 252.578 46.2031 252.833C46.0469 252.839 45.8854 252.839 45.7292 252.839ZM45.7396 197.76C45.5937 197.76 45.4479 197.766 45.2969 197.766C30.6667 198.01 18.9583 210.109 19.1979 224.74C19.3177 231.828 22.1875 238.443 27.2812 243.37C32.375 248.302 39.0677 250.953 46.1719 250.833C60.8021 250.594 72.5104 238.495 72.2708 223.865C72.0312 209.38 60.1719 197.76 45.7396 197.76Z" fill="#2E186B"/>
<path d="M66.9792 221.667C66.9792 222.568 66.9375 223.469 66.8489 224.365C66.7604 225.266 66.6302 226.156 66.4531 227.036C66.276 227.922 66.0573 228.797 65.7969 229.661C65.5312 230.526 65.2292 231.37 64.8854 232.203C64.5417 233.036 64.1562 233.854 63.7292 234.646C63.3021 235.443 62.8385 236.214 62.3385 236.964C61.8385 237.714 61.3021 238.438 60.7292 239.135C60.1562 239.833 59.5521 240.5 58.9167 241.141C58.276 241.776 57.6094 242.38 56.9114 242.953C56.2135 243.526 55.4896 244.063 54.7396 244.563C53.9896 245.063 53.2187 245.526 52.4219 245.953C51.6302 246.38 50.8125 246.766 49.9792 247.109C49.1458 247.453 48.2969 247.755 47.4375 248.021C46.5729 248.281 45.6979 248.5 44.8125 248.677C43.9271 248.849 43.0364 248.984 42.1406 249.073C41.2448 249.161 40.3437 249.203 39.4427 249.203C38.5417 249.203 37.6406 249.161 36.7396 249.073C35.8437 248.984 34.9531 248.849 34.0677 248.677C33.1823 248.5 32.3125 248.281 31.4479 248.021C30.5833 247.755 29.7344 247.453 28.901 247.109C28.0677 246.766 27.2552 246.38 26.4583 245.953C25.6614 245.526 24.8906 245.063 24.1406 244.563C23.3906 244.063 22.6667 243.526 21.9687 242.953C21.2708 242.38 20.6042 241.776 19.9687 241.141C19.3281 240.5 18.7239 239.833 18.151 239.135C17.5781 238.438 17.0417 237.714 16.5417 236.964C16.0417 236.214 15.5781 235.443 15.151 234.646C14.7292 233.854 14.3437 233.036 14 232.203C13.651 231.37 13.3489 230.526 13.0885 229.661C12.8229 228.797 12.6042 227.922 12.4323 227.036C12.2552 226.156 12.125 225.266 12.0364 224.365C11.9479 223.469 11.901 222.568 11.901 221.667C11.901 220.766 11.9479 219.865 12.0364 218.969C12.125 218.068 12.2552 217.177 12.4323 216.292C12.6042 215.411 12.8229 214.536 13.0885 213.672C13.3489 212.807 13.651 211.964 14 211.13C14.3437 210.297 14.7292 209.479 15.151 208.688C15.5781 207.891 16.0417 207.115 16.5417 206.37C17.0417 205.62 17.5781 204.896 18.151 204.198C18.7239 203.5 19.3281 202.833 19.9687 202.193C20.6042 201.557 21.2708 200.953 21.9687 200.38C22.6667 199.807 23.3906 199.271 24.1406 198.771C24.8906 198.271 25.6614 197.807 26.4583 197.38C27.2552 196.953 28.0677 196.568 28.901 196.224C29.7344 195.88 30.5833 195.578 31.4479 195.313C32.3125 195.052 33.1823 194.833 34.0677 194.656C34.9531 194.479 35.8437 194.349 36.7396 194.26C37.6406 194.172 38.5417 194.13 39.4427 194.13C40.3437 194.13 41.2448 194.172 42.1406 194.26C43.0364 194.349 43.9271 194.479 44.8125 194.656C45.6979 194.833 46.5729 195.052 47.4375 195.313C48.2969 195.578 49.1458 195.88 49.9792 196.224C50.8125 196.568 51.6302 196.953 52.4219 197.38C53.2187 197.807 53.9896 198.271 54.7396 198.771C55.4896 199.271 56.2135 199.807 56.9114 200.38C57.6094 200.953 58.276 201.557 58.9167 202.193C59.5521 202.833 60.1562 203.5 60.7292 204.198C61.3021 204.896 61.8385 205.62 62.3385 206.37C62.8385 207.115 63.3021 207.891 63.7292 208.688C64.1562 209.479 64.5417 210.297 64.8854 211.13C65.2292 211.964 65.5312 212.807 65.7969 213.672C66.0573 214.536 66.276 215.411 66.4531 216.292C66.6302 217.177 66.7604 218.068 66.8489 218.969C66.9375 219.865 66.9792 220.766 66.9792 221.667Z" fill="white"/>
<path d="M15.7135 224.901C15.8385 233.026 19.4948 240.271 25.1719 245.224C17.3489 240.469 12.0729 231.938 11.9062 222.115C11.6614 206.911 23.776 194.385 38.9844 194.125C46.0417 194.01 52.5417 196.573 57.4792 200.87C53.1979 198.271 48.1614 196.818 42.7864 196.911C27.5833 197.161 15.4635 209.698 15.7135 224.901Z" fill="#9654FF"/>
<path d="M39.4375 250.203C23.9167 250.203 11.1615 237.714 10.9062 222.135C10.7812 214.516 13.6302 207.302 18.9323 201.823C24.2292 196.344 31.349 193.255 38.9687 193.13C46.6042 193.021 53.8073 195.854 59.2864 201.156C64.7656 206.458 67.8542 213.573 67.9792 221.198C68.2396 236.932 55.6458 249.943 39.9115 250.203C39.7552 250.203 39.5937 250.203 39.4375 250.203ZM39.4531 195.13C39.3021 195.13 39.1562 195.13 39.0052 195.135C31.9167 195.25 25.2969 198.12 20.3698 203.214C15.4375 208.307 12.7917 215.016 12.9062 222.104C13.026 229.193 15.8958 235.807 20.9896 240.74C26.0833 245.667 32.7812 248.318 39.8802 248.198C54.5104 247.958 66.2187 235.859 65.9792 221.229C65.8594 214.141 62.9896 207.526 57.8958 202.594C52.9114 197.771 46.375 195.13 39.4531 195.13Z" fill="#2E186B"/>
<path d="M24.3385 213.193C24.0573 213.193 23.776 213.078 23.5781 212.844C23.2187 212.427 23.2656 211.797 23.6823 211.432C26.5208 208.99 29.5573 208.943 32.4739 211.286C32.9062 211.635 32.9739 212.266 32.625 212.698C32.276 213.125 31.651 213.193 31.2187 212.849C29.0625 211.115 27.0833 211.146 24.9896 212.953C24.8021 213.115 24.5677 213.193 24.3385 213.193Z" fill="#2E186B"/>
<path d="M46.7187 212.823C46.4375 212.823 46.1562 212.708 45.9583 212.474C45.599 212.057 45.6458 211.427 46.0625 211.063C48.901 208.62 51.9375 208.573 54.8542 210.922C55.2865 211.266 55.3542 211.896 55.0052 212.328C54.6562 212.76 54.0312 212.823 53.599 212.479C51.4427 210.745 49.4635 210.776 47.3698 212.583C47.1823 212.745 46.9479 212.823 46.7187 212.823Z" fill="#2E186B"/>
<path d="M39.5521 240.818C37.0208 240.818 34.625 240.042 32.7917 238.63C30.8385 237.125 29.7396 235.083 29.7031 232.875C29.6979 232.323 30.1354 231.87 30.6875 231.859C31.2448 231.859 31.6979 232.292 31.7083 232.844C31.7344 234.427 32.5521 235.922 34.0104 237.047C35.5364 238.219 37.5469 238.839 39.7239 238.813C41.8802 238.776 43.8906 238.083 45.375 236.859C46.7969 235.688 47.5677 234.167 47.5417 232.583C47.5312 232.026 47.9739 231.573 48.526 231.563C49.0573 231.536 49.5312 231.995 49.5417 232.547C49.5781 234.755 48.5521 236.833 46.651 238.401C44.8125 239.917 42.3646 240.771 39.7604 240.813C39.6875 240.818 39.6198 240.818 39.5521 240.818Z" fill="#2E186B"/>
<path d="M504.833 202.526H492.818V268.693H504.833C508.021 268.693 510.609 266.104 510.609 262.922V208.302C510.609 205.115 508.021 202.526 504.833 202.526Z" fill="#2E186B"/>
<mask id="mask5_1_496" style="mask-type:luminance" maskUnits="userSpaceOnUse" x="490" y="201" width="22" height="70">
<path d="M490.667 201.333H511.828V270.667H490.667V201.333Z" fill="white"/>
</mask>
<g mask="url(#mask5_1_496)">
<path d="M504.833 269.693H492.818C492.266 269.693 491.818 269.245 491.818 268.693V202.526C491.818 201.974 492.266 201.526 492.818 201.526H504.833C508.573 201.526 511.609 204.568 511.609 208.302V262.922C511.609 266.656 508.573 269.693 504.833 269.693ZM493.823 267.693H504.833C507.469 267.693 509.609 265.552 509.609 262.922V208.302C509.609 205.672 507.469 203.526 504.833 203.526H493.823V267.693Z" fill="#2E186B"/>
</g>
<path d="M503.094 208.302V262.922C503.094 266.104 500.505 268.693 497.323 268.693H428.766C425.583 268.693 422.995 266.104 422.995 262.922V208.302C422.995 205.115 425.583 202.526 428.766 202.526H497.323C500.505 202.526 503.094 205.115 503.094 208.302Z" fill="#FF7AF1"/>
<path d="M503.094 208.302V212.75C503.094 209.568 500.505 206.974 497.323 206.974H428.766C425.583 206.974 422.995 209.568 422.995 212.75V208.302C422.995 205.115 425.583 202.526 428.766 202.526H497.323C500.505 202.526 503.094 205.115 503.094 208.302Z" fill="white"/>
<path d="M497.323 269.693H428.766C425.031 269.693 421.99 266.656 421.99 262.922V208.302C421.99 204.568 425.031 201.526 428.766 201.526H497.323C501.057 201.526 504.099 204.568 504.099 208.302V262.922C504.099 266.656 501.057 269.693 497.323 269.693ZM428.766 203.526C426.135 203.526 423.995 205.672 423.995 208.302V262.922C423.995 265.552 426.135 267.693 428.766 267.693H497.323C499.953 267.693 502.094 265.552 502.094 262.922V208.302C502.094 205.672 499.953 203.526 497.323 203.526H428.766Z" fill="#2E186B"/>
<path d="M489.156 251.844H436.938C434.927 251.844 433.688 249.906 434.745 248.401L452.849 222.563C453.818 221.188 456.042 221.104 457.12 222.401L469.141 236.875C470.146 238.094 472.188 238.125 473.25 236.938L479.167 230.281C480.391 228.901 482.875 229.224 483.604 230.854L491.552 248.771C492.208 250.245 490.964 251.844 489.156 251.844Z" fill="white"/>
<path d="M477.521 223.385C477.521 223.917 477.406 224.427 477.172 224.917C476.943 225.411 476.609 225.844 476.182 226.219C475.755 226.594 475.26 226.885 474.698 227.089C474.141 227.292 473.557 227.391 472.948 227.391C472.344 227.391 471.76 227.292 471.203 227.089C470.641 226.885 470.146 226.594 469.719 226.219C469.287 225.844 468.958 225.411 468.729 224.917C468.495 224.427 468.38 223.917 468.38 223.385C468.38 222.854 468.495 222.344 468.729 221.854C468.958 221.359 469.287 220.927 469.719 220.552C470.146 220.177 470.641 219.885 471.203 219.682C471.76 219.479 472.344 219.38 472.948 219.38C473.557 219.38 474.141 219.479 474.698 219.682C475.26 219.885 475.755 220.177 476.182 220.552C476.609 220.927 476.943 221.359 477.172 221.854C477.406 222.344 477.521 222.854 477.521 223.385Z" fill="white"/>
<path d="M507.281 49.0052V102.193C507.281 105.547 504.563 108.26 501.214 108.26H446.13C442.776 108.26 440.062 105.547 440.062 102.193V49.0052C440.062 45.6563 442.776 42.9375 446.13 42.9375H501.214C504.563 42.9375 507.281 45.6563 507.281 49.0052Z" fill="white"/>
<path d="M507.281 54.6406V49.0052C507.281 45.6563 504.563 42.9375 501.214 42.9375H446.13C442.776 42.9375 440.062 45.6563 440.062 49.0052V54.6406H507.281Z" fill="#FF7AF1"/>
<path d="M501.214 109.266H494.635C494.083 109.266 493.635 108.818 493.635 108.26C493.635 107.708 494.083 107.26 494.635 107.26H501.214C504.005 107.26 506.281 104.99 506.281 102.193V49.0052C506.281 46.2135 504.005 43.9427 501.214 43.9427H446.13C443.333 43.9427 441.063 46.2135 441.063 49.0052V102.193C441.063 104.99 443.333 107.26 446.13 107.26H482.922C483.474 107.26 483.922 107.708 483.922 108.26C483.922 108.818 483.474 109.266 482.922 109.266H446.13C442.229 109.266 439.057 106.094 439.057 102.193V49.0052C439.057 45.1094 442.229 41.9375 446.13 41.9375H501.214C505.109 41.9375 508.281 45.1094 508.281 49.0052V102.193C508.281 106.094 505.109 109.266 501.214 109.266Z" fill="#2E186B"/>
<path d="M482 96.2552C481.828 96.2552 481.651 96.2083 481.495 96.1198L461.349 84.3594C461.047 84.1771 460.854 83.849 460.854 83.4948C460.854 83.1354 461.047 82.8073 461.349 82.6302L481.495 70.8698C481.974 70.5937 482.583 70.75 482.865 71.2292C483.141 71.7083 482.979 72.3177 482.505 72.599L463.844 83.4948L482.505 94.3906C482.979 94.6667 483.141 95.2813 482.865 95.7604C482.677 96.0781 482.344 96.2552 482 96.2552Z" fill="#2E186B"/>
<path d="M468.531 83.4948C468.531 83.9323 468.484 84.3646 468.401 84.7969C468.318 85.224 468.188 85.6406 468.021 86.0469C467.854 86.4531 467.646 86.8386 467.406 87.2031C467.161 87.5625 466.885 87.9011 466.573 88.2136C466.266 88.5209 465.927 88.7969 465.563 89.0417C465.198 89.2865 464.813 89.4896 464.411 89.6563C464.005 89.8281 463.589 89.9531 463.156 90.0365C462.729 90.125 462.292 90.1667 461.854 90.1667C461.417 90.1667 460.984 90.125 460.552 90.0365C460.125 89.9531 459.708 89.8281 459.302 89.6563C458.896 89.4896 458.51 89.2865 458.151 89.0417C457.786 88.7969 457.448 88.5209 457.135 88.2136C456.828 87.9011 456.552 87.5625 456.307 87.2031C456.063 86.8386 455.859 86.4531 455.693 86.0469C455.521 85.6406 455.396 85.224 455.313 84.7969C455.224 84.3646 455.182 83.9323 455.182 83.4948C455.182 83.0573 455.224 82.6198 455.313 82.1927C455.396 81.7604 455.521 81.3438 455.693 80.9427C455.859 80.5365 456.063 80.1511 456.307 79.7865C456.552 79.4219 456.828 79.0834 457.135 78.7761C457.448 78.4636 457.786 78.1875 458.151 77.9479C458.51 77.7031 458.896 77.4948 459.302 77.3281C459.708 77.1615 460.125 77.0365 460.552 76.9479C460.984 76.8646 461.417 76.8229 461.854 76.8229C462.292 76.8229 462.729 76.8646 463.156 76.9479C463.589 77.0365 464.005 77.1615 464.411 77.3281C464.813 77.4948 465.198 77.7031 465.563 77.9479C465.927 78.1875 466.266 78.4636 466.573 78.7761C466.885 79.0834 467.161 79.4219 467.406 79.7865C467.646 80.1511 467.854 80.5365 468.021 80.9427C468.188 81.3438 468.318 81.7604 468.401 82.1927C468.484 82.6198 468.531 83.0573 468.531 83.4948Z" fill="#9654FF"/>
<path d="M488.672 71.7344C488.672 72.1719 488.63 72.6042 488.542 73.0365C488.458 73.4635 488.333 73.8802 488.167 74.2865C487.995 74.6927 487.792 75.0781 487.547 75.4427C487.302 75.8073 487.026 76.1406 486.719 76.4531C486.406 76.7604 486.073 77.0365 485.708 77.2813C485.344 77.526 484.958 77.7292 484.552 77.8958C484.146 78.0677 483.729 78.1927 483.302 78.276C482.87 78.3646 482.438 78.4063 482 78.4063C481.563 78.4063 481.125 78.3646 480.698 78.276C480.266 78.1927 479.849 78.0677 479.448 77.8958C479.042 77.7292 478.656 77.526 478.292 77.2813C477.927 77.0365 477.589 76.7604 477.281 76.4531C476.969 76.1406 476.693 75.8073 476.453 75.4427C476.208 75.0781 476 74.6927 475.833 74.2865C475.667 73.8802 475.542 73.4635 475.453 73.0365C475.37 72.6042 475.328 72.1719 475.328 71.7344C475.328 71.2969 475.37 70.8594 475.453 70.4323C475.542 70 475.667 69.5833 475.833 69.1823C476 68.776 476.208 68.3906 476.453 68.026C476.693 67.6615 476.969 67.3229 477.281 67.0156C477.589 66.7031 477.927 66.4271 478.292 66.1875C478.656 65.9427 479.042 65.7344 479.448 65.5677C479.849 65.401 480.266 65.276 480.698 65.1875C481.125 65.1042 481.563 65.0625 482 65.0625C482.438 65.0625 482.87 65.1042 483.302 65.1875C483.729 65.276 484.146 65.401 484.552 65.5677C484.958 65.7344 485.344 65.9427 485.708 66.1875C486.073 66.4271 486.406 66.7031 486.719 67.0156C487.026 67.3229 487.302 67.6615 487.547 68.026C487.792 68.3906 487.995 68.776 488.167 69.1823C488.333 69.5833 488.458 70 488.542 70.4323C488.63 70.8594 488.672 71.2969 488.672 71.7344Z" fill="#9654FF"/>
<path d="M488.672 95.2552C488.672 95.6927 488.63 96.125 488.542 96.5573C488.458 96.9844 488.333 97.4011 488.167 97.8073C487.995 98.2136 487.792 98.5938 487.547 98.9583C487.302 99.3229 487.026 99.6615 486.719 99.974C486.406 100.281 486.073 100.557 485.708 100.802C485.344 101.047 484.958 101.25 484.552 101.417C484.146 101.583 483.729 101.714 483.302 101.797C482.87 101.885 482.438 101.927 482 101.927C481.563 101.927 481.125 101.885 480.698 101.797C480.266 101.714 479.849 101.583 479.448 101.417C479.042 101.25 478.656 101.047 478.292 100.802C477.927 100.557 477.589 100.281 477.281 99.974C476.969 99.6615 476.693 99.3229 476.453 98.9583C476.208 98.5938 476 98.2136 475.833 97.8073C475.667 97.4011 475.542 96.9844 475.453 96.5573C475.37 96.125 475.328 95.6927 475.328 95.2552C475.328 94.8177 475.37 94.3802 475.453 93.9531C475.542 93.5208 475.667 93.1042 475.833 92.6979C476 92.2969 476.208 91.9115 476.453 91.5469C476.693 91.1823 476.969 90.8438 477.281 90.5365C477.589 90.224 477.927 89.9479 478.292 89.7031C478.656 89.4636 479.042 89.2552 479.448 89.0886C479.849 88.9219 480.266 88.7969 480.698 88.7083C481.125 88.625 481.563 88.5833 482 88.5833C482.438 88.5833 482.87 88.625 483.302 88.7083C483.729 88.7969 484.146 88.9219 484.552 89.0886C484.958 89.2552 485.344 89.4636 485.708 89.7031C486.073 89.9479 486.406 90.224 486.719 90.5365C487.026 90.8438 487.302 91.1823 487.547 91.5469C487.792 91.9115 487.995 92.2969 488.167 92.6979C488.333 93.1042 488.458 93.5208 488.542 93.9531C488.63 94.3802 488.672 94.8177 488.672 95.2552Z" fill="#9654FF"/>
<mask id="mask6_1_496" style="mask-type:luminance" maskUnits="userSpaceOnUse" x="444" y="324" width="68" height="67">
<path d="M444 324H511.828V390.667H444V324Z" fill="white"/>
</mask>
<g mask="url(#mask6_1_496)">
<path d="M510.849 357.292C510.849 358.365 510.797 359.438 510.693 360.51C510.583 361.578 510.427 362.641 510.219 363.693C510.01 364.745 509.75 365.786 509.438 366.818C509.125 367.844 508.76 368.854 508.354 369.849C507.943 370.839 507.479 371.813 506.974 372.76C506.469 373.708 505.917 374.625 505.318 375.521C504.724 376.411 504.083 377.276 503.401 378.104C502.719 378.938 502 379.734 501.24 380.49C500.479 381.25 499.682 381.974 498.854 382.656C498.021 383.333 497.161 383.974 496.266 384.573C495.375 385.167 494.453 385.719 493.505 386.229C492.557 386.734 491.589 387.193 490.594 387.604C489.604 388.016 488.594 388.375 487.563 388.688C486.536 389 485.495 389.26 484.438 389.469C483.385 389.682 482.323 389.839 481.255 389.943C480.188 390.047 479.115 390.099 478.036 390.099C476.964 390.099 475.891 390.047 474.823 389.943C473.755 389.839 472.693 389.682 471.635 389.469C470.583 389.26 469.542 389 468.516 388.688C467.484 388.375 466.474 388.016 465.484 387.604C464.49 387.193 463.521 386.734 462.573 386.229C461.625 385.719 460.703 385.167 459.807 384.573C458.917 383.974 458.052 383.333 457.224 382.656C456.391 381.974 455.599 381.25 454.839 380.49C454.078 379.734 453.359 378.938 452.677 378.104C451.995 377.276 451.354 376.411 450.755 375.521C450.161 374.625 449.609 373.708 449.104 372.76C448.594 371.813 448.135 370.839 447.724 369.849C447.313 368.854 446.953 367.844 446.641 366.818C446.328 365.786 446.068 364.745 445.859 363.693C445.651 362.641 445.49 361.578 445.385 360.51C445.281 359.438 445.229 358.365 445.229 357.292C445.229 356.219 445.281 355.146 445.385 354.078C445.49 353.005 445.651 351.948 445.859 350.891C446.068 349.839 446.328 348.797 446.641 347.771C446.953 346.74 447.313 345.729 447.724 344.74C448.135 343.745 448.594 342.776 449.104 341.828C449.609 340.88 450.161 339.958 450.755 339.063C451.354 338.172 451.995 337.307 452.677 336.479C453.359 335.646 454.078 334.854 454.839 334.094C455.599 333.333 456.391 332.615 457.224 331.932C458.052 331.25 458.917 330.609 459.807 330.016C460.703 329.417 461.625 328.865 462.573 328.359C463.521 327.849 464.49 327.391 465.484 326.979C466.474 326.568 467.484 326.208 468.516 325.896C469.542 325.583 470.583 325.323 471.635 325.115C472.693 324.906 473.755 324.745 474.823 324.641C475.891 324.536 476.964 324.484 478.036 324.484C479.115 324.484 480.188 324.536 481.255 324.641C482.323 324.745 483.385 324.906 484.438 325.115C485.495 325.323 486.536 325.583 487.563 325.896C488.594 326.208 489.604 326.568 490.594 326.979C491.589 327.391 492.557 327.849 493.505 328.359C494.453 328.865 495.375 329.417 496.266 330.016C497.161 330.609 498.021 331.25 498.854 331.932C499.682 332.615 500.479 333.333 501.24 334.094C502 334.854 502.719 335.646 503.401 336.479C504.083 337.307 504.724 338.172 505.318 339.063C505.917 339.958 506.469 340.88 506.974 341.828C507.479 342.776 507.943 343.745 508.354 344.74C508.76 345.729 509.125 346.74 509.438 347.771C509.75 348.797 510.01 349.839 510.219 350.891C510.427 351.948 510.583 353.005 510.693 354.078C510.797 355.146 510.849 356.219 510.849 357.292Z" fill="#2E186B"/>
</g>
<mask id="mask7_1_496" style="mask-type:luminance" maskUnits="userSpaceOnUse" x="444" y="322" width="68" height="70">
<path d="M444 322.667H511.828V392H444V322.667Z" fill="white"/>
</mask>
<g mask="url(#mask7_1_496)">
<path d="M478.037 391.104C459.396 391.104 444.224 375.938 444.224 357.292C444.224 338.651 459.396 323.484 478.037 323.484C496.682 323.484 511.849 338.651 511.849 357.292C511.849 375.938 496.682 391.104 478.037 391.104ZM478.037 325.484C460.5 325.484 446.229 339.755 446.229 357.292C446.229 374.833 460.5 389.099 478.037 389.099C495.578 389.099 509.849 374.833 509.849 357.292C509.849 339.755 495.578 325.484 478.037 325.484Z" fill="#2E186B"/>
</g>
<path d="M500.969 357.292C500.969 358.365 500.917 359.438 500.813 360.51C500.708 361.578 500.552 362.641 500.339 363.693C500.13 364.745 499.87 365.786 499.557 366.818C499.245 367.844 498.885 368.854 498.474 369.849C498.063 370.839 497.604 371.813 497.099 372.76C496.589 373.708 496.037 374.625 495.443 375.521C494.844 376.411 494.203 377.276 493.526 378.104C492.844 378.938 492.12 379.734 491.359 380.49C490.599 381.25 489.807 381.974 488.974 382.656C488.146 383.333 487.281 383.974 486.391 384.573C485.495 385.167 484.573 385.719 483.625 386.229C482.682 386.734 481.708 387.193 480.719 387.604C479.724 388.016 478.714 388.375 477.688 388.688C476.656 389 475.615 389.26 474.563 389.469C473.505 389.682 472.448 389.839 471.375 389.943C470.307 390.047 469.234 390.099 468.162 390.099C467.089 390.099 466.016 390.047 464.943 389.943C463.875 389.839 462.813 389.682 461.76 389.469C460.703 389.26 459.667 389 458.635 388.688C457.609 388.375 456.599 388.016 455.604 387.604C454.609 387.193 453.641 386.734 452.693 386.229C451.745 385.719 450.823 385.167 449.932 384.573C449.037 383.974 448.177 383.333 447.344 382.656C446.516 381.974 445.719 381.25 444.958 380.49C444.198 379.734 443.479 378.938 442.797 378.104C442.115 377.276 441.474 376.411 440.88 375.521C440.281 374.625 439.729 373.708 439.224 372.76C438.719 371.813 438.26 370.839 437.849 369.849C437.438 368.854 437.073 367.844 436.76 366.818C436.453 365.786 436.188 364.745 435.979 363.693C435.771 362.641 435.615 361.578 435.51 360.51C435.401 359.438 435.349 358.365 435.349 357.292C435.349 356.219 435.401 355.146 435.51 354.078C435.615 353.005 435.771 351.948 435.979 350.891C436.188 349.839 436.453 348.797 436.76 347.771C437.073 346.74 437.438 345.729 437.849 344.74C438.26 343.745 438.719 342.776 439.224 341.828C439.729 340.88 440.281 339.958 440.88 339.063C441.474 338.172 442.115 337.307 442.797 336.479C443.479 335.646 444.198 334.854 444.958 334.094C445.719 333.333 446.516 332.615 447.344 331.932C448.177 331.25 449.037 330.609 449.932 330.016C450.823 329.417 451.745 328.865 452.693 328.359C453.641 327.849 454.609 327.391 455.604 326.979C456.599 326.568 457.609 326.208 458.635 325.896C459.667 325.583 460.703 325.323 461.76 325.115C462.813 324.906 463.875 324.745 464.943 324.641C466.016 324.536 467.089 324.484 468.162 324.484C469.234 324.484 470.307 324.536 471.375 324.641C472.448 324.745 473.505 324.906 474.563 325.115C475.615 325.323 476.656 325.583 477.688 325.896C478.714 326.208 479.724 326.568 480.719 326.979C481.708 327.391 482.682 327.849 483.625 328.359C484.573 328.865 485.495 329.417 486.391 330.016C487.281 330.609 488.146 331.25 488.974 331.932C489.807 332.615 490.599 333.333 491.359 334.094C492.12 334.854 492.844 335.646 493.526 336.479C494.203 337.307 494.844 338.172 495.443 339.063C496.037 339.958 496.589 340.88 497.099 341.828C497.604 342.776 498.063 343.745 498.474 344.74C498.885 345.729 499.245 346.74 499.557 347.771C499.87 348.797 500.13 349.839 500.339 350.891C500.552 351.948 500.708 353.005 500.813 354.078C500.917 355.146 500.969 356.219 500.969 357.292Z" fill="white"/>
<path d="M492.724 335.531C487.057 330.88 479.792 328.078 471.885 328.078C453.771 328.078 439.078 342.771 439.078 360.885C439.078 369.229 442.188 376.828 447.292 382.615C439.995 376.599 435.354 367.49 435.354 357.292C435.354 339.177 450.036 324.484 468.161 324.484C477.932 324.484 486.698 328.755 492.724 335.531Z" fill="#9654FF"/>
<path d="M468.162 391.104C449.516 391.104 434.349 375.938 434.349 357.292C434.349 355.792 434.448 354.276 434.646 352.797C434.719 352.25 435.219 351.87 435.771 351.938C436.318 352.01 436.703 352.516 436.63 353.063C436.443 354.453 436.349 355.875 436.349 357.292C436.349 374.833 450.62 389.099 468.162 389.099C485.703 389.099 499.969 374.833 499.969 357.292C499.969 339.755 485.703 325.484 468.162 325.484C457.958 325.484 448.302 330.432 442.328 338.724C442.005 339.172 441.38 339.276 440.932 338.953C440.484 338.63 440.38 338.005 440.703 337.557C447.052 328.745 457.313 323.484 468.162 323.484C486.807 323.484 501.974 338.651 501.974 357.292C501.974 375.938 486.807 391.104 468.162 391.104Z" fill="#2E186B"/>
<path d="M468.156 361.885C462.156 361.885 457.276 357.005 457.276 351.005C457.276 345.005 462.156 340.125 468.156 340.125C474.156 340.125 479.036 345.005 479.036 351.005C479.036 357.005 474.156 361.885 468.156 361.885ZM468.156 342.125C463.26 342.125 459.276 346.109 459.276 351.005C459.276 355.901 463.26 359.885 468.156 359.885C473.052 359.885 477.036 355.901 477.036 351.005C477.036 346.109 473.052 342.125 468.156 342.125Z" fill="#2E186B"/>
<path d="M484.953 374.458H451.37C451.099 374.458 450.839 374.349 450.646 374.151C450.458 373.953 450.359 373.688 450.37 373.417C450.672 366.474 455.031 360.297 461.474 357.682C461.99 357.479 462.573 357.724 462.781 358.234C462.984 358.75 462.74 359.333 462.229 359.542C456.833 361.729 453.083 366.729 452.453 372.458H483.87C483.224 366.719 479.474 361.724 474.083 359.542C473.568 359.333 473.323 358.75 473.531 358.24C473.74 357.724 474.323 357.479 474.833 357.682C481.271 360.292 485.635 366.464 485.953 373.412C485.964 373.688 485.865 373.953 485.672 374.151C485.484 374.349 485.224 374.458 484.953 374.458Z" fill="#2E186B"/>
</svg>
