<svg width="378" height="511" viewBox="0 0 378 511" fill="none" xmlns="http://www.w3.org/2000/svg">
<path d="M14.125 307.979L59.0417 281.896C59.0156 290.625 65.1927 301.349 72.8177 305.724L27.8958 331.807C20.2708 327.406 14.0989 316.682 14.125 307.979Z" fill="#582690"/>
<path d="M14.2031 276.276L59.1198 250.193L59.0417 281.896L14.125 307.979L14.2031 276.276Z" fill="#582690"/>
<path d="M2.42708 255.917L47.349 229.833C46.1042 230.609 45.349 232.245 45.3229 234.313L0.40625 260.37C0.40625 258.302 1.18229 256.693 2.42708 255.917Z" fill="#582690"/>
<path d="M14.8229 54.2969L59.7708 28.2135L59.1719 234.339L14.2552 260.422L14.8229 54.2969Z" fill="#582690"/>
<path d="M2.42708 255.917L47.349 229.833C48.6719 229.161 50.4583 229.318 52.25 230.354L7.32812 256.438C5.54166 255.401 3.75 255.219 2.42708 255.917Z" fill="#582690"/>
<path d="M7.32812 256.438L52.25 230.354L59.1719 234.339L14.2552 260.422L7.32812 256.438Z" fill="#582690"/>
<path d="M98.8802 406.844L143.797 380.76C145.042 380.036 146.781 380.141 148.698 381.255L103.781 407.313C101.865 406.224 100.125 406.12 98.8802 406.844Z" fill="#582690"/>
<path d="M176.297 405.109C176.297 409.49 179.38 414.823 183.193 417.026L138.276 443.083C134.464 440.88 131.375 435.547 131.375 431.193C144.859 423.37 162.833 412.932 176.297 405.109Z" fill="#582690"/>
<path d="M103.781 407.313L148.698 381.255L176.323 397.182L131.401 423.24L103.781 407.313Z" fill="#582690"/>
<path d="M131.401 423.24L176.323 397.182L176.297 405.109L131.375 431.193L131.401 423.24Z" fill="#582690"/>
<path d="M131.453 407.391L176.375 381.333L190.198 389.286L145.276 415.37L131.453 407.391Z" fill="#582690"/>
<path d="M145.276 415.37L190.198 389.286L190.146 405.135L145.224 431.219L145.276 415.37Z" fill="#582690"/>
<path d="M138.276 443.083L183.193 417.026L238.458 448.885L193.542 474.969L138.276 443.083Z" fill="#582690"/>
<path d="M243.359 449.349L198.443 475.432C197.198 476.156 195.458 476.057 193.542 474.969L238.458 448.885C240.38 450 242.115 450.099 243.359 449.349Z" fill="#582690"/>
<path d="M145.224 431.219L190.146 405.135L231.589 429.042L186.667 455.125L145.224 431.219Z" fill="#582690"/>
<path d="M243.359 449.349L198.443 475.432C199.688 474.708 200.464 473.177 200.464 471.031L245.385 444.948C245.385 447.125 244.604 448.651 243.359 449.349Z" fill="#582690"/>
<path d="M200.49 463.078L245.411 436.995L245.385 444.948L200.464 471.031L200.49 463.078Z" fill="#582690"/>
<path d="M186.719 439.25L231.641 413.193L231.589 429.042L186.667 455.125L186.719 439.25Z" fill="#CECDCB"/>
<path d="M145.276 415.37L190.198 389.286L231.641 413.193L186.719 439.25L145.276 415.37Z" fill="#CECDCB"/>
<path d="M186.719 439.25L231.641 413.193L245.464 421.146L200.516 447.224L186.719 439.25Z" fill="#582690"/>
<path d="M200.516 447.224L245.464 421.146L245.411 436.995L200.49 463.078L200.516 447.224Z" fill="#582690"/>
<path d="M200.49 463.078L245.411 436.995L273.031 452.948L228.115 479.005L200.49 463.078Z" fill="#582690"/>
<path d="M277.906 469.271L232.99 495.349C234.234 494.625 235.01 493.099 235.01 490.948C235.01 486.547 231.953 481.208 228.115 479.005L273.031 452.948C276.87 455.151 279.958 460.49 279.932 464.865C279.932 467.042 279.151 468.568 277.906 469.271Z" fill="#582690"/>
<path d="M27.8958 331.807L72.8177 305.724L333.302 455.927L288.359 481.984L27.8958 331.807Z" fill="#582690"/>
<path d="M204.099 365.531C201.427 367.089 198.755 368.641 196.083 370.193C194.396 371.177 192.115 372.5 190.427 373.484C180.005 379.521 169.578 385.578 159.177 391.615C155.365 389.411 152.281 384.078 152.307 379.729C152.307 377.552 153.083 375.995 154.328 375.271L199.245 349.214C198 349.938 197.224 351.469 197.224 353.646C197.198 358.021 200.286 363.359 204.099 365.531Z" fill="#A07AC3"/>
<path d="M159.177 391.615L204.099 365.531L217.922 373.51L173 399.594L159.177 391.615Z" fill="#A07AC3"/>
<path d="M154.328 375.271L199.245 349.214C200.49 348.49 202.229 348.594 204.125 349.682L159.203 375.766C157.312 374.651 155.573 374.547 154.328 375.271Z" fill="#582690"/>
<path d="M217.922 373.51C219.839 374.625 221.578 374.729 222.849 374L177.927 400.057C176.656 400.786 174.922 400.708 173 399.594C186.203 391.901 199.427 384.234 212.656 376.568C214.24 375.635 216.339 374.417 217.922 373.51Z" fill="#A07AC3"/>
<path d="M159.203 375.766L204.125 349.682L217.948 357.656L173.026 383.714L159.203 375.766Z" fill="#582690"/>
<path d="M222.849 374L177.927 400.057C179.146 399.359 179.927 397.833 179.927 395.656C179.927 391.281 176.865 385.943 173.026 383.714L217.948 357.656C221.786 359.859 224.87 365.198 224.844 369.573C224.844 371.75 224.068 373.276 222.849 374Z" fill="#582690"/>
<path d="M14.2031 276.276L59.1198 250.193L363.078 425.443L318.156 451.526L14.2031 276.276Z" fill="#A07AC3"/>
<path d="M14.2552 260.422L59.1719 234.339L363.104 409.594L318.182 435.672L14.2552 260.422Z" fill="#582690"/>
<path d="M93.7448 238.38C92.9687 238.849 91.9271 239.443 91.1771 239.885C89.5417 240.844 87.3646 242.083 85.7552 243.042C84.0469 244.026 81.7604 245.349 80.0781 246.333C69.651 252.37 59.224 258.427 48.8281 264.464C45.0156 262.26 41.9271 256.953 41.9531 252.578C41.9531 250.401 42.7292 248.844 43.974 248.146L88.8958 222.063C87.651 222.786 86.8698 224.318 86.8698 226.495C86.8437 230.87 89.9323 236.208 93.7448 238.38Z" fill="#CECDCB"/>
<path d="M43.974 248.146L88.8958 222.063C90.1406 221.339 91.875 221.443 93.7969 222.531L48.8802 248.615C46.9583 247.5 45.2187 247.396 43.974 248.146Z" fill="#CD1C2E"/>
<path d="M186.719 439.25L186.667 455.125L145.224 431.219L145.276 415.37L186.719 439.25Z" fill="#CECDCB"/>
<path d="M91.8021 170.417C92.526 171.943 93.3021 173.448 94.1615 174.896C79.1719 183.573 64.2031 192.276 49.2135 200.953C48.3854 199.505 47.6094 198.026 46.8802 196.5C61.8698 187.797 76.8333 179.12 91.8021 170.417Z" fill="#CECDCB"/>
<path d="M91.8021 170.417C76.8333 179.12 61.8698 187.797 46.8802 196.5C45.7396 194.089 44.7812 191.604 44.0521 189.141C59.0156 180.438 73.9844 171.76 88.974 163.057C89.724 165.547 90.6823 168.005 91.8021 170.417Z" fill="#CECDCB"/>
<path d="M87.0781 151.172C87.0781 155.005 87.7552 159.047 88.974 163.057C73.9844 171.76 59.0156 180.438 44.0521 189.141C42.8333 185.104 42.1615 181.063 42.1615 177.255C55.6458 169.432 73.6198 158.995 87.0781 151.172Z" fill="#CECDCB"/>
<path d="M228.115 479.005C231.953 481.208 235.01 486.547 235.01 490.948C234.984 495.302 231.901 497.062 228.062 494.859L103.729 423.161C99.9167 420.99 96.8333 415.651 96.8594 411.276C96.8594 406.896 99.9687 405.109 103.781 407.312L131.401 423.24L131.375 431.193C131.375 435.547 134.464 440.88 138.276 443.083L193.542 474.969C197.354 477.141 200.438 475.38 200.464 471.031L200.49 463.078L228.115 479.005Z" fill="#582690"/>
<path d="M186.719 439.25L200.516 447.224L200.49 463.078L200.464 471.031C200.438 475.38 197.354 477.141 193.542 474.969L138.276 443.083C134.464 440.88 131.375 435.547 131.375 431.193L131.401 423.24L131.453 407.391L145.276 415.37L145.224 431.219L186.667 455.125L186.719 439.25Z" fill="#582690"/>
<path d="M173.026 383.714C176.865 385.943 179.927 391.281 179.927 395.656C179.927 400.031 176.813 401.797 173 399.594L159.177 391.615C155.365 389.411 152.281 384.078 152.307 379.729C152.307 375.323 155.417 373.563 159.203 375.766L173.026 383.714Z" fill="#582690"/>
<path d="M111.302 192.948C118.047 196.833 124.193 197.198 128.625 194.635L83.6823 220.693C79.2708 223.281 73.125 222.917 66.3854 219.005C59.6667 215.146 53.625 208.542 49.2135 200.953C64.2031 192.276 79.1719 183.573 94.1614 174.896C98.5417 182.458 104.609 189.089 111.302 192.948Z" fill="#CECDCB"/>
<path d="M118.823 177.823L73.9062 203.906C72.0104 204.995 69.3385 204.839 66.4375 203.156C60.651 199.839 55.9583 191.786 55.9844 185.203L100.901 159.151C100.875 165.703 105.573 173.755 111.354 177.099C114.26 178.781 116.932 178.938 118.823 177.823Z" fill="#3C81CB"/>
<path d="M121.859 171.219C121.859 174.458 120.693 176.734 118.823 177.823L73.9062 203.906C75.7708 202.818 76.9375 200.542 76.9375 197.302C90.4271 189.479 108.396 179.042 121.859 171.219Z" fill="#CECDCB"/>
<path d="M42.2917 133.635L87.2083 107.578L87.0781 151.172L42.1615 177.255L42.2917 133.635Z" fill="#CECDCB"/>
<path d="M328.609 373.823C330.526 374.932 332.292 375.036 333.536 374.313L288.62 400.37C287.375 401.094 285.609 400.99 283.693 399.906C296.917 392.214 310.146 384.547 323.37 376.854C324.953 375.943 327.026 374.729 328.609 373.823Z" fill="#CECDCB"/>
<path d="M333.536 374.312L288.62 400.37C289.865 399.672 290.615 398.141 290.641 395.969C290.641 391.562 287.552 386.255 283.745 384.026L328.661 357.969C332.474 360.172 335.557 365.505 335.557 369.885C335.531 372.057 334.781 373.589 333.536 374.312Z" fill="#CD1C2E"/>
<path d="M44.3125 129.208L89.2344 103.151C87.9896 103.849 87.2083 105.401 87.2083 107.578L42.2917 133.635C42.2917 131.458 43.0677 129.932 44.3125 129.208Z" fill="#CECDCB"/>
<path d="M128.625 194.635L83.6823 220.693C88.0417 218.177 90.7344 212.844 90.7604 205.255L135.682 179.198C135.656 186.76 132.958 192.094 128.625 194.635Z" fill="#3C81CB"/>
<path d="M154.927 218.099C156.74 219.161 158.531 219.344 159.854 218.568L114.906 244.651C113.609 245.401 111.823 245.219 110.005 244.182C108.943 243.563 107.88 242.682 106.896 241.516C103.495 237.578 102.12 232.036 103.859 229.109L148.802 203.026C147.042 205.953 148.417 211.521 151.812 215.432C152.797 216.599 153.859 217.479 154.927 218.099Z" fill="#CECDCB"/>
<path d="M56.1146 141.615L101.031 115.557L100.901 159.151L55.9844 185.203L56.1146 141.615Z" fill="#3C81CB"/>
<path d="M159.854 218.568L114.906 244.651C115.427 244.365 115.839 243.922 116.177 243.354L161.099 217.271C160.76 217.87 160.344 218.281 159.854 218.568Z" fill="#3C81CB"/>
<path d="M44.3125 129.208L89.2344 103.151C90.4792 102.396 92.2135 102.5 94.1354 103.615C97.9479 105.818 101.031 111.151 101.031 115.557L56.1146 141.615C56.1146 137.234 53.026 131.901 49.2135 129.698C47.2969 128.583 45.5573 128.479 44.3125 129.208Z" fill="#3C81CB"/>
<path d="M176.578 226.208C177.771 229.677 180.214 232.656 182.729 234.135C167.76 242.813 152.797 251.516 137.807 260.219C135.292 258.74 132.854 255.734 131.661 252.292C145.146 244.469 163.12 234.031 176.578 226.208Z" fill="#CECDCB"/>
<path d="M182.729 234.135H182.75C167.76 242.813 152.797 251.516 137.833 260.219C137.833 260.219 137.833 260.219 137.807 260.219C152.797 251.516 167.76 242.813 182.729 234.135Z" fill="#CECDCB"/>
<path d="M77.0677 153.708L121.99 127.625L121.859 171.219L76.9375 197.302L77.0677 153.708Z" fill="#CECDCB"/>
<path d="M182.75 234.135C183.792 234.729 184.854 235.068 185.865 235.068C170.875 243.771 155.911 252.448 140.922 261.151C139.932 261.151 138.87 260.813 137.833 260.219C152.797 251.516 167.76 242.813 182.75 234.135Z" fill="#CECDCB"/>
<path d="M204.021 259.594C202.724 262.964 204.562 268.583 208.141 272.13C193.177 280.807 178.188 289.51 163.224 298.214C159.646 294.667 157.776 289.021 159.099 285.677C172.589 277.854 190.557 267.417 204.021 259.594Z" fill="#CECDCB"/>
<path d="M185.865 235.068C186.536 235.068 187.135 234.911 187.656 234.599L142.734 260.682C142.219 260.969 141.62 261.151 140.922 261.151C148.417 256.797 155.911 252.448 163.406 248.094C164.286 247.604 165.453 246.901 166.333 246.385C167.219 245.891 168.385 245.193 169.266 244.703C171.005 243.693 173.312 242.344 175.052 241.333C175.88 240.844 177.021 240.193 177.849 239.703C179.484 238.771 181.661 237.5 183.271 236.568C184.047 236.13 184.984 235.297 185.865 235.068Z" fill="#CECDCB"/>
<path d="M187.656 234.599L142.734 260.682C144.786 259.49 145.38 256.177 144.005 252.24L188.927 226.182C190.302 230.094 189.703 233.432 187.656 234.599Z" fill="#3C81CB"/>
<path d="M123.958 230.172L168.875 204.089L161.099 217.271L116.177 243.354L123.958 230.172Z" fill="#3C81CB"/>
<path d="M123.958 230.172L168.875 204.089L176.578 226.208L131.661 252.292L123.958 230.172Z" fill="#CECDCB"/>
<path d="M131.766 217.01L176.682 190.932L188.927 226.182L144.005 252.24L131.766 217.01Z" fill="#3C81CB"/>
<path d="M194.187 194.74L239.109 168.682L204.021 259.594L159.099 285.677L194.187 194.74Z" fill="#CECDCB"/>
<path d="M207.156 207.583L252.078 181.5L217.01 272.443L172.094 298.526L207.156 207.583Z" fill="#CD1C2E"/>
<path d="M210.479 273.943C195.51 282.646 180.547 291.323 165.557 300.026C164.781 299.563 164 298.964 163.224 298.214C178.187 289.51 193.177 280.807 208.141 272.13C208.922 272.906 209.724 273.505 210.479 273.943Z" fill="#CECDCB"/>
<path d="M79.0937 149.255L124.01 123.198C122.766 123.922 121.99 125.448 121.99 127.625L77.0677 153.708C77.0677 151.505 77.849 149.979 79.0937 149.255Z" fill="#CECDCB"/>
<path d="M18.8698 45.4427L63.7917 19.3854C61.3021 20.8073 59.7708 23.8646 59.7708 28.2135L14.8229 54.2969C14.8489 49.9479 16.3802 46.8906 18.8698 45.4427Z" fill="#582690"/>
<path d="M116.281 208.078L161.203 181.995L148.802 203.026L103.859 229.109L116.281 208.078Z" fill="#CECDCB"/>
<path d="M210.479 273.943C212.344 275.005 214.109 275.188 215.406 274.438L170.484 300.495C169.188 301.245 167.401 301.089 165.557 300.026C180.547 291.323 195.51 282.646 210.479 273.943Z" fill="#CECDCB"/>
<path d="M90.8906 161.661L135.786 135.604L135.682 179.198L90.7604 205.255L90.8906 161.661Z" fill="#3C81CB"/>
<path d="M79.0938 149.255L124.01 123.198C125.255 122.474 126.995 122.573 128.911 123.661L83.9688 149.745C82.0729 148.63 80.3385 148.531 79.0938 149.255Z" fill="#3C81CB"/>
<path d="M104.042 172.823L148.958 146.766L161.203 181.995L116.281 208.078L104.042 172.823Z" fill="#CECDCB"/>
<path d="M117.865 205.406L162.781 179.328L161.203 181.995L116.281 208.078L117.865 205.406Z" fill="#3C81CB"/>
<path d="M215.406 274.438L170.484 300.495C171.188 300.104 171.729 299.432 172.094 298.526L217.01 272.443C216.651 273.375 216.104 274.021 215.406 274.438Z" fill="#CD1C2E"/>
<path d="M83.9687 149.745C87.8073 151.948 90.8906 157.281 90.8906 161.661L90.7604 205.255C90.7083 220.563 79.7656 226.724 66.3854 219.005C52.974 211.286 42.1354 192.536 42.1615 177.255L42.2917 133.635C42.2917 129.26 45.401 127.495 49.2135 129.698C53.026 131.901 56.1146 137.234 56.1146 141.615L55.9844 185.203C55.9583 191.786 60.651 199.839 66.4375 203.156C72.1927 206.495 76.9115 203.854 76.9375 197.302L77.0677 153.708C77.0677 149.307 80.1823 147.547 83.9687 149.745Z" fill="#3C81CB"/>
<path d="M83.9688 149.745L128.911 123.661C132.724 125.865 135.812 131.203 135.786 135.604L90.8906 161.661C90.8906 157.281 87.8073 151.948 83.9688 149.745Z" fill="#3C81CB"/>
<path d="M163.87 178.24C163.432 178.469 163.068 178.833 162.781 179.328L117.865 205.406C118.151 204.917 118.51 204.552 118.953 204.297C132.411 196.474 150.385 186.063 163.87 178.24Z" fill="#3C81CB"/>
<path d="M87.3646 52.0729C87.3385 56.4479 90.4531 61.8125 94.2396 63.9844L49.3177 90.0677C45.5052 87.8698 42.4219 82.5312 42.4479 78.1562C42.4479 75.9792 43.224 74.4479 44.4688 73.7239L89.3854 47.6667C88.1406 48.3698 87.3646 49.8958 87.3646 52.0729Z" fill="#CECDCB"/>
<path d="M118.953 204.297L163.87 178.24C165.193 177.458 167.062 177.797 168.953 178.885L124.036 204.943C122.141 203.854 120.276 203.542 118.953 204.297Z" fill="#3C81CB"/>
<path d="M44.4688 73.724L89.3854 47.6667C90.6302 46.9167 92.3698 47.0208 94.2917 48.1354L49.3698 74.2187C47.4531 73.1042 45.7135 73 44.4688 73.724Z" fill="#CD1C2E"/>
<path d="M130.208 212.531L175.13 186.448L176.682 190.932L131.766 217.01L130.208 212.531Z" fill="#3C81CB"/>
<path d="M124.036 204.943L168.953 178.885C171.469 180.339 173.958 183.109 175.13 186.448L130.208 212.531C129.042 209.167 126.552 206.391 124.036 204.943Z" fill="#3C81CB"/>
<path d="M124.036 204.943C126.552 206.391 129.042 209.167 130.208 212.531L131.766 217.01L144.005 252.24C145.745 257.161 144.344 261.151 140.922 261.151C139.932 261.151 138.87 260.813 137.807 260.219C135.292 258.74 132.854 255.734 131.661 252.292L123.958 230.172L116.177 243.354C114.984 245.427 112.521 245.635 110.005 244.182C108.943 243.563 107.88 242.682 106.896 241.516C103.495 237.578 102.12 232.036 103.859 229.109L116.281 208.078L117.865 205.406C119.031 203.417 121.547 203.516 124.036 204.943Z" fill="#3C81CB"/>
<path d="M105.312 164.406L150.229 138.323C148.208 139.516 147.583 142.828 148.958 146.766L104.042 172.823C102.667 168.885 103.26 165.573 105.312 164.406Z" fill="#CECDCB"/>
<path d="M116.385 172.797L161.302 146.714L168.979 168.833L124.063 194.891L116.385 172.797Z" fill="#3C81CB"/>
<path d="M105.312 164.406L150.229 138.323C150.75 138.036 151.344 137.859 152.021 137.859C153.057 137.859 154.12 138.219 155.156 138.818C157.698 140.266 160.109 143.271 161.302 146.714L116.385 172.797C115.167 169.328 112.755 166.349 110.24 164.875C109.203 164.276 108.115 163.943 107.099 163.943C106.427 163.943 105.828 164.094 105.312 164.406Z" fill="#3C81CB"/>
<path d="M131.87 181.708L176.786 155.651L168.979 168.833L124.062 194.891L131.87 181.708Z" fill="#CECDCB"/>
<path d="M178.057 154.354C177.568 154.641 177.125 155.083 176.786 155.651L131.87 181.708C132.208 181.167 132.646 180.724 133.141 180.438C146.599 172.62 164.573 162.177 178.057 154.354Z" fill="#CECDCB"/>
<path d="M144.161 195.979L189.104 169.896L176.682 190.932L131.766 217.01L144.161 195.979Z" fill="#3C81CB"/>
<path d="M133.141 180.437L178.057 154.354C179.354 153.604 181.12 153.786 182.958 154.849L138.042 180.906C136.198 179.87 134.437 179.661 133.141 180.437Z" fill="#3C81CB"/>
<path d="M138.042 180.906L182.958 154.849C184 155.443 185.063 156.323 186.073 157.49C189.469 161.427 190.844 166.969 189.104 169.896L144.161 195.979C145.927 193.052 144.552 187.484 141.151 183.573C140.141 182.406 139.078 181.526 138.042 180.906Z" fill="#3C81CB"/>
<path d="M138.042 180.906C139.078 181.526 140.141 182.406 141.151 183.573C144.552 187.484 145.927 193.052 144.161 195.979L131.766 217.01L130.208 212.531C129.042 209.167 126.552 206.391 124.036 204.943C121.547 203.516 119.031 203.417 117.865 205.406L116.281 208.078L104.042 172.823C102.302 167.901 103.703 163.943 107.099 163.943C108.115 163.943 109.203 164.276 110.24 164.875C112.755 166.349 115.167 169.328 116.385 172.797L124.062 194.891L131.87 181.708C133.089 179.661 135.5 179.453 138.042 180.906Z" fill="#3C81CB"/>
<path d="M260.922 251.411C260.922 259.052 263.615 267.573 268 275.135C253.036 283.839 238.047 292.516 223.083 301.219C218.698 293.656 215.974 285.135 216 277.495C229.484 269.672 247.458 259.234 260.922 251.411Z" fill="#CECDCB"/>
<path d="M285.141 293.188C291.911 297.073 298.031 297.438 302.469 294.875L257.547 320.958C253.115 323.521 246.995 323.156 240.224 319.245C233.531 315.385 227.464 308.781 223.083 301.219C238.047 292.516 253.036 283.839 268 275.135C272.38 282.698 278.453 289.328 285.141 293.188Z" fill="#CECDCB"/>
<path d="M292.688 278.063L247.745 304.146C245.854 305.234 243.208 305.078 240.276 303.396C234.495 300.078 229.797 292.026 229.823 285.443L274.745 259.385C274.719 265.943 279.411 273.995 285.193 277.339C288.125 279.021 290.771 279.177 292.688 278.063Z" fill="#C8761B"/>
<path d="M338.177 472.271L293.26 498.354C294.505 497.63 295.255 496.078 295.255 493.927C295.281 489.552 292.25 484.24 288.359 481.984L333.302 455.927C337.167 458.156 340.203 463.495 340.177 467.844C340.177 470.021 339.422 471.547 338.177 472.271Z" fill="#582690"/>
<path d="M308.615 496.13L353.531 470.047C353.245 471.547 353.401 473.307 353.974 475.146L309.052 501.203C308.484 499.391 308.328 497.604 308.615 496.13Z" fill="#A07AC3"/>
<path d="M310.505 493.307L355.427 467.224C354.49 467.766 353.844 468.776 353.531 470.047L308.615 496.13C308.927 494.859 309.573 493.849 310.505 493.307Z" fill="#A07AC3"/>
<path d="M310.479 493.307L355.401 467.25C355.734 467.042 356.099 466.911 356.516 466.859L311.594 492.917C311.182 492.995 310.818 493.125 310.479 493.307Z" fill="#582690"/>
<path d="M311.594 492.917L356.516 466.859L356.594 466.807L311.672 492.891L311.594 492.917Z" fill="#582690"/>
<path d="M311.672 492.891L356.594 466.807C357.682 466.625 358.953 466.964 360.224 467.714C362.167 468.828 364.115 470.875 365.438 473.281L320.516 499.365C319.193 496.932 317.25 494.911 315.307 493.771C314.036 493.047 312.766 492.708 311.672 492.891Z" fill="#582690"/>
<path d="M369.896 461.161C369.12 461.604 368.109 462.198 367.328 462.635C365.698 463.594 363.516 464.839 361.911 465.797C360.198 466.781 357.917 468.104 356.229 469.089C345.802 475.12 335.406 481.182 324.979 487.219C321.167 485.016 318.078 479.656 318.078 475.328L363 449.245C363 453.599 366.083 458.958 369.896 461.161Z" fill="#A07AC3"/>
<path d="M318.156 451.526L363.078 425.443L363 449.245L318.078 475.328L318.156 451.526Z" fill="#A07AC3"/>
<mask id="mask0_1_2" style="mask-type:luminance" maskUnits="userSpaceOnUse" x="331" y="425" width="46" height="60">
<path d="M331.667 425.078H377V484.333H331.667V425.078Z" fill="white"/>
</mask>
<g mask="url(#mask0_1_2)">
<path d="M331.979 451.578L376.901 425.495L376.823 457.198L331.901 483.281L331.979 451.578Z" fill="#582690"/>
</g>
<path d="M324.979 487.219L369.896 461.161C369.87 466.703 368.214 470.849 365.438 473.281L320.516 499.365C323.292 496.906 324.953 492.76 324.979 487.219Z" fill="#A07AC3"/>
<path d="M328.766 318.339C313.802 327.042 298.839 335.719 283.844 344.422C280.031 342.219 276.974 336.885 276.974 332.51L321.891 306.427C321.891 310.802 324.953 316.141 328.766 318.339Z" fill="#CECDCB"/>
<mask id="mask1_1_2" style="mask-type:luminance" maskUnits="userSpaceOnUse" x="319" y="472" width="49" height="39">
<path d="M319.667 472.333H367.667V510.609H319.667V472.333Z" fill="white"/>
</mask>
<g mask="url(#mask1_1_2)">
<path d="M365.177 484.083L320.26 510.167C322.542 508.844 322.979 504.984 321.193 500.766C320.984 500.271 320.776 499.807 320.516 499.365L365.437 473.281C365.698 473.75 365.901 474.214 366.109 474.682C367.901 478.906 367.458 482.766 365.177 484.083Z" fill="#582690"/>
</g>
<mask id="mask2_1_2" style="mask-type:luminance" maskUnits="userSpaceOnUse" x="307" y="492" width="16" height="19">
<path d="M307.667 492.333H322.333V510.609H307.667V492.333Z" fill="white"/>
</mask>
<g mask="url(#mask2_1_2)">
<path d="M320.516 499.365C320.776 499.807 320.984 500.271 321.193 500.766C323.266 505.609 322.333 510.01 319.094 510.583C317.974 510.74 316.677 510.375 315.354 509.625C312.995 508.25 310.792 505.635 309.573 502.63C309.365 502.162 309.182 501.672 309.052 501.203C308.484 499.391 308.328 497.604 308.615 496.13C309.026 494.391 310.068 493.151 311.594 492.917L311.672 492.891C312.766 492.708 314.036 493.047 315.307 493.771C317.25 494.912 319.193 496.932 320.516 499.365Z" fill="#582690"/>
</g>
<path d="M173 399.594C176.812 401.797 179.927 400.031 179.927 395.656C179.927 391.281 176.865 385.943 173.026 383.714L159.203 375.766C155.417 373.563 152.307 375.323 152.307 379.729C152.281 384.078 155.365 389.411 159.177 391.615L173 399.594ZM318.078 475.328C318.078 479.656 321.167 485.016 324.979 487.219C324.953 492.76 323.292 496.906 320.516 499.365C319.193 496.932 317.25 494.911 315.307 493.771C314.036 493.047 312.766 492.708 311.672 492.891C310.068 493.151 309.026 494.391 308.615 496.13C308.328 497.604 308.484 499.391 309.052 501.203C307.474 500.74 305.865 500.042 304.177 499.057L295.255 493.927C295.281 489.552 292.25 484.24 288.359 481.984L27.8958 331.807C20.2708 327.406 14.0989 316.682 14.125 307.979L14.2031 276.276L318.156 451.526L318.078 475.328Z" fill="#A07AC3"/>
<path d="M295.698 271.458C295.698 274.698 294.531 276.974 292.687 278.063L247.745 304.146C249.615 303.057 250.781 300.776 250.781 297.542C264.266 289.719 282.24 279.281 295.698 271.458Z" fill="#CECDCB"/>
<path d="M302.469 294.875L257.547 320.958C261.88 318.417 264.578 313.083 264.604 305.495L309.521 279.438C309.495 287 306.797 292.359 302.469 294.875Z" fill="#C8761B"/>
<path d="M216.13 233.901L261.047 207.818L260.922 251.411L216 277.495L216.13 233.901Z" fill="#CECDCB"/>
<path d="M229.953 241.854L274.875 215.771L274.745 259.385L229.823 285.443L229.953 241.854Z" fill="#C8761B"/>
<path d="M250.911 253.948L295.828 227.865L295.698 271.458L250.781 297.542L250.911 253.948Z" fill="#CECDCB"/>
<path d="M264.734 261.901L309.651 235.844L309.521 279.438L264.604 305.495L264.734 261.901Z" fill="#C8761B"/>
<path d="M277.156 269.073L322.073 242.99L321.891 306.427L276.974 332.51L277.156 269.073Z" fill="#CECDCB"/>
<path d="M290.979 277.052L335.896 250.969L335.714 314.375L290.797 340.458L290.979 277.052Z" fill="#C8761B"/>
<path d="M328.766 318.339C330.682 319.453 332.448 319.557 333.693 318.833L288.776 344.891C287.531 345.615 285.766 345.51 283.844 344.422C288.411 341.755 292.974 339.115 297.516 336.469C302.417 333.646 307.292 330.797 312.193 327.974C317.719 324.766 323.24 321.552 328.766 318.339Z" fill="#CECDCB"/>
<path d="M333.693 318.833L288.776 344.891C290.021 344.188 290.771 342.635 290.797 340.458L335.714 314.375C335.714 316.578 334.937 318.104 333.693 318.833Z" fill="#C8761B"/>
<path d="M279.177 264.646L324.099 238.563C322.854 239.286 322.073 240.818 322.073 242.99L277.156 269.073C277.156 266.901 277.932 265.37 279.177 264.646Z" fill="#CECDCB"/>
<path d="M279.177 264.646L324.099 238.563C325.344 237.839 327.078 237.943 329 239.031L284.078 265.109C282.161 264.026 280.422 263.922 279.177 264.646Z" fill="#C8761B"/>
<path d="M284.078 265.109L329 239.031C332.812 241.255 335.896 246.594 335.896 250.969L290.979 277.052C290.979 272.651 287.891 267.313 284.078 265.109Z" fill="#C8761B"/>
<path d="M318.781 229.547L363.698 203.49L363.104 409.594L318.182 435.672L318.781 229.547Z" fill="#CECDCB"/>
<path d="M18.8698 45.4427L63.7917 19.3854C66.3073 17.9063 69.7812 18.1146 73.6198 20.3438L28.7031 46.4011C24.8646 44.1979 21.3854 43.9896 18.8698 45.4427Z" fill="#CECDCB"/>
<path d="M318.182 435.672L363.104 409.594L370.026 413.578L325.109 439.661L318.182 435.672Z" fill="#582690"/>
<mask id="mask3_1_2" style="mask-type:luminance" maskUnits="userSpaceOnUse" x="331" y="211" width="47" height="241">
<path d="M331.667 211H377.547V451.604H331.667V211Z" fill="white"/>
</mask>
<g mask="url(#mask3_1_2)">
<path d="M332.604 237.526L377.521 211.443L376.901 425.495L331.979 451.578L332.604 237.526Z" fill="#582690"/>
</g>
<mask id="mask4_1_2" style="mask-type:luminance" maskUnits="userSpaceOnUse" x="329" y="418" width="48" height="34">
<path d="M329 418.448H377V451.604H329V418.448Z" fill="white"/>
</mask>
<g mask="url(#mask4_1_2)">
<path d="M330.01 444.792L374.927 418.734C376.172 420.938 376.927 423.422 376.901 425.495L331.979 451.578C332.005 449.505 331.255 447.021 330.01 444.792Z" fill="#582690"/>
</g>
<mask id="mask5_1_2" style="mask-type:luminance" maskUnits="userSpaceOnUse" x="325" y="412" width="51" height="33">
<path d="M325 412.333H375.667V444.974H325V412.333Z" fill="white"/>
</mask>
<g mask="url(#mask5_1_2)">
<path d="M325.109 439.661L370.026 413.578C371.818 414.615 373.604 416.505 374.927 418.734L330.01 444.792C328.688 442.589 326.896 440.698 325.109 439.661Z" fill="#582690"/>
</g>
<path d="M240.719 166.688C240.016 167.073 239.474 167.75 239.109 168.682L194.188 194.74C194.552 193.807 195.099 193.156 195.797 192.745C209.255 184.922 227.229 174.51 240.719 166.688Z" fill="#CECDCB"/>
<path d="M195.797 192.745L240.719 166.688C242.016 165.906 243.776 166.089 245.62 167.151L200.698 193.208C198.859 192.146 197.094 191.99 195.797 192.745Z" fill="#CD1C2E"/>
<path d="M200.698 193.208L245.62 167.151C246.396 167.594 247.172 168.214 247.953 168.964C251.531 172.516 253.401 178.135 252.078 181.5L207.156 207.583C208.479 204.219 206.615 198.573 203.031 195.047C202.255 194.271 201.479 193.677 200.698 193.208Z" fill="#CD1C2E"/>
<path d="M218.151 229.448L263.073 203.391C261.828 204.115 261.047 205.641 261.047 207.818L216.13 233.901C216.13 231.698 216.906 230.172 218.151 229.448Z" fill="#CECDCB"/>
<path d="M218.151 229.448L263.073 203.391C264.318 202.661 266.078 202.766 268 203.88C271.786 206.057 274.875 211.391 274.875 215.771L229.953 241.854C229.953 237.474 226.87 232.141 223.083 229.938C221.135 228.823 219.396 228.719 218.151 229.448Z" fill="#C8761B"/>
<path d="M297.849 223.438C296.604 224.161 295.828 225.688 295.828 227.865L250.911 253.948C250.911 251.771 251.688 250.219 252.932 249.521C266.391 241.698 284.365 231.26 297.849 223.438Z" fill="#CECDCB"/>
<path d="M252.932 249.521L297.849 223.438C299.094 222.714 300.833 222.813 302.776 223.927L257.859 249.984C255.917 248.87 254.177 248.766 252.932 249.521Z" fill="#C8761B"/>
<path d="M257.859 249.984L302.776 223.927C306.562 226.104 309.651 231.438 309.651 235.844L264.734 261.901C264.734 257.521 261.646 252.188 257.859 249.984Z" fill="#C8761B"/>
<path d="M329.104 199.427C331.021 200.542 332.786 200.641 334.031 199.891L289.109 225.974C287.865 226.698 286.104 226.594 284.182 225.484C297.667 217.661 315.641 207.25 329.104 199.427Z" fill="#CECDCB"/>
<path d="M334.031 199.891L289.109 225.974C290.354 225.25 291.109 223.719 291.135 221.547C291.135 217.167 288.047 211.833 284.234 209.63L329.156 183.573C332.969 185.776 336.052 191.109 336.052 195.464C336.052 197.641 335.276 199.167 334.031 199.891Z" fill="#CD1C2E"/>
<path d="M284.234 209.63C288.047 211.833 291.135 217.167 291.135 221.547C291.109 225.922 288.021 227.682 284.182 225.484L49.3177 90.0677C45.5052 87.8698 42.4219 82.5312 42.4479 78.1562C42.4479 73.776 45.5573 72.0156 49.3698 74.2187L284.234 209.63Z" fill="#CD1C2E"/>
<path d="M284.234 209.63L315.432 191.526L94.2396 63.9844L49.3177 90.0677L284.182 225.484L291.135 221.469C291.109 217.115 288.021 211.833 284.234 209.63Z" fill="#CECDCB"/>
<path d="M49.3698 74.2187L94.2917 48.1354L329.156 183.573L284.234 209.63L49.3698 74.2187Z" fill="#CD1C2E"/>
<path d="M28.7031 46.401L73.6198 20.3438L349.927 179.661L305.01 205.719L28.7031 46.401Z" fill="#CECDCB"/>
<path d="M305.01 205.719L349.927 179.661C357.552 184.042 363.724 194.74 363.698 203.49L318.781 229.547C318.807 220.797 312.609 210.125 305.01 205.719Z" fill="#CECDCB"/>
<path d="M305.062 189.87C320.286 198.672 332.656 220.042 332.604 237.526L331.979 451.578C332.005 449.505 331.255 447.021 330.01 444.792C328.688 442.589 326.896 440.698 325.109 439.661L318.182 435.672L318.781 229.547C318.807 220.797 312.609 210.125 305.01 205.719L28.7031 46.401C21.0781 41.9948 14.849 45.5417 14.8229 54.2969L14.2552 260.422L7.32812 256.438C5.54167 255.401 3.75 255.219 2.42708 255.917C1.18229 256.693 0.40625 258.302 0.40625 260.37L1.02604 46.3229C1.07813 28.8385 13.5052 21.7656 28.75 30.5469L305.062 189.87Z" fill="#582690"/>
<path d="M325.109 439.661L318.182 435.672L14.2552 260.422L7.32812 256.438C5.54166 255.401 3.74999 255.219 2.42707 255.917C1.18228 256.693 0.406241 258.302 0.406241 260.37L0.302074 300C0.249991 317.51 12.6458 338.88 27.8437 347.661L131.453 407.391L200.516 447.224L288.333 497.839C292.224 500.094 295.255 498.25 295.255 493.927C295.281 489.552 292.25 484.24 288.359 481.984L27.8958 331.807C20.2708 327.406 14.099 316.682 14.125 307.979L14.2031 276.276L318.156 451.526L318.078 475.328C318.078 479.656 321.167 485.016 324.979 487.219C328.766 489.396 331.875 487.63 331.901 483.281L331.979 451.578C332.005 449.505 331.255 447.021 330.01 444.792C328.688 442.589 326.896 440.698 325.109 439.661Z" fill="#582690"/>
<path d="M200.698 193.208C201.479 193.677 202.255 194.271 203.031 195.047C206.615 198.573 208.479 204.219 207.156 207.583L172.094 298.526C171.057 301.167 168.385 301.661 165.557 300.026C164.781 299.563 164 298.964 163.224 298.214C159.646 294.667 157.776 289.021 159.099 285.677L194.188 194.74C195.203 192.068 197.875 191.578 200.698 193.208Z" fill="#CD1C2E"/>
<path d="M257.859 249.984C261.646 252.188 264.734 257.521 264.734 261.901L264.604 305.495C264.552 320.802 253.63 326.99 240.224 319.245C226.844 311.526 215.974 292.776 216 277.495L216.13 233.901C216.156 229.495 219.245 227.734 223.083 229.938C226.87 232.141 229.953 237.474 229.953 241.854L229.823 285.443C229.797 292.026 234.495 300.078 240.276 303.396C246.057 306.734 250.755 304.094 250.781 297.542L250.911 253.948C250.911 249.547 254.021 247.781 257.859 249.984Z" fill="#C8761B"/>
<path d="M284.078 265.109C287.891 267.312 290.979 272.651 290.979 277.052L290.797 340.458C290.771 344.865 287.682 346.625 283.844 344.422C280.031 342.219 276.974 336.885 276.974 332.51L277.156 269.073C277.156 264.698 280.266 262.911 284.078 265.109Z" fill="#C8761B"/>
<path d="M283.745 384.026L48.8802 248.615C45.0677 246.411 41.9531 248.198 41.9531 252.578C41.9271 256.953 45.0156 262.26 48.8281 264.464L283.693 399.906C287.531 402.104 290.615 400.318 290.641 395.969C290.641 391.563 287.552 386.255 283.745 384.026Z" fill="#CD1C2E"/>
<path d="M289.552 391.099C289.344 390.578 289.109 390.063 288.823 389.568C288.62 389.156 288.385 388.766 288.125 388.38C287.891 388.016 287.63 387.651 287.349 387.318C287.141 387.031 286.932 386.771 286.724 386.536C286.516 386.307 286.307 386.099 286.104 385.891C285.896 385.682 285.688 385.505 285.479 385.323C284.938 384.828 284.339 384.391 283.745 384.026L62.5469 256.51L48.8281 264.464L283.693 399.906L290.615 395.865C290.615 395.063 290.51 394.255 290.328 393.427C290.146 392.651 289.891 391.849 289.552 391.099ZM158.891 290.182C158.891 290.135 158.865 290.109 158.865 290.057C158.917 290.365 158.995 290.703 159.073 291.016C158.995 290.729 158.943 290.469 158.891 290.182ZM159.438 292.177C159.307 291.792 159.177 291.401 159.073 291.016C159.203 291.453 159.333 291.896 159.49 292.333C159.49 292.281 159.464 292.229 159.438 292.177ZM161.693 296.427C161.667 296.375 161.615 296.323 161.562 296.245C161.901 296.688 162.214 297.099 162.573 297.516C162.266 297.177 161.979 296.792 161.693 296.427ZM166.182 300.339C166 300.234 165.792 300.13 165.583 300.026C165.583 300.026 165.583 300.026 165.557 300.026C165.766 300.13 165.974 300.234 166.182 300.339ZM166.828 300.599C166.672 300.547 166.516 300.495 166.385 300.417C166.385 300.417 166.385 300.417 166.359 300.417C166.516 300.495 166.672 300.547 166.828 300.599ZM167.01 300.677C167.036 300.677 167.089 300.703 167.141 300.703C167.089 300.703 167.063 300.677 167.01 300.677ZM168.359 300.932H168.333C168.438 300.958 168.516 300.958 168.594 300.958C168.516 300.958 168.438 300.958 168.359 300.932Z" fill="#CECDCB"/>
<path d="M9.09375 28.6563L54.0104 2.57293C59.0417 -0.354158 65.9948 0.0625086 73.6719 4.48959L28.75 30.5469C21.0781 26.1458 14.125 25.7292 9.09375 28.6563Z" fill="#582690"/>
<path d="M374.797 461.625L329.88 487.682C331.125 486.958 331.901 485.432 331.901 483.281L376.823 457.198C376.823 459.375 376.042 460.901 374.797 461.625Z" fill="#582690"/>
<path d="M28.75 30.5469L73.6719 4.48959L349.979 163.813L305.062 189.87L28.75 30.5469Z" fill="#582690"/>
<mask id="mask6_1_2" style="mask-type:luminance" maskUnits="userSpaceOnUse" x="305" y="163" width="73" height="75">
<path d="M305 163H377.547V237.667H305V163Z" fill="white"/>
</mask>
<g mask="url(#mask6_1_2)">
<path d="M305.062 189.87L349.979 163.812C365.203 172.594 377.573 193.958 377.521 211.443L332.604 237.526C332.656 220.042 320.286 198.672 305.062 189.87Z" fill="#582690"/>
</g>
<path d="M186.875 438.964L186.823 454.818L145.38 430.906L145.432 415.057L186.875 438.964Z" fill="white"/>
<path d="M186.875 438.964L200.698 446.943L200.62 470.719C200.62 475.099 197.51 476.859 193.698 474.656L138.432 442.797C134.62 440.594 131.531 435.26 131.557 430.906L131.583 422.958L131.609 407.104L145.432 415.057L145.38 430.906L186.823 454.818L186.875 438.964Z" fill="#7C3EA3"/>
<path d="M228.266 478.724C232.078 480.922 235.167 486.234 235.167 490.635C235.141 494.99 232.026 496.776 228.24 494.573L103.885 422.88C100.073 420.677 96.9844 415.344 97.0104 410.964C97.0104 406.589 100.125 404.823 103.938 407.026L131.583 422.958L131.557 430.906C131.531 435.26 134.62 440.594 138.432 442.797L193.698 474.656C197.51 476.859 200.62 475.099 200.62 470.719L200.646 462.792L228.266 478.724Z" fill="#7C3EA3"/>
<path d="M173.208 383.432C176.995 385.63 180.083 390.969 180.083 395.344C180.057 399.724 176.969 401.484 173.156 399.281L159.333 391.328C155.521 389.13 152.438 383.792 152.438 379.417C152.458 375.036 155.547 373.25 159.385 375.479L173.208 383.432Z" fill="#7C3EA3"/>
<path d="M84.125 149.438C87.9635 151.635 91.0208 156.974 91.0208 161.349L90.8906 204.943C90.8646 220.25 79.9219 226.443 66.5417 218.724C53.1302 211.005 42.2656 192.224 42.3177 176.943L42.4219 133.349C42.4479 128.948 45.5573 127.188 49.3437 129.385C53.1823 131.589 56.2708 136.927 56.2448 141.302L56.1146 184.922C56.1146 191.474 60.8073 199.531 66.5677 202.844C72.349 206.188 77.0677 203.542 77.0938 196.99L77.1979 153.396C77.224 148.995 80.3125 147.234 84.125 149.438Z" fill="#5EB4E8"/>
<path d="M124.193 204.656C126.682 206.083 129.172 208.88 130.365 212.219L131.922 216.703L144.187 251.953C145.875 256.875 144.474 260.839 141.073 260.839C140.062 260.839 139 260.5 137.964 259.906C135.448 258.427 133.01 255.427 131.818 251.979L124.141 229.859L116.333 243.042C115.115 245.115 112.677 245.323 110.135 243.875C109.125 243.276 108.062 242.37 107.047 241.203C103.651 237.292 102.302 231.724 104.016 228.797L116.437 207.766L117.995 205.099C119.187 203.104 121.703 203.208 124.193 204.656Z" fill="#5EB4E8"/>
<mask id="mask7_1_2" style="mask-type:luminance" maskUnits="userSpaceOnUse" x="307" y="492" width="17" height="19">
<path d="M307.667 492.333H323.667V510.609H307.667V492.333Z" fill="white"/>
</mask>
<g mask="url(#mask7_1_2)">
<path d="M320.672 499.057C320.906 499.521 321.141 499.964 321.349 500.453C323.396 505.323 322.49 509.703 319.219 510.271C318.13 510.427 316.833 510.089 315.51 509.313C313.151 507.964 310.948 505.349 309.703 502.344C309.521 501.854 309.339 501.385 309.182 500.896C308.641 499.083 308.484 497.318 308.745 495.818C309.182 494.109 310.224 492.865 311.75 492.63L311.828 492.578C312.917 492.401 314.187 492.76 315.458 493.484C317.406 494.599 319.323 496.62 320.672 499.057Z" fill="#7C3EA3"/>
</g>
<path d="M138.198 180.62C139.234 181.219 140.297 182.099 141.307 183.26C144.682 187.172 146.057 192.745 144.344 195.698L131.922 216.703L130.365 212.219C129.172 208.88 126.682 206.083 124.193 204.656C121.703 203.208 119.187 203.104 117.995 205.099L116.437 207.766L104.172 172.516C102.484 167.62 103.859 163.63 107.255 163.63C108.266 163.63 109.333 163.969 110.396 164.589C112.911 166.036 115.323 169.042 116.542 172.49L124.219 194.609L132.026 181.422C133.219 179.354 135.656 179.146 138.198 180.62Z" fill="#5EB4E8"/>
<path d="M173.156 399.281C176.969 401.484 180.057 399.724 180.083 395.344C180.083 390.969 176.995 385.63 173.208 383.432L159.385 375.479C155.547 373.25 152.458 375.036 152.438 379.417C152.438 383.792 155.521 389.13 159.333 391.328L173.156 399.281ZM318.234 475.021C318.208 479.344 321.323 484.734 325.135 486.906C325.109 492.448 323.448 496.62 320.672 499.057C319.323 496.62 317.406 494.599 315.458 493.484C314.188 492.76 312.917 492.401 311.828 492.578C310.224 492.865 309.182 494.109 308.745 495.818C308.484 497.318 308.641 499.083 309.182 500.896C307.63 500.427 305.995 499.729 304.333 498.745L295.411 493.615C295.411 489.266 292.406 483.927 288.542 481.703L28.026 331.5C20.4531 327.12 14.2292 316.37 14.2552 307.667L14.3594 275.964L318.286 451.214L318.234 475.021Z" fill="#D2B0DD"/>
<path d="M290.927 340.151L291.109 276.74C291.135 272.339 288.047 267.005 284.234 264.828C280.422 262.625 277.313 264.385 277.313 268.766L277.13 332.198C277.104 336.573 280.188 341.911 284 344.109C287.813 346.313 290.927 344.552 290.927 340.151ZM104.172 172.516L116.438 207.766L104.016 228.797C102.302 231.724 103.651 237.292 107.047 241.203C108.062 242.37 109.125 243.276 110.135 243.875C112.677 245.323 115.115 245.115 116.333 243.042L124.141 229.859L131.818 251.979C133.01 255.427 135.448 258.427 137.964 259.906C139 260.5 140.062 260.839 141.073 260.839C144.474 260.839 145.875 256.875 144.188 251.953L131.922 216.703L144.344 195.698C146.057 192.745 144.682 187.172 141.307 183.26C140.297 182.099 139.234 181.219 138.198 180.62C135.656 179.146 133.219 179.354 132.026 181.422L124.219 194.609L116.542 172.49C115.323 169.042 112.911 166.036 110.396 164.589C109.333 163.969 108.266 163.63 107.255 163.63C103.859 163.63 102.484 167.62 104.172 172.516ZM42.4219 133.349L42.3177 176.943C42.2656 192.224 53.1302 211.005 66.5417 218.724C79.9219 226.443 90.8646 220.25 90.8906 204.943L91.0208 161.349C91.0208 156.974 87.9635 151.635 84.125 149.438C80.3125 147.234 77.224 148.995 77.1979 153.396L77.0937 196.99C77.0677 203.542 72.349 206.188 66.5677 202.844C60.8073 199.531 56.1146 191.474 56.1146 184.922L56.2448 141.302C56.2708 136.927 53.1823 131.589 49.3437 129.385C45.5573 127.188 42.4479 128.948 42.4219 133.349ZM240.432 303.109C234.646 299.771 229.953 291.714 229.979 285.135L230.083 241.542C230.109 237.167 227.021 231.828 223.208 229.625C219.396 227.427 216.286 229.188 216.286 233.589L216.156 277.182C216.104 292.464 226.969 311.245 240.406 318.964C253.786 326.682 264.708 320.49 264.734 305.208L264.859 261.589C264.885 257.214 261.802 251.875 257.99 249.677C254.177 247.474 251.062 249.234 251.062 253.635L250.932 297.229C250.911 303.781 246.214 306.453 240.432 303.109ZM284.365 225.198C288.151 227.401 291.266 225.615 291.266 221.234C291.292 216.859 288.203 211.521 284.391 209.344L49.526 73.9063C45.7135 71.7031 42.599 73.4636 42.599 77.8438C42.5781 82.2188 45.6615 87.5573 49.474 89.7604L284.365 225.198ZM283.844 399.594C287.656 401.797 290.771 400.031 290.771 395.656C290.797 391.281 287.708 385.943 283.896 383.74L49.0052 248.302C45.2187 246.125 42.1094 247.885 42.0833 252.266C42.0833 256.641 45.1667 261.979 48.9792 264.151L283.844 399.594ZM159.255 285.365C157.958 288.734 159.802 294.354 163.406 297.901C164.156 298.682 164.938 299.276 165.714 299.719C168.568 301.349 171.214 300.88 172.25 298.214L207.312 207.276C208.609 203.906 206.766 198.286 203.188 194.74C202.411 193.984 201.635 193.365 200.854 192.922C198.026 191.292 195.359 191.786 194.344 194.427L159.255 285.365ZM305.167 205.432C312.786 209.839 318.964 220.484 318.938 229.266L318.339 435.365L14.4115 260.115L14.9792 53.9896C15.0052 45.2344 21.2031 41.7083 28.8542 46.0886L305.167 205.432Z" fill="white"/>
<path d="M283.896 383.74C287.708 385.943 290.797 391.281 290.771 395.656C290.771 400.031 287.656 401.797 283.844 399.594L48.9792 264.151C45.1667 261.979 42.0833 256.641 42.0833 252.266C42.1094 247.885 45.2187 246.125 49.0052 248.302L283.896 383.74Z" fill="#EE275C"/>
<path d="M330.167 444.479C331.385 446.708 332.135 449.193 332.135 451.266L332.031 482.969C332.031 487.323 328.896 489.109 325.135 486.906C321.323 484.734 318.208 479.344 318.234 475.021L318.286 451.214L14.3594 275.964L14.2552 307.667C14.2292 316.37 20.4531 327.12 28.026 331.5L288.542 481.703C292.406 483.927 295.411 489.266 295.411 493.615C295.385 497.969 292.354 499.781 288.49 497.552L200.698 446.943L27.9739 347.349C12.8021 338.594 0.406241 317.224 0.458324 299.719L0.562491 260.089C0.562491 257.99 1.31249 256.385 2.58332 255.604C3.90624 254.906 5.69791 255.089 7.48437 256.125L14.4114 260.115L318.339 435.365L325.266 439.354C327.052 440.391 328.844 442.281 330.167 444.479Z" fill="#7C3EA3"/>
<path d="M200.854 192.922C201.635 193.365 202.411 193.984 203.188 194.74C206.766 198.286 208.609 203.906 207.313 207.276L172.25 298.214C171.214 300.88 168.568 301.349 165.714 299.719C164.938 299.276 164.156 298.682 163.406 297.901C159.802 294.354 157.958 288.734 159.255 285.365L194.344 194.427C195.359 191.786 198.026 191.292 200.854 192.922Z" fill="#EE275C"/>
<path d="M257.99 249.677C261.802 251.875 264.885 257.214 264.859 261.589L264.734 305.208C264.708 320.49 253.786 326.682 240.406 318.964C226.969 311.245 216.104 292.464 216.156 277.182L216.286 233.589C216.286 229.188 219.396 227.427 223.208 229.625C227.021 231.828 230.109 237.167 230.083 241.542L229.979 285.135C229.953 291.714 234.646 299.771 240.432 303.109C246.214 306.453 250.911 303.781 250.932 297.229L251.063 253.635C251.063 249.234 254.177 247.474 257.99 249.677Z" fill="#F9A813"/>
<path d="M284.234 264.828C288.047 267.005 291.135 272.339 291.109 276.74L290.927 340.151C290.927 344.552 287.812 346.313 284 344.109C280.187 341.911 277.104 336.573 277.13 332.198L277.312 268.766C277.312 264.385 280.422 262.625 284.234 264.828Z" fill="#F9A813"/>
<path d="M284.391 209.344C288.203 211.521 291.292 216.859 291.266 221.234C291.266 225.615 288.151 227.401 284.365 225.198L49.474 89.7604C45.6615 87.5573 42.5781 82.2187 42.599 77.8437C42.599 73.4635 45.7135 71.7031 49.526 73.9062L284.391 209.344Z" fill="#EE275C"/>
<path d="M305.193 189.583C320.438 198.365 332.786 219.734 332.734 237.214L332.135 451.266C332.135 449.193 331.385 446.708 330.167 444.479C328.844 442.281 327.052 440.391 325.266 439.354L318.339 435.365L318.938 229.266C318.964 220.484 312.786 209.839 305.167 205.432L28.8542 46.0885C21.2031 41.7083 15.0052 45.2344 14.9792 53.9896L14.4115 260.115L7.48438 256.125C5.69792 255.089 3.90625 254.906 2.58333 255.604C1.3125 256.385 0.5625 257.99 0.5625 260.089L1.15625 46.0364C1.20833 28.526 13.6563 21.4531 28.8802 30.2604L305.193 189.583Z" fill="#7C3EA3"/>
</svg>
