<?xml version="1.0" encoding="UTF-8"?>
<svg viewBox="0 0 550 480" xmlns="http://www.w3.org/2000/svg" xmlns:xlink="http://www.w3.org/1999/xlink">
 <defs>
  <linearGradient id="g" x1=".72887" x2=".35916" y1="-.060345" y2=".27586" xlink:href="#a"/>
  <linearGradient id="f" x1=".42241" x2=".37791" y1="-.3512" y2=".58955" xlink:href="#a"/>
  <linearGradient id="a">
   <stop stop-color="#fff" offset="0"/>
   <stop stop-color="#fff" stop-opacity="0" offset="1"/>
  </linearGradient>
  <radialGradient id="h" cx=".50704" cy=".57042" r=".581" fx=".54578" fy=".13028">
   <stop stop-color="#e3f9ff" offset="0"/>
   <stop stop-color="#73bee7" offset=".36195"/>
   <stop stop-color="#438ec5" offset=".62535"/>
   <stop stop-color="#477daf" offset=".72607"/>
   <stop stop-color="#020407" offset="1"/>
  </radialGradient>
  <radialGradient id="i">
   <stop stop-opacity=".678" offset="0"/>
   <stop stop-opacity=".329" offset=".57"/>
   <stop stop-opacity="0" offset="1"/>
  </radialGradient>
 </defs>
 <g fill-rule="evenodd" stroke-width="1.25">
  <path d="m15.834 379.58c-0.04903-48.778 115.42-88.329 257.88-88.329s257.93 39.551 257.88 88.329c0.049316 48.778-115.42 88.329-257.88 88.329s-257.93-39.551-257.88-88.329z" fill="url(#i)"/>
  <path d="m56.393 222.41c0-115.79 98.112-209.65 219.14-209.65s219.14 93.864 219.14 209.65-98.112 209.65-219.14 209.65-219.14-93.864-219.14-209.65z" fill="url(#h)"/>
  <path d="m314.19 352.9c-28.885-3.2121-29.172-49.98-0.47443-53.766 18.03 9.7064 34.779-31.252 43.978-14.911-7.5988 30.959 33.685 23.947 41.57 0.16714 11.724-19.189 5.8497 16.575 10.345 24.185 10.493 24.653-21.987 59.103-45.933 38.258-17.125-14.556-32.837 0.91873-49.486 6.0661zm60.423 17.026c2.8954 10.705 8.7849 11.668 12.629 0.38144 3.8443-10.692-10.599-8.7078-12.629-0.38144zm-218.67-259.26c-23.862 22.62-30.915 55.272-38.85 85.274 5.8935 21.173 23.675 42.743 3.1948 62.084-13.093 27.222-55.236 10.094-44.735-17.59-0.53194-32.795-4.7289-67.529 11.744-97.721 9.0234-19.197 26.102-42.305 50.764-40.108 6.5084 1.3839 12.284 4.7405 17.882 8.0608zm52.75 75.699c-1.6928-26.313 28.346-24.061 21.572-55.495-1.154-26.673-59.332-13.384-42.292-45.2 15.861-23.78 13.97-35.986 53.676-42.122 39.706-7.8187 82.187-16.962 148.97 30.164 65.028 47.126-54.084 9.7549-68.366 27.049-22.935 18.483-12.597 58.94-39.35 67.429-23.121 14.179-21.281 43.495-25.142 66.471 4.6007 18.829 65.501 5.4601 37.024 31.292-28.956 7.0288-48.367-20.862-68.5-35.573-10.199-9.2263-15.902-19.383-17.595-44.014zm200.45-38.69c24.591-1.5076 34.681 25.486 32.516 45.076-13.398 21.372 16.092 41.277 30.668 19.316 15.714-26.556-9.9189-59.786-33.918-73.85-10.613-8.9942-31.52-7.7667-29.266 9.4583zm-242.65 225.41c30.891-0.44626 62.07-7.156 92.771-0.98294 11.977 15.398 45.749 26.165 46.2 42.262-23.843 15.949-54.807 0.96982-79.707-5.2112-19.77-5.7343-47.865-1.7556-58.08-23.02-1.4393-4.1657-2.1874-8.6965-1.1836-13.049z" fill="#0e7a0c" fill-opacity=".594"/>
  <path d="m331.04 43.953c-95.922-55.928-291.07 26.806-262.46 182.64 38.739 49.415 108.89-203.25 262.46-182.64z" fill="url(#g)"/>
  <path d="m114.45 118.99c-0.042465-55.956 70.46-101.33 157.44-101.33 86.984 0 157.49 45.376 157.44 101.33 0.04248 55.956-70.46 101.33-157.44 101.33-86.983 0-157.49-45.376-157.44-101.33z" fill="url(#f)"/>
 </g>
</svg>
