<svg width="512" height="476" viewBox="0 0 512 476" fill="none" xmlns="http://www.w3.org/2000/svg">
<path d="M265.297 460.932C138.583 460.932 35.8646 447.151 35.8646 430.146C35.8646 413.141 138.583 399.349 265.297 399.349C392.005 399.349 494.724 413.141 494.724 430.146C494.724 447.151 392.005 460.932 265.297 460.932Z" fill="#D3D2D2"/>
<path d="M415 322.323C415 330.339 408.51 336.839 400.505 336.839H130.432C122.422 336.839 115.932 330.339 115.932 322.323V147.281C115.932 139.271 122.422 132.766 130.432 132.766H400.505C408.51 132.766 415 139.271 415 147.281V322.323Z" fill="#29242C"/>
<path d="M71.6823 406.292V419.526C71.6823 427.542 80.0885 434.042 90.4531 434.042H440.135C450.5 434.042 458.906 427.542 458.906 419.526V406.292H71.6823Z" fill="#130F11"/>
<path d="M406.797 315.255C406.797 322.151 400.656 327.74 393.094 327.74H137.844C130.276 327.74 124.141 322.151 124.141 315.255V166.036C124.141 159.141 130.276 153.552 137.844 153.552H393.094C400.656 153.552 406.797 159.141 406.797 166.036V315.255Z" fill="#65BED9"/>
<path d="M185.958 346.521H145.865V338.839H185.958V346.521Z" fill="#130F11"/>
<path d="M388.115 346.521H348.021V338.839H388.115V346.521Z" fill="#130F11"/>
<path d="M71.6823 406.292H458.906L415.083 346.521H116.016L71.6823 406.292Z" fill="#29242C"/>
<path d="M220.292 400.031H310.641L300.417 386.089H230.635L220.292 400.031Z" fill="#130F11"/>
<path d="M270.729 145.307C270.729 148.219 268.375 150.578 265.464 150.578C262.557 150.578 260.198 148.219 260.198 145.307C260.198 142.401 262.557 140.036 265.464 140.036C268.375 140.036 270.729 142.401 270.729 145.307Z" fill="#130F11"/>
<path d="M227.984 200.214V219.214C229.063 219.214 229.734 218.99 229.979 218.557C230.234 218.12 230.354 216.943 230.354 215.016V203.797C230.354 202.49 230.313 201.651 230.234 201.286C230.146 200.911 229.958 200.646 229.656 200.474C229.365 200.297 228.807 200.214 227.984 200.214ZM220.484 195.276H226.099C229.724 195.276 232.167 195.443 233.448 195.776C234.724 196.104 235.693 196.656 236.359 197.417C237.021 198.177 237.438 199.026 237.604 199.953C237.771 200.891 237.854 202.719 237.854 205.458V215.568C237.854 218.161 237.734 219.896 237.49 220.771C237.25 221.641 236.823 222.323 236.219 222.818C235.615 223.313 234.859 223.656 233.974 223.849C233.083 224.052 231.74 224.151 229.948 224.151H220.484V195.276Z" fill="white"/>
<path d="M248.156 195.276V224.151H240.651V195.276H248.156Z" fill="white"/>
<path d="M268.375 205.906H260.88V203.281C260.88 201.63 260.807 200.594 260.661 200.182C260.521 199.766 260.177 199.557 259.646 199.557C259.182 199.557 258.87 199.734 258.703 200.089C258.536 200.443 258.453 201.359 258.453 202.833V216.693C258.453 217.99 258.536 218.844 258.703 219.255C258.87 219.667 259.198 219.87 259.698 219.87C260.245 219.87 260.615 219.635 260.818 219.172C261.01 218.714 261.109 217.807 261.109 216.464V213.042H259.594V208.656H268.375V224.151H263.661L262.969 222.083C262.458 222.974 261.813 223.641 261.036 224.089C260.255 224.536 259.339 224.755 258.281 224.755C257.016 224.755 255.839 224.448 254.74 223.833C253.641 223.224 252.802 222.469 252.234 221.568C251.661 220.661 251.313 219.714 251.167 218.719C251.021 217.729 250.953 216.234 250.953 214.25V205.672C250.953 202.917 251.099 200.906 251.401 199.661C251.693 198.411 252.547 197.271 253.958 196.229C255.359 195.182 257.182 194.667 259.417 194.667C261.609 194.667 263.438 195.12 264.88 196.021C266.333 196.927 267.281 197.995 267.719 199.24C268.156 200.484 268.375 202.292 268.375 204.656V205.906Z" fill="white"/>
<path d="M278.786 195.276V224.151H271.276V195.276H278.786Z" fill="white"/>
<path d="M296.901 195.276V201.057H292.448V224.151H284.943V201.057H280.51V195.276H296.901Z" fill="white"/>
<path d="M306.146 213.839C305.766 210.573 305.38 206.526 304.995 201.708C304.234 207.245 303.755 211.286 303.562 213.839H306.146ZM310.115 195.276L314.406 224.151H306.745L306.339 218.958H303.656L303.203 224.151H295.448L299.276 195.276H310.115Z" fill="white"/>
<path d="M323.182 195.276V218.37H327.745V224.151H315.682V195.276H323.182Z" fill="white"/>
<path d="M184.839 228.599V269.109H175.641L175.63 241.76L171.969 269.109H165.443L161.578 242.38L161.568 269.109H152.37V228.599H165.99C166.391 231.031 166.807 233.901 167.234 237.208L168.729 247.516L171.146 228.599H184.839Z" fill="white"/>
<path d="M201.677 254.646C201.146 250.057 200.609 244.385 200.073 237.63C199 245.385 198.328 251.057 198.052 254.646H201.677ZM207.255 228.599L213.271 269.109H202.521L201.953 261.828H198.193L197.552 269.109H186.677L192.047 228.599H207.255Z" fill="white"/>
<path d="M225.589 235.526V244.542C226.771 244.542 227.594 244.375 228.068 244.052C228.547 243.724 228.786 242.667 228.786 240.885V238.651C228.786 237.375 228.552 236.531 228.094 236.125C227.641 235.729 226.802 235.526 225.589 235.526ZM215.062 228.599H222.51C227.474 228.599 230.839 228.792 232.599 229.172C234.354 229.552 235.786 230.531 236.896 232.115C238 233.693 238.557 236.203 238.557 239.656C238.557 242.812 238.167 244.927 237.385 246.016C236.604 247.099 235.063 247.75 232.76 247.969C234.839 248.484 236.245 249.172 236.958 250.042C237.677 250.906 238.12 251.708 238.297 252.427C238.469 253.156 238.557 255.156 238.557 258.427V269.109H228.786V255.651C228.786 253.479 228.609 252.135 228.276 251.615C227.932 251.099 227.031 250.844 225.589 250.844V269.109H215.062V228.599Z" fill="white"/>
<path d="M267.719 228.599L261.677 246.891L268.297 269.109H257.417L253.156 251.745V269.109H242.635V228.599H253.156V244.333L257.844 228.599H267.719Z" fill="white"/>
<path d="M270.104 228.599H287.651V236.703H280.63V244.385H287.203V252.089H280.63V261H288.354V269.109H270.104V228.599Z" fill="white"/>
<path d="M311.896 228.599V236.703H305.651V269.109H295.13V236.703H288.901V228.599H311.896Z" fill="white"/>
<path d="M324.823 228.599V269.109H314.297V228.599H324.823Z" fill="white"/>
<path d="M352.547 228.599V269.109H343.318L337.849 250.693V269.109H329.047V228.599H337.849L343.745 246.839V228.599H352.547Z" fill="white"/>
<path d="M380.911 243.51H370.391V239.833C370.391 237.516 370.292 236.063 370.094 235.479C369.896 234.896 369.417 234.604 368.667 234.604C368.016 234.604 367.573 234.849 367.344 235.349C367.109 235.854 366.995 237.135 366.995 239.208V258.651C366.995 260.469 367.109 261.661 367.344 262.245C367.573 262.813 368.042 263.099 368.74 263.099C369.51 263.099 370.031 262.776 370.302 262.125C370.583 261.474 370.719 260.208 370.719 258.328V253.521H368.594V247.365H380.911V269.109H374.302L373.328 266.208C372.615 267.458 371.708 268.401 370.615 269.021C369.526 269.646 368.234 269.958 366.755 269.958C364.979 269.958 363.328 269.531 361.781 268.667C360.24 267.807 359.073 266.745 358.266 265.479C357.469 264.214 356.969 262.88 356.771 261.49C356.568 260.099 356.469 258.01 356.469 255.224V243.188C356.469 239.318 356.677 236.505 357.094 234.755C357.51 233 358.703 231.396 360.682 229.938C362.656 228.479 365.214 227.75 368.344 227.75C371.422 227.75 373.984 228.38 376.016 229.651C378.047 230.917 379.375 232.417 379.995 234.161C380.609 235.911 380.911 238.438 380.911 241.76V243.51Z" fill="white"/>
<mask id="mask0_1_238" style="mask-type:luminance" maskUnits="userSpaceOnUse" x="402" y="367" width="110" height="109">
<path d="M402.667 367.333H511.484V475.609H402.667V367.333Z" fill="white"/>
</mask>
<g mask="url(#mask0_1_238)">
<path d="M510.906 454.839C510.906 466.307 501.615 475.609 490.156 475.609H423.865C412.401 475.609 403.12 466.307 403.12 454.839V388.479C403.12 377.01 412.401 367.708 423.865 367.708H490.156C501.615 367.708 510.906 377.01 510.906 388.479V454.839Z" fill="#E37C10"/>
</g>
<path d="M502.578 446.641C502.578 456.344 494.724 464.203 485.036 464.203H428.99C419.292 464.203 411.438 456.344 411.438 446.641V390.531C411.438 380.833 419.292 372.969 428.99 372.969H485.036C494.724 372.969 502.578 380.833 502.578 390.531V446.641Z" fill="#F68712"/>
<path d="M436.323 367.708V341.703C436.323 335.75 439.974 330.927 444.474 330.927H470.495C474.995 330.927 478.641 335.75 478.641 341.703V367.708H492.865V329.693C492.865 322.161 486.766 316.052 479.24 316.052H435.719C428.198 316.052 422.104 322.161 422.104 329.693V367.708H436.323Z" fill="#D3D2D2"/>
<path d="M467.667 412.589C467.667 418.479 462.896 423.26 457.01 423.26C451.125 423.26 446.354 418.479 446.354 412.589C446.354 406.703 451.125 401.922 457.01 401.922C462.896 401.922 467.667 406.703 467.667 412.589Z" fill="#C44415"/>
<path d="M464.474 441.396H449.552L453.813 412.589H460.208L464.474 441.396Z" fill="#C44415"/>
<path d="M42.2448 327.818L53.5104 271.635L8.01562 225.089L115.932 200.432V293.844L70.9896 284.828L91.4323 288.932L42.2448 327.818Z" fill="#BDBCBD"/>
<path d="M124.141 295.484L115.932 293.844V200.432L124.141 198.562V295.484Z" fill="#201B21"/>
<path d="M140.578 298.786L124.141 295.484V198.562L176.911 186.505L163.292 228.599H152.37V262.359L140.578 298.786Z" fill="#4B8CA0"/>
<path d="M152.37 262.359V228.599H163.292L152.37 262.359Z" fill="#BDBCBD"/>
<mask id="mask1_1_238" style="mask-type:luminance" maskUnits="userSpaceOnUse" x="0" y="184" width="174" height="77">
<path d="M0.515625 184.667H173.333V260.667H0.515625V184.667Z" fill="white"/>
</mask>
<g mask="url(#mask1_1_238)">
<path d="M172.734 185.786L1.09375 213.146L46.5938 259.693L172.734 185.786Z" fill="#F89E18"/>
</g>
<path d="M172.734 185.786L64.0729 272.88L35.3281 315.875L46.5938 259.693L172.734 185.786Z" fill="#F46D1E"/>
<path d="M84.5156 276.984L64.0729 272.88L35.3281 315.875L84.5156 276.984Z" fill="#C55718"/>
<path d="M172.734 185.786L133.661 286.839L64.0729 272.88L172.734 185.786Z" fill="#F89E18"/>
<path d="M233.135 52.75C233.135 78.6927 212.125 99.7188 186.214 99.7188C160.297 99.7188 139.292 78.6927 139.292 52.75C139.292 26.8021 160.297 5.77604 186.214 5.77604C212.125 5.77604 233.135 26.8021 233.135 52.75Z" fill="#EF303F"/>
<path d="M462.057 114.266C462.057 140.208 441.057 161.234 415.135 161.234C389.224 161.234 368.214 140.208 368.214 114.266C368.214 88.3281 389.224 67.2969 415.135 67.2969C441.057 67.2969 462.057 88.3281 462.057 114.266Z" fill="#80CC28"/>
<mask id="mask2_1_238" style="mask-type:luminance" maskUnits="userSpaceOnUse" x="269" y="0" width="97" height="96">
<path d="M269.333 0.567703H365.333V95.3333H269.333V0.567703Z" fill="white"/>
</mask>
<g mask="url(#mask2_1_238)">
<path d="M364.495 47.5365C364.495 73.474 343.484 94.5104 317.568 94.5104C291.656 94.5104 270.651 73.474 270.651 47.5365C270.651 21.5937 291.656 0.567703 317.568 0.567703C343.484 0.567703 364.495 21.5937 364.495 47.5365Z" fill="#347EAB"/>
</g>
<path d="M193.026 48.6094C194.422 50.2083 194.109 52.7656 192.328 54.3229C190.547 55.8802 187.974 55.8437 186.583 54.25C185.187 52.6458 185.495 50.0937 187.276 48.5365C189.052 46.9792 191.625 47.0156 193.026 48.6094Z" fill="white"/>
<path d="M197.495 54.2604C198.437 51.276 197.885 48.1875 195.932 45.9479C194.078 43.8229 191.229 42.8437 188.276 43.2448C188.13 42.2396 187.927 41.2812 187.781 40.1406C191.896 39.4583 195.896 40.776 198.479 43.7344C201.146 46.7865 201.875 51.0312 200.505 55.1094C199.526 54.8854 198.568 54.5885 197.495 54.2604Z" fill="white"/>
<path d="M204.188 56.3958L201.281 55.3229C203.38 50.8333 202.833 45.9115 199.849 42.5C196.979 39.2083 192.359 37.9687 187.776 39.2396L187.214 36.1719C192.974 34.5781 198.786 36.1406 202.396 40.276C206.146 44.5729 206.828 50.7448 204.188 56.3958Z" fill="white"/>
<path d="M179.906 38.2083L175.75 41.8437L163.516 27.8281L167.672 24.1979L179.906 38.2083Z" fill="white"/>
<path d="M173.021 44.3698C174.208 43.3281 175.141 42.5156 175.141 42.5156L162.839 28.4219C162.839 28.4219 155.797 36.0469 158.714 44.2552C161.568 52.2865 166.583 59.3542 172.724 66.3854C178.859 73.4167 185.188 79.3385 192.755 83.2448C200.495 87.2396 208.979 81.276 208.979 81.276L196.682 67.1875C196.682 67.1875 195.745 68.0052 194.563 69.0417C192.609 70.7448 190.49 69.4635 187.604 67.0677C185.547 65.3698 180.193 59.4427 180.188 59.4427C180.135 59.3854 175.453 53.8021 174.042 51.5365C172.063 48.349 171.068 46.0729 173.021 44.3698Z" fill="white"/>
<path d="M201.578 63.0365L197.422 66.6719L209.656 80.6875L213.813 77.0521L201.578 63.0365Z" fill="white"/>
<path d="M433.396 109.99C433.396 110.531 432.958 110.969 432.422 110.969H426.708C426.172 110.969 425.734 110.531 425.734 109.99V104.276C425.734 103.734 426.172 103.297 426.708 103.297H432.422C432.958 103.297 433.396 103.734 433.396 104.276V109.99ZM433.396 119.104C433.396 119.641 432.958 120.078 432.422 120.078H426.708C426.172 120.078 425.734 119.641 425.734 119.104V113.385C425.734 112.844 426.172 112.406 426.708 112.406H432.422C432.958 112.406 433.396 112.844 433.396 113.385V119.104ZM433.396 137.281C433.396 137.849 432.958 138.302 432.422 138.302H426.708C426.172 138.302 425.734 137.849 425.734 137.281V122.542C425.734 121.979 426.172 121.521 426.708 121.521H432.422C432.958 121.521 433.396 121.979 433.396 122.542V137.281ZM423.849 109.99C423.849 110.531 423.411 110.969 422.875 110.969H417.161C416.625 110.969 416.187 110.531 416.187 109.99V104.276C416.187 103.734 416.625 103.297 417.161 103.297H422.875C423.411 103.297 423.849 103.734 423.849 104.276V109.99ZM423.849 119.104C423.849 119.641 423.411 120.078 422.875 120.078H417.161C416.625 120.078 416.187 119.641 416.187 119.104V113.385C416.187 112.844 416.625 112.406 417.161 112.406H422.875C423.411 112.406 423.849 112.844 423.849 113.385V119.104ZM423.849 128.214C423.849 128.755 423.411 129.187 422.875 129.187H417.161C416.625 129.187 416.187 128.755 416.187 128.214V122.5C416.187 121.958 416.625 121.521 417.161 121.521H422.875C423.411 121.521 423.849 121.958 423.849 122.5V128.214ZM423.849 137.323C423.849 137.87 423.411 138.302 422.875 138.302H417.161C416.625 138.302 416.187 137.87 416.187 137.323V131.615C416.187 131.073 416.625 130.641 417.161 130.641H422.875C423.411 130.641 423.849 131.073 423.849 131.615V137.323ZM414.302 109.99C414.302 110.531 413.865 110.969 413.328 110.969H407.62C407.078 110.969 406.641 110.531 406.641 109.99V104.276C406.641 103.734 407.078 103.297 407.62 103.297H413.328C413.865 103.297 414.302 103.734 414.302 104.276V109.99ZM414.302 119.104C414.302 119.641 413.865 120.078 413.328 120.078H407.62C407.078 120.078 406.641 119.641 406.641 119.104V113.385C406.641 112.844 407.078 112.406 407.62 112.406H413.328C413.865 112.406 414.302 112.844 414.302 113.385V119.104ZM414.302 128.214C414.302 128.755 413.865 129.187 413.328 129.187H407.62C407.078 129.187 406.641 128.755 406.641 128.214V122.5C406.641 121.958 407.078 121.521 407.62 121.521H413.328C413.865 121.521 414.302 121.958 414.302 122.5V128.214ZM414.302 137.323C414.302 137.87 413.865 138.302 413.328 138.302H407.62C407.078 138.302 406.641 137.87 406.641 137.323V131.615C406.641 131.073 407.078 130.641 407.62 130.641H413.328C413.865 130.641 414.302 131.073 414.302 131.615V137.323ZM404.755 109.99C404.755 110.531 404.318 110.969 403.781 110.969H398.073C397.531 110.969 397.099 110.531 397.099 109.99V104.276C397.099 103.734 397.531 103.297 398.073 103.297H403.781C404.318 103.297 404.755 103.734 404.755 104.276V109.99ZM404.755 119.104C404.755 119.641 404.318 120.078 403.781 120.078H398.073C397.531 120.078 397.099 119.641 397.099 119.104V113.385C397.099 112.844 397.531 112.406 398.073 112.406H403.781C404.318 112.406 404.755 112.844 404.755 113.385V119.104ZM404.755 128.214C404.755 128.755 404.318 129.187 403.781 129.187H398.073C397.531 129.187 397.099 128.755 397.099 128.214V122.5C397.099 121.958 397.531 121.521 398.073 121.521H403.781C404.318 121.521 404.755 121.958 404.755 122.5V128.214ZM404.755 137.323C404.755 137.87 404.318 138.302 403.781 138.302H398.073C397.531 138.302 397.099 137.87 397.099 137.323V131.615C397.099 131.073 397.531 130.641 398.073 130.641H403.781C404.318 130.641 404.755 131.073 404.755 131.615V137.323ZM397.24 85.1979H433.036V97.4635H397.24V85.1979ZM431.255 78.6667H399.026C396.036 78.6667 393.62 81.0937 393.62 84.0833V141.167C393.62 144.156 396.036 146.578 399.026 146.578H431.255C434.245 146.578 436.667 144.156 436.667 141.167V84.0833C436.667 81.0937 434.245 78.6667 431.255 78.6667Z" fill="white"/>
<path d="M135.964 124.849C135.964 150.797 114.953 171.823 89.0417 171.823C63.1198 171.823 42.1198 150.797 42.1198 124.849C42.1198 98.9115 63.1198 77.8802 89.0417 77.8802C114.953 77.8802 135.964 98.9115 135.964 124.849Z" fill="#3D4D57"/>
<path d="M71.5729 144.615C66.901 144.63 63.0885 140.849 63.0729 136.167C63.0573 131.484 66.8333 127.672 71.5104 127.656C76.1875 127.641 79.9896 131.422 80.0104 136.104C80.026 140.786 76.25 144.594 71.5729 144.615ZM93.1979 137.88L93.1875 133.859L87.7187 131.995C87.2865 130.297 86.5937 128.693 85.6823 127.24L88.2239 121.979L85.375 119.146L80.0729 121.766C78.6458 120.917 77.0833 120.271 75.4271 119.875L73.4687 114.266L69.4583 114.281L67.5417 119.906C65.8906 120.312 64.3385 120.964 62.9167 121.828L57.5937 119.255L54.7656 122.104L57.3385 127.349C56.4375 128.802 55.7552 130.406 55.3385 132.115L49.8854 134.021L49.8958 138.036L55.2552 139.865C55.6667 141.656 56.3698 143.339 57.3021 144.859L54.8646 149.917L57.7083 152.745L62.6771 150.302C64.2292 151.281 65.9583 152.005 67.8021 152.432L69.6198 157.63L73.625 157.615L75.401 152.401C77.2396 151.969 78.9583 151.229 80.5104 150.234L85.4948 152.646L88.3229 149.797L85.8489 144.755C86.7656 143.229 87.4635 141.542 87.8542 139.745L93.1979 137.88Z" fill="white"/>
<path d="M94.401 114.5C94.3802 107.536 99.9948 101.875 106.953 101.844C113.906 101.823 119.562 107.448 119.589 114.411C119.615 121.37 113.995 127.036 107.042 127.057C100.089 127.089 94.4271 121.464 94.401 114.5ZM123.307 118.062L128.656 116.198L128.641 112.182L123.172 110.312C122.74 108.609 122.047 107.01 121.13 105.562L123.672 100.302L120.828 97.4687L115.521 100.089C114.094 99.2344 112.536 98.5885 110.88 98.1979L108.922 92.5833L104.911 92.6042L102.995 98.2292C101.344 98.6354 99.7864 99.2865 98.3646 100.146L93.0417 97.5677L90.2187 100.422L92.7917 105.661C91.8906 107.12 91.2135 108.729 90.7917 110.432L85.3385 112.333L85.3542 116.354L90.7135 118.177C91.1198 119.974 91.8229 121.656 92.7552 123.177L90.3177 128.229L93.1614 131.057L98.1302 128.62C99.6875 129.594 101.411 130.323 103.255 130.75L105.068 135.948L109.078 135.932L110.854 130.724C112.693 130.286 114.417 129.542 115.969 128.557L120.948 130.964L123.771 128.115L121.302 123.078C122.224 121.542 122.911 119.859 123.307 118.062Z" fill="white"/>
<path d="M307.755 63.026C304.849 63.026 302.495 65.3802 302.495 68.2917C302.495 71.1979 304.849 73.5573 307.755 73.5573C310.656 73.5573 313.016 71.1979 313.016 68.2917C313.016 65.3802 310.656 63.026 307.755 63.026Z" fill="white"/>
<path d="M334.13 63.026C331.224 63.026 328.87 65.3802 328.87 68.2917C328.87 71.1979 331.224 73.5573 334.13 73.5573C337.031 73.5573 339.391 71.1979 339.391 68.2917C339.391 65.3802 337.031 63.026 334.13 63.026Z" fill="white"/>
<path d="M301.25 32.9375L298.464 41.026L295.875 32.9375H301.25ZM337.281 50.3177H332.417L338.412 32.9375H343.552L337.281 50.3177ZM312.557 50.3177H306.474L312.469 32.9375H318.547L312.557 50.3177ZM329.76 32.9375H335.844L329.849 50.3177H323.771L329.76 32.9375ZM321.203 50.3177H315.125L321.115 32.9375H327.198L321.203 50.3177ZM301.432 50.3177L299.698 44.8854L303.818 32.9375H309.901L303.906 50.3177H301.432ZM302.495 62.4583H339.266V60.5156H304.797L302.37 52.7448H339.266L347.031 30.3854H295.333L293.271 26.0156L288.474 23.151C288.151 22.2031 287.26 21.5156 286.203 21.5156C284.875 21.5156 283.802 22.5937 283.802 23.9167C283.802 25.2448 284.875 26.3177 286.203 26.3177C286.901 26.3177 287.526 26.0156 287.964 25.5417L291.896 28.0208L302.495 62.4583Z" fill="white"/>
</svg>
