<svg xmlns="http://www.w3.org/2000/svg" width="502" height="502" fill="none">
  <path fill="#CFE0E9" d="M370.036 92.1563c-1.442 0-2.911-.2761-4.333-.8594l-83.771-34.5c-5.817-2.4011-8.588-9.0573-6.192-14.875 2.395-5.8177 9.052-8.5938 14.875-6.1979l83.765 34.5c5.818 2.3958 8.594 9.0573 6.198 14.875-1.812 4.401-6.062 7.0573-10.542 7.0573Zm85.178 134.2087c-4.459 0-8.698-2.636-10.521-7.016l-34.839-83.63c-2.422-5.808.328-12.479 6.136-14.901 5.807-2.422 12.479.328 14.901 6.135l34.838 83.636c2.422 5.807-.328 12.479-6.135 14.895-1.433.599-2.917.881-4.38.881Zm-34.688 155.119c-1.448 0-2.917-.276-4.338-.864-5.818-2.396-8.589-9.052-6.193-14.875l34.5-83.766c2.396-5.818 9.052-8.594 14.875-6.198 5.818 2.396 8.594 9.058 6.198 14.875l-34.505 83.771c-1.808 4.396-6.058 7.057-10.537 7.057Zm-134.203 85.172c-4.464 0-8.698-2.64-10.521-7.015-2.417-5.813.328-12.48 6.135-14.901l83.636-34.844c5.807-2.417 12.479.328 14.896 6.14 2.422 5.808-.328 12.48-6.136 14.896l-83.63 34.844c-1.432.594-2.917.88-4.38.88Zm-71.354-.182c-1.448 0-2.917-.276-4.339-.865l-83.765-34.5c-5.823-2.395-8.594-9.057-6.198-14.875 2.395-5.817 9.057-8.593 14.875-6.198l83.765 34.5c5.823 2.402 8.594 9.058 6.198 14.875-1.812 4.402-6.057 7.063-10.536 7.063ZM80.8802 381.396c-4.4635 0-8.6979-2.641-10.5208-7.016l-34.8438-83.635c-2.4218-5.808.3282-12.479 6.1354-14.896 5.8073-2.422 12.4792.323 14.9011 6.135l34.8437 83.631c2.4167 5.807-.3281 12.479-6.1406 14.901-1.4323.593-2.9167.88-4.375.88ZM46.2083 226.411c-1.4427 0-2.9114-.276-4.3333-.859-5.8177-2.401-8.5938-9.057-6.1927-14.875l34.5-83.771c2.3958-5.817 9.0521-8.594 14.875-6.192 5.8177 2.395 8.5885 9.052 6.1927 14.869l-34.5 83.771c-1.8125 4.401-6.0625 7.057-10.5417 7.057ZM131.297 92.3177c-4.464 0-8.698-2.6406-10.521-7.0156-2.422-5.8073.328-12.4792 6.135-14.9011l83.631-34.8437c5.807-2.4167 12.479.3281 14.901 6.1354 2.422 5.8073-.328 12.4792-6.136 14.9011l-83.63 34.8437c-1.432.5938-2.917.8802-4.38.8802Z"/>
  <path fill="#FB2B3A" d="M22.7448 444.365c12.5885 0 22.7865 10.198 22.7865 22.786 0 12.594-10.198 22.792-22.7865 22.792-12.5938 0-22.7917-10.198-22.7917-22.792 0-12.588 10.1979-22.786 22.7917-22.786ZM472.807 11.3958c9.433 0 17.089 7.6563 17.089 17.0886 0 9.4322-7.656 17.0937-17.089 17.0937-9.437 0-17.093-7.6615-17.093-17.0937 0-9.4323 7.656-17.0886 17.093-17.0886Z"/>
  <path fill="#4A78FF" d="M73.6875 250.667c0 17.182-11.7604 31.609-27.6562 35.698-2.9532.765-6.0365 1.161-9.2188 1.161-20.3594 0-36.8594-16.495-36.8594-36.859 0-20.36 16.5-36.86 36.8594-36.86 3.25 0 6.3958.422 9.401 1.209 15.8073 4.156 27.474 18.536 27.474 35.651Zm390.7445-36.86c20.349 0 36.86 16.5 36.86 36.86 0 20.359-16.511 36.859-36.86 36.859-3.25 0-6.396-.422-9.401-1.208-15.802-4.157-27.474-18.537-27.474-35.651 0-17.183 11.761-31.604 27.657-35.698 2.947-.761 6.036-1.162 9.218-1.162ZM250.625 501.333c-20.365 0-36.865-16.51-36.865-36.859 0-3.25.422-6.391 1.209-9.401 4.161-15.802 18.541-27.469 35.656-27.469 17.182 0 31.604 11.761 35.693 27.651.765 2.953 1.166 6.042 1.166 9.219 0 20.349-16.5 36.859-36.859 36.859Zm0-427.6038c-17.182 0-31.609-11.7552-35.698-27.6511-.766-2.9531-1.167-6.0416-1.167-9.2187C213.76 16.5 230.26 0 250.625 0c20.359 0 36.859 16.5 36.859 36.8594 0 3.2448-.421 6.3906-1.208 9.401-4.161 15.8021-18.542 27.4688-35.651 27.4688Z"/>
  <path fill="#07CC66" d="M80.875 369.995c14.1042-8.25 32.531-6.323 44.63 5.786 12.156 12.146 14.047 30.662 5.698 44.792-1.552 2.62-3.453 5.083-5.698 7.338-14.39 14.402-37.7394 14.402-52.13 0-14.401-14.39-14.401-37.734 0-52.13 2.2917-2.286 4.8229-4.224 7.5-5.786Zm346.99 57.916c-14.386 14.401-37.735 14.401-52.125 0-2.292-2.291-4.23-4.817-5.787-7.494-8.25-14.11-6.323-32.532 5.787-44.631 12.145-12.161 30.661-14.052 44.791-5.697 2.62 1.546 5.094 3.453 7.334 5.697 14.406 14.391 14.406 37.735 0 52.125Zm-7.495-296.572c-14.104 8.25-32.531 6.322-44.63-5.787-12.157-12.146-14.047-30.6614-5.698-44.7916 1.552-2.6198 3.453-5.0833 5.698-7.3385 14.39-14.4011 37.734-14.4011 52.125 0 14.406 14.3906 14.406 37.7391 0 52.1301-2.287 2.287-4.818 4.224-7.495 5.787Zm-294.865-5.787c-12.146 12.156-30.6612 14.047-44.7915 5.693-2.6197-1.547-5.0937-3.448-7.3385-5.693-14.401-14.391-14.401-37.7395 0-52.1301 14.3906-14.4011 37.74-14.4011 52.13 0a36.9568 36.9568 0 0 1 5.787 7.5c8.25 14.1041 6.323 32.5261-5.787 44.6301Zm125.12 3.13c67.37 0 121.979 54.615 121.979 121.985 0 67.375-54.609 121.984-121.979 121.984-67.375 0-121.99-54.609-121.99-121.984 0-67.37 54.615-121.985 121.99-121.985Z"/>
  <path fill="#BDF9FF" d="M489.896 113.938c6.292 0 11.396 5.104 11.396 11.395 0 6.292-5.104 11.396-11.396 11.396-6.292 0-11.396-5.104-11.396-11.396 0-6.291 5.104-11.395 11.396-11.395ZM478.5 444.365c6.292 0 11.396 5.104 11.396 11.395 0 6.287-5.104 11.391-11.396 11.391-6.286 0-11.391-5.104-11.391-11.391 0-6.291 5.105-11.395 11.391-11.395ZM364.562 0c6.292 0 11.396 5.1042 11.396 11.3958 0 6.2865-5.104 11.3907-11.396 11.3907-6.291 0-11.395-5.1042-11.395-11.3907C353.167 5.1042 358.271 0 364.562 0Z"/>
  <path fill="#fff" d="M340.656 238.01c1.61 4.193 2.417 8.443 2.417 12.75 0 4.511-.854 8.865-2.563 13.042-1.713 4.193-4.083 7.875-7.099 11.068-3.031 3.187-6.63 5.739-10.822 7.677-4.183 1.927-8.766 2.896-13.719 2.896-5.084 0-9.719-.995-13.912-3-4.182-1.995-7.76-4.615-10.724-7.87-2.963-3.25-5.265-6.964-6.906-11.156-1.641-4.183-2.458-8.5-2.458-12.943 0-4.5.854-8.854 2.562-13.047 1.698-4.182 4.089-7.859 7.146-11.052 3.052-3.193 6.677-5.729 10.87-7.635 4.182-1.901 8.75-2.849 13.719-2.849 5.078 0 9.718 1.005 13.911 3 4.182 1.994 7.761 4.635 10.719 7.916 2.963 3.282 5.245 7.021 6.859 11.203Zm-14.833 20.053c.739-2.485 1.114-5.016 1.114-7.589 0-2.646-.385-5.198-1.161-7.682-.776-2.469-1.937-4.672-3.474-6.563-1.552-1.901-3.432-3.416-5.651-4.547-2.224-1.125-4.786-1.682-7.682-1.682-3.032 0-5.651.589-7.87 1.786-2.224 1.188-4.094 2.745-5.609 4.683-1.516 1.927-2.641 4.135-3.381 6.609-.744 2.485-1.109 5.016-1.109 7.589 0 2.646.391 5.208 1.161 7.682.766 2.479 1.917 4.677 3.433 6.62 1.505 1.922 3.396 3.474 5.651 4.635 2.245 1.151 4.817 1.729 7.724 1.729 3.021 0 5.666-.599 7.922-1.833 2.255-1.219 4.125-2.812 5.604-4.771 1.484-1.974 2.588-4.193 3.328-6.666Z"/>
  <path fill="#BDF9FF" d="M330.38 478.547c6.292 0 11.396 5.104 11.396 11.396 0 6.286-5.104 11.39-11.396 11.39-6.291 0-11.396-5.104-11.396-11.39 0-6.292 5.105-11.396 11.396-11.396Z"/>
  <path fill="#fff" d="M270.62 270.948v13.911h-48.209v-68.578h47.344v13.912H238.26v13.328h27.047v12.844H238.26v14.583h32.36Zm-58.974-14.391c1 2.256 1.489 4.969 1.489 8.115 0 3.859-.718 7.13-2.161 9.807-1.448 2.677-3.375 4.834-5.755 6.474-2.38 1.641-5.115 2.839-8.203 3.578-3.099.74-6.282 1.104-9.573 1.104-2.505 0-5.078-.192-7.724-.583-2.641-.385-5.219-.943-7.724-1.682-2.521-.74-4.948-1.63-7.292-2.656-2.359-1.037-4.536-2.219-6.531-3.579l6.963-13.807c.25.318 1.094.932 2.506 1.833 1.427.902 3.182 1.797 5.265 2.698 2.099.901 4.433 1.709 7.005 2.417 2.579.708 5.188 1.057 7.829 1.057 5.593 0 8.395-1.692 8.395-5.114 0-1.287-.416-2.344-1.25-3.188-.833-.833-1.994-1.593-3.479-2.265-1.479-.677-3.234-1.313-5.26-1.881-2.026-.583-4.24-1.234-6.62-1.937-3.156-.969-5.891-2.005-8.219-3.146-2.312-1.114-4.224-2.427-5.739-3.906-1.516-1.485-2.646-3.193-3.386-5.12-.739-1.937-1.104-4.193-1.104-6.766 0-3.599.672-6.791 2.026-9.562 1.344-2.766 3.193-5.104 5.505-7.005 2.313-1.891 5-3.328 8.068-4.297 3.052-.969 6.287-1.448 9.708-1.448 2.381 0 4.724.229 7.053.677 2.312.453 4.531 1.036 6.666 1.74 2.115.708 4.099 1.515 5.932 2.416 1.834.901 3.532 1.802 5.073 2.698l-6.953 13.141c-.192-.25-.864-.74-2.026-1.448-1.161-.708-2.609-1.448-4.354-2.224-1.729-.771-3.635-1.443-5.698-2.026-2.062-.583-4.12-.865-6.172-.865-5.677 0-8.5 1.891-8.5 5.698 0 1.162.297 2.115.912 2.891.614.776 1.515 1.469 2.698 2.088 1.198.599 2.687 1.172 4.5 1.683 1.802.515 3.895 1.093 6.281 1.744 3.281.902 6.239 1.881 8.885 2.938 2.631 1.062 4.875 2.385 6.714 3.969 1.833 1.567 3.245 3.484 4.25 5.739Z"/>
  <path fill="#BDF9FF" d="M148.078 0c6.287 0 11.391 5.1042 11.391 11.3958 0 6.2865-5.104 11.3907-11.391 11.3907-6.292 0-11.396-5.1042-11.396-11.3907C136.682 5.1042 141.786 0 148.078 0Zm-22.786 478.547c6.286 0 11.39 5.104 11.39 11.396 0 6.286-5.104 11.39-11.39 11.39-6.292 0-11.396-5.104-11.396-11.39 0-6.292 5.104-11.396 11.396-11.396ZM11.349 79.7552c6.2916 0 11.3958 5.1094 11.3958 11.3958 0 6.2917-5.1042 11.396-11.3958 11.396-6.2917 0-11.3959-5.1043-11.3959-11.396 0-6.2864 5.1042-11.3958 11.3959-11.3958Z"/>
  <path fill="#19AB5C" d="M307.594 205.094H193.651c-6.292 0-11.391-5.104-11.391-11.396 0-6.292 5.099-11.396 11.391-11.396h113.943c6.291 0 11.39 5.104 11.39 11.396 0 6.292-5.099 11.396-11.39 11.396Zm0 113.937H193.651c-6.292 0-11.391-5.104-11.391-11.396 0-6.291 5.099-11.39 11.391-11.39h113.943c6.291 0 11.39 5.099 11.39 11.39 0 6.292-5.099 11.396-11.39 11.396Z"/>
</svg>
