<?xml version="1.0" ?><!DOCTYPE svg  PUBLIC '-//W3C//DTD SVG 1.1//EN'  'http://www.w3.org/Graphics/SVG/1.1/DTD/svg11.dtd'><svg enable-background="new 0 0 130 130" height="130px" id="Layer_1" version="1.1" viewBox="0 0 130 130" width="130px" xml:space="preserve" xmlns="http://www.w3.org/2000/svg" xmlns:xlink="http://www.w3.org/1999/xlink"><g><g><path d="M105.132,10.223l-12.82-7.344c-0.561-0.408-1.162-0.754-1.801-1.032l-0.189-0.108l-0.008,0.016    c-3.449-1.402-7.904-0.895-12.764,1.91L38.064,26.46c-10.857,6.269-19.739,21.655-19.739,34.193v45.591    c0,6.114,2.123,10.45,5.547,12.578l-0.033,0.059l14.247,8.072l8.012-13.949L77.55,94.847c10.855-6.269,19.74-21.655,19.74-34.193    V23.876L105.132,10.223z" fill="#48287C"/><path d="M105.132,10.223L91.41,7.005c-0.561-0.409-3.363-0.398-4.002-0.677L86.39,5.92l-1.832-0.34    c-3.449-1.402-2.148-4.721-7.008-1.916L38.064,26.46c-10.857,6.269-19.739,21.655-19.739,34.193v45.591    c0,6.114,2.123,10.45,5.547,12.578l-0.033,0.059l14.247,8.072l8.012-13.949L77.55,94.847c10.855-6.269,19.74-21.655,19.74-34.193    V23.876L105.132,10.223z" fill="#43246B"/><path d="M19.077,54.085c-0.479,2.231-0.752,4.442-0.752,6.568v45.591c0,6.114,2.123,10.45,5.547,12.578    l-0.033,0.059l14.247,8.072l8.012-13.949L77.55,94.847c1.844-1.065,3.627-2.411,5.322-3.945L19.077,54.085z" fill="#371B54"/><g><path d="M51.634,34.329c-10.857,6.269-19.742,21.655-19.742,34.193v45.591c0,12.538,8.885,17.666,19.742,11.398     l39.484-22.796c10.857-6.269,19.742-21.655,19.742-34.193V22.932c0-12.538-8.885-17.666-19.742-11.398L51.634,34.329z" fill="#694193"/><path d="M110.861,22.932c0-12.538-8.885-17.666-19.742-11.398L51.634,34.329     c-10.857,6.269-19.742,21.655-19.742,34.193v45.591c0,12.538,8.885,17.666,19.742,11.398" fill="#5F3882"/><path d="M42.865,129h-0.002c-7.158,0-11.783-5.844-11.783-14.887V68.522c0-12.829,9.037-28.485,20.146-34.897     l39.486-22.796c3.201-1.848,6.289-2.784,9.178-2.784c7.158,0,11.785,5.844,11.785,14.887v45.591     c0,12.829-9.039,28.485-20.148,34.897l-39.486,22.796C48.839,128.063,45.753,129,42.865,129z M99.89,9.674     c-2.6,0-5.414,0.863-8.363,2.564L52.041,35.033c-10.66,6.156-19.334,21.179-19.334,33.489v45.591     c0,8.178,3.891,13.259,10.156,13.259h0.002c2.6,0,5.412-0.864,8.361-2.565l39.486-22.795     c10.66-6.155,19.334-21.179,19.334-33.489V22.932C110.046,14.754,106.156,9.674,99.89,9.674z" fill="#7549AD"/></g></g><g><g enable-background="new    "><g><path d="M73.687,44.894c-0.707,0.408-0.92,0.62-1.197,1.078c-0.566,0.908-0.531,2.137,0.057,2.326      c0.314,0.099,0.557,0.017,1.949-0.699c4.125-2.103,7.276-2.636,10.33-1.767c3.666,1.027,5.971,4.084,6.849,9.066      c0.228,1.265,0.339,2.376,0.415,4.147c0.047,1.148,0.087,1.39,0.222,1.613c0.231,0.375,0.71,0.368,1.185,0.094      c0.385-0.222,0.766-0.617,1.012-1.127c0.293-0.588,0.33-0.939,0.275-2.385c-0.152-4.232-0.975-7.689-2.414-10.165      c-1.035-1.77-2.01-2.734-3.765-3.743c-1.87-1.051-3.278-1.413-5.485-1.374c-2.244,0.039-4.283,0.519-6.806,1.608      c-0.505,0.224-1.418,0.67-2.044,1.002C74.043,44.692,73.851,44.798,73.687,44.894" fill="#E3D7F4"/><path d="M75.402,50.049c-0.702,0.405-1.041,0.803-1.292,1.396c-0.35,0.819-0.303,1.535,0.12,1.834      c0.27,0.212,0.666,0.152,1.388-0.198c1.985-0.963,4.172-1.476,5.649-1.313c1.721,0.174,3.131,1.05,4.105,2.529      c0.855,1.293,1.354,3.306,1.359,5.484c0.004,1.415,0.178,1.837,0.74,1.844c0.186,0.005,0.451-0.093,0.699-0.236      c0.209-0.121,0.406-0.273,0.533-0.425c0.268-0.316,0.574-0.882,0.668-1.223c0.102-0.36,0.096-2.187-0.002-3.138      c-0.275-2.581-1.075-4.669-2.352-6.107c-2.271-2.555-5.732-2.938-10.185-1.116C76.232,49.624,75.767,49.837,75.402,50.049" fill="#E3D7F4"/><path d="M76.722,55.616c-0.258,0.15-0.375,0.259-0.565,0.481c-0.739,0.868-0.946,2.171-0.408,2.595      c0.294,0.227,0.569,0.186,1.47-0.202c1.924-0.846,3.062-0.674,3.711,0.547c0.309,0.571,0.484,1.278,0.582,2.375      c0.086,0.818,0.195,1.078,0.547,1.177c0.236,0.074,0.547,0,0.852-0.176c0.324-0.188,0.644-0.49,0.866-0.853      c0.465-0.762,0.54-1.393,0.337-2.782c-0.3-2.127-0.968-3.343-2.191-3.959c-0.954-0.471-2.061-0.463-3.504,0.018      c-0.307,0.096-0.869,0.347-1.252,0.546C76.978,55.478,76.837,55.551,76.722,55.616" fill="#E3D7F4"/><path d="M58.211,54.685c-0.19,0.11-0.364,0.229-0.507,0.346c-0.703,0.574-1.568,1.67-3.461,4.387      c-1.133,1.632-2.693,4.28-3.055,5.202c-0.852,2.167-0.796,3.561,0.254,6.239c1.366,3.518,3.223,6.634,5.559,9.356l0.07,0.077      c0.328,0.384,0.668,0.768,1.02,1.138c0.379,0.406,0.777,0.794,1.182,1.178c4.347,4.126,9.438,6.616,15.375,7.524      c0.121,0.018,0.243,0.036,0.365,0.055c0.863,0.125,1.752,0.208,2.654,0.26c0.16,0.011,0.326,0.018,0.492,0.025      c0.902,0.044,1.822,0.063,2.77,0.032c0.141-0.001,0.287-0.005,0.428-0.013c0.998-0.04,2.002-0.097,3.037-0.203      c1.113-0.114,1.588-0.232,2.327-0.66c0.136-0.078,0.28-0.167,0.44-0.268c1.25-0.796,2.194-1.782,3.525-3.719      c1.471-2.136,3.576-6.371,4.114-8.291c0.513-1.825,0.375-3.134-0.388-3.766c-0.436-0.352-3.65-1.494-5.146-1.842      c-1.14-0.247-2.905-0.484-3.711-0.504c-0.648-0.005-1.295,0.178-1.933,0.547c-0.413,0.238-0.823,0.555-1.229,0.947      c-0.81,0.791-1.076,1.226-2.266,3.631c-0.611,1.227-1.177,2.348-1.246,2.469l-0.09,0.118c-0.115,0.146-0.287,0.355-0.459,0.544      v0.007l-0.031,0.034c-0.296,0.327-0.623,0.597-0.998,0.813c-0.848,0.489-1.936,0.706-3.43,0.713      c-1.676,0.013-3.16-0.335-4.852-1.131c-1.434-0.671-2.883-1.789-3.697-2.848c-1.047-1.356-1.846-3.454-1.855-4.858      c-0.002-0.608,0.207-1.589,0.467-2.173l0.121-0.225l0.025-0.043c0.057-0.101,0.133-0.225,0.217-0.367      c0.279-0.449,0.674-1.074,1.088-1.695c1.738-2.62,2.127-3.344,2.354-4.437c0.228-1.029-0.018-2.092-0.75-3.301      c-1.279-2.105-5.178-5.564-6.572-5.824c-0.23-0.036-0.627-0.043-0.883,0.002C59.167,54.224,58.65,54.432,58.211,54.685" fill="#FFFFFF"/><g><path d="M77.304,80.35c-0.848,0.489-1.936,0.706-3.43,0.713c-1.676,0.013-3.16-0.335-4.852-1.131       c-1.434-0.671-2.883-1.789-3.697-2.848c-1.047-1.356-1.846-3.454-1.855-4.858c-0.002-0.608,0.207-1.589,0.467-2.173       l0.121-0.225l0.025-0.043c0.057-0.101,0.133-0.225,0.217-0.367c0.279-0.449,0.674-1.074,1.088-1.695       c1.738-2.62,2.127-3.344,2.354-4.437c0.228-1.029-0.018-2.092-0.75-3.301c-1.279-2.105-5.178-5.564-6.572-5.824       c-0.23-0.036-0.627-0.043-0.883,0.002c-0.37,0.061-0.887,0.269-1.325,0.521c-0.19,0.11-0.364,0.229-0.507,0.346       c-0.703,0.574-1.568,1.67-3.461,4.387c-1.133,1.632-2.693,4.28-3.055,5.202c-0.852,2.167-0.796,3.561,0.254,6.239       c1.366,3.518,3.223,6.634,5.559,9.356l0.07,0.077c0.328,0.384,0.668,0.768,1.02,1.138c0.379,0.406,0.777,0.794,1.182,1.178       c3.768,3.576,8.097,5.919,13.05,7.072l5.705-9.882C77.804,80.006,77.57,80.196,77.304,80.35z" fill="#E3D7F4"/><path d="M81.024,74.609l0.414-0.717C81.312,74.091,81.174,74.331,81.024,74.609z" fill="#E3D7F4"/></g></g></g></g></g></svg>